G04 #@! TF.GenerationSoftware,KiCad,Pcbnew,9.0.1*
G04 #@! TF.CreationDate,2025-05-23T23:34:19-04:00*
G04 #@! TF.ProjectId,logic01,6c6f6769-6330-4312-9e6b-696361645f70,rev?*
G04 #@! TF.SameCoordinates,Original*
G04 #@! TF.FileFunction,Copper,L1,Top*
G04 #@! TF.FilePolarity,Positive*
%FSLAX46Y46*%
G04 Gerber Fmt 4.6, Leading zero omitted, Abs format (unit mm)*
G04 Created by KiCad (PCBNEW 9.0.1) date 2025-05-23 23:34:19*
%MOMM*%
%LPD*%
G01*
G04 APERTURE LIST*
G04 Aperture macros list*
%AMRoundRect*
0 Rectangle with rounded corners*
0 $1 Rounding radius*
0 $2 $3 $4 $5 $6 $7 $8 $9 X,Y pos of 4 corners*
0 Add a 4 corners polygon primitive as box body*
4,1,4,$2,$3,$4,$5,$6,$7,$8,$9,$2,$3,0*
0 Add four circle primitives for the rounded corners*
1,1,$1+$1,$2,$3*
1,1,$1+$1,$4,$5*
1,1,$1+$1,$6,$7*
1,1,$1+$1,$8,$9*
0 Add four rect primitives between the rounded corners*
20,1,$1+$1,$2,$3,$4,$5,0*
20,1,$1+$1,$4,$5,$6,$7,0*
20,1,$1+$1,$6,$7,$8,$9,0*
20,1,$1+$1,$8,$9,$2,$3,0*%
G04 Aperture macros list end*
%ADD10C,0.300000*%
G04 #@! TA.AperFunction,NonConductor*
%ADD11C,0.300000*%
G04 #@! TD*
G04 #@! TA.AperFunction,NonConductor*
%ADD12C,0.200000*%
G04 #@! TD*
G04 #@! TA.AperFunction,ComponentPad*
%ADD13C,2.000000*%
G04 #@! TD*
G04 #@! TA.AperFunction,ComponentPad*
%ADD14C,1.600000*%
G04 #@! TD*
G04 #@! TA.AperFunction,ComponentPad*
%ADD15O,1.600000X1.600000*%
G04 #@! TD*
G04 #@! TA.AperFunction,ComponentPad*
%ADD16RoundRect,0.275000X-0.275000X-0.625000X0.275000X-0.625000X0.275000X0.625000X-0.275000X0.625000X0*%
G04 #@! TD*
G04 #@! TA.AperFunction,ComponentPad*
%ADD17R,1.100000X1.800000*%
G04 #@! TD*
G04 #@! TA.AperFunction,ComponentPad*
%ADD18C,1.800000*%
G04 #@! TD*
G04 #@! TA.AperFunction,ComponentPad*
%ADD19R,1.800000X1.800000*%
G04 #@! TD*
G04 #@! TA.AperFunction,SMDPad,CuDef*
%ADD20C,17.800000*%
G04 #@! TD*
G04 #@! TA.AperFunction,SMDPad,CuDef*
%ADD21R,1.270000X5.080000*%
G04 #@! TD*
G04 #@! TA.AperFunction,Conductor*
%ADD22C,0.200000*%
G04 #@! TD*
G04 APERTURE END LIST*
D10*
D11*
X98499328Y-96788122D02*
X98499328Y-96502408D01*
X98499328Y-96502408D02*
X98427900Y-96359551D01*
X98427900Y-96359551D02*
X98356471Y-96288122D01*
X98356471Y-96288122D02*
X98142185Y-96145265D01*
X98142185Y-96145265D02*
X97856471Y-96073836D01*
X97856471Y-96073836D02*
X97285042Y-96073836D01*
X97285042Y-96073836D02*
X97142185Y-96145265D01*
X97142185Y-96145265D02*
X97070757Y-96216694D01*
X97070757Y-96216694D02*
X96999328Y-96359551D01*
X96999328Y-96359551D02*
X96999328Y-96645265D01*
X96999328Y-96645265D02*
X97070757Y-96788122D01*
X97070757Y-96788122D02*
X97142185Y-96859551D01*
X97142185Y-96859551D02*
X97285042Y-96930979D01*
X97285042Y-96930979D02*
X97642185Y-96930979D01*
X97642185Y-96930979D02*
X97785042Y-96859551D01*
X97785042Y-96859551D02*
X97856471Y-96788122D01*
X97856471Y-96788122D02*
X97927900Y-96645265D01*
X97927900Y-96645265D02*
X97927900Y-96359551D01*
X97927900Y-96359551D02*
X97856471Y-96216694D01*
X97856471Y-96216694D02*
X97785042Y-96145265D01*
X97785042Y-96145265D02*
X97642185Y-96073836D01*
X96999328Y-94716694D02*
X96999328Y-95430980D01*
X96999328Y-95430980D02*
X97713614Y-95502408D01*
X97713614Y-95502408D02*
X97642185Y-95430980D01*
X97642185Y-95430980D02*
X97570757Y-95288123D01*
X97570757Y-95288123D02*
X97570757Y-94930980D01*
X97570757Y-94930980D02*
X97642185Y-94788123D01*
X97642185Y-94788123D02*
X97713614Y-94716694D01*
X97713614Y-94716694D02*
X97856471Y-94645265D01*
X97856471Y-94645265D02*
X98213614Y-94645265D01*
X98213614Y-94645265D02*
X98356471Y-94716694D01*
X98356471Y-94716694D02*
X98427900Y-94788123D01*
X98427900Y-94788123D02*
X98499328Y-94930980D01*
X98499328Y-94930980D02*
X98499328Y-95288123D01*
X98499328Y-95288123D02*
X98427900Y-95430980D01*
X98427900Y-95430980D02*
X98356471Y-95502408D01*
X98356471Y-94002409D02*
X98427900Y-93930980D01*
X98427900Y-93930980D02*
X98499328Y-94002409D01*
X98499328Y-94002409D02*
X98427900Y-94073837D01*
X98427900Y-94073837D02*
X98356471Y-94002409D01*
X98356471Y-94002409D02*
X98499328Y-94002409D01*
X96999328Y-92573837D02*
X96999328Y-93288123D01*
X96999328Y-93288123D02*
X97713614Y-93359551D01*
X97713614Y-93359551D02*
X97642185Y-93288123D01*
X97642185Y-93288123D02*
X97570757Y-93145266D01*
X97570757Y-93145266D02*
X97570757Y-92788123D01*
X97570757Y-92788123D02*
X97642185Y-92645266D01*
X97642185Y-92645266D02*
X97713614Y-92573837D01*
X97713614Y-92573837D02*
X97856471Y-92502408D01*
X97856471Y-92502408D02*
X98213614Y-92502408D01*
X98213614Y-92502408D02*
X98356471Y-92573837D01*
X98356471Y-92573837D02*
X98427900Y-92645266D01*
X98427900Y-92645266D02*
X98499328Y-92788123D01*
X98499328Y-92788123D02*
X98499328Y-93145266D01*
X98499328Y-93145266D02*
X98427900Y-93288123D01*
X98427900Y-93288123D02*
X98356471Y-93359551D01*
X96999328Y-91573837D02*
X96999328Y-91430980D01*
X96999328Y-91430980D02*
X97070757Y-91288123D01*
X97070757Y-91288123D02*
X97142185Y-91216695D01*
X97142185Y-91216695D02*
X97285042Y-91145266D01*
X97285042Y-91145266D02*
X97570757Y-91073837D01*
X97570757Y-91073837D02*
X97927900Y-91073837D01*
X97927900Y-91073837D02*
X98213614Y-91145266D01*
X98213614Y-91145266D02*
X98356471Y-91216695D01*
X98356471Y-91216695D02*
X98427900Y-91288123D01*
X98427900Y-91288123D02*
X98499328Y-91430980D01*
X98499328Y-91430980D02*
X98499328Y-91573837D01*
X98499328Y-91573837D02*
X98427900Y-91716695D01*
X98427900Y-91716695D02*
X98356471Y-91788123D01*
X98356471Y-91788123D02*
X98213614Y-91859552D01*
X98213614Y-91859552D02*
X97927900Y-91930980D01*
X97927900Y-91930980D02*
X97570757Y-91930980D01*
X97570757Y-91930980D02*
X97285042Y-91859552D01*
X97285042Y-91859552D02*
X97142185Y-91788123D01*
X97142185Y-91788123D02*
X97070757Y-91716695D01*
X97070757Y-91716695D02*
X96999328Y-91573837D01*
X98499328Y-89645266D02*
X98499328Y-90502409D01*
X98499328Y-90073838D02*
X96999328Y-90073838D01*
X96999328Y-90073838D02*
X97213614Y-90216695D01*
X97213614Y-90216695D02*
X97356471Y-90359552D01*
X97356471Y-90359552D02*
X97427900Y-90502409D01*
X96999328Y-89145267D02*
X96999328Y-88216695D01*
X96999328Y-88216695D02*
X97570757Y-88716695D01*
X97570757Y-88716695D02*
X97570757Y-88502410D01*
X97570757Y-88502410D02*
X97642185Y-88359553D01*
X97642185Y-88359553D02*
X97713614Y-88288124D01*
X97713614Y-88288124D02*
X97856471Y-88216695D01*
X97856471Y-88216695D02*
X98213614Y-88216695D01*
X98213614Y-88216695D02*
X98356471Y-88288124D01*
X98356471Y-88288124D02*
X98427900Y-88359553D01*
X98427900Y-88359553D02*
X98499328Y-88502410D01*
X98499328Y-88502410D02*
X98499328Y-88930981D01*
X98499328Y-88930981D02*
X98427900Y-89073838D01*
X98427900Y-89073838D02*
X98356471Y-89145267D01*
D12*
X149619337Y-44823182D02*
X99034580Y-44823182D01*
X149619337Y-140324494D02*
X99034580Y-140324494D01*
X99621000Y-44823182D02*
X99621000Y-140324494D01*
X99621000Y-44823182D02*
X100207421Y-45949686D01*
X99621000Y-44823182D02*
X99034579Y-45949686D01*
X99621000Y-140324494D02*
X99034579Y-139197990D01*
X99621000Y-140324494D02*
X100207421Y-139197990D01*
D10*
D11*
X145992664Y-149650185D02*
X145849807Y-149578757D01*
X145849807Y-149578757D02*
X145778378Y-149507328D01*
X145778378Y-149507328D02*
X145706950Y-149364471D01*
X145706950Y-149364471D02*
X145706950Y-149293042D01*
X145706950Y-149293042D02*
X145778378Y-149150185D01*
X145778378Y-149150185D02*
X145849807Y-149078757D01*
X145849807Y-149078757D02*
X145992664Y-149007328D01*
X145992664Y-149007328D02*
X146278378Y-149007328D01*
X146278378Y-149007328D02*
X146421236Y-149078757D01*
X146421236Y-149078757D02*
X146492664Y-149150185D01*
X146492664Y-149150185D02*
X146564093Y-149293042D01*
X146564093Y-149293042D02*
X146564093Y-149364471D01*
X146564093Y-149364471D02*
X146492664Y-149507328D01*
X146492664Y-149507328D02*
X146421236Y-149578757D01*
X146421236Y-149578757D02*
X146278378Y-149650185D01*
X146278378Y-149650185D02*
X145992664Y-149650185D01*
X145992664Y-149650185D02*
X145849807Y-149721614D01*
X145849807Y-149721614D02*
X145778378Y-149793042D01*
X145778378Y-149793042D02*
X145706950Y-149935900D01*
X145706950Y-149935900D02*
X145706950Y-150221614D01*
X145706950Y-150221614D02*
X145778378Y-150364471D01*
X145778378Y-150364471D02*
X145849807Y-150435900D01*
X145849807Y-150435900D02*
X145992664Y-150507328D01*
X145992664Y-150507328D02*
X146278378Y-150507328D01*
X146278378Y-150507328D02*
X146421236Y-150435900D01*
X146421236Y-150435900D02*
X146492664Y-150364471D01*
X146492664Y-150364471D02*
X146564093Y-150221614D01*
X146564093Y-150221614D02*
X146564093Y-149935900D01*
X146564093Y-149935900D02*
X146492664Y-149793042D01*
X146492664Y-149793042D02*
X146421236Y-149721614D01*
X146421236Y-149721614D02*
X146278378Y-149650185D01*
X147278378Y-150507328D02*
X147564092Y-150507328D01*
X147564092Y-150507328D02*
X147706949Y-150435900D01*
X147706949Y-150435900D02*
X147778378Y-150364471D01*
X147778378Y-150364471D02*
X147921235Y-150150185D01*
X147921235Y-150150185D02*
X147992664Y-149864471D01*
X147992664Y-149864471D02*
X147992664Y-149293042D01*
X147992664Y-149293042D02*
X147921235Y-149150185D01*
X147921235Y-149150185D02*
X147849807Y-149078757D01*
X147849807Y-149078757D02*
X147706949Y-149007328D01*
X147706949Y-149007328D02*
X147421235Y-149007328D01*
X147421235Y-149007328D02*
X147278378Y-149078757D01*
X147278378Y-149078757D02*
X147206949Y-149150185D01*
X147206949Y-149150185D02*
X147135521Y-149293042D01*
X147135521Y-149293042D02*
X147135521Y-149650185D01*
X147135521Y-149650185D02*
X147206949Y-149793042D01*
X147206949Y-149793042D02*
X147278378Y-149864471D01*
X147278378Y-149864471D02*
X147421235Y-149935900D01*
X147421235Y-149935900D02*
X147706949Y-149935900D01*
X147706949Y-149935900D02*
X147849807Y-149864471D01*
X147849807Y-149864471D02*
X147921235Y-149793042D01*
X147921235Y-149793042D02*
X147992664Y-149650185D01*
X148635520Y-150364471D02*
X148706949Y-150435900D01*
X148706949Y-150435900D02*
X148635520Y-150507328D01*
X148635520Y-150507328D02*
X148564092Y-150435900D01*
X148564092Y-150435900D02*
X148635520Y-150364471D01*
X148635520Y-150364471D02*
X148635520Y-150507328D01*
X149278378Y-149150185D02*
X149349806Y-149078757D01*
X149349806Y-149078757D02*
X149492664Y-149007328D01*
X149492664Y-149007328D02*
X149849806Y-149007328D01*
X149849806Y-149007328D02*
X149992664Y-149078757D01*
X149992664Y-149078757D02*
X150064092Y-149150185D01*
X150064092Y-149150185D02*
X150135521Y-149293042D01*
X150135521Y-149293042D02*
X150135521Y-149435900D01*
X150135521Y-149435900D02*
X150064092Y-149650185D01*
X150064092Y-149650185D02*
X149206949Y-150507328D01*
X149206949Y-150507328D02*
X150135521Y-150507328D01*
X151421235Y-149007328D02*
X151135520Y-149007328D01*
X151135520Y-149007328D02*
X150992663Y-149078757D01*
X150992663Y-149078757D02*
X150921235Y-149150185D01*
X150921235Y-149150185D02*
X150778377Y-149364471D01*
X150778377Y-149364471D02*
X150706949Y-149650185D01*
X150706949Y-149650185D02*
X150706949Y-150221614D01*
X150706949Y-150221614D02*
X150778377Y-150364471D01*
X150778377Y-150364471D02*
X150849806Y-150435900D01*
X150849806Y-150435900D02*
X150992663Y-150507328D01*
X150992663Y-150507328D02*
X151278377Y-150507328D01*
X151278377Y-150507328D02*
X151421235Y-150435900D01*
X151421235Y-150435900D02*
X151492663Y-150364471D01*
X151492663Y-150364471D02*
X151564092Y-150221614D01*
X151564092Y-150221614D02*
X151564092Y-149864471D01*
X151564092Y-149864471D02*
X151492663Y-149721614D01*
X151492663Y-149721614D02*
X151421235Y-149650185D01*
X151421235Y-149650185D02*
X151278377Y-149578757D01*
X151278377Y-149578757D02*
X150992663Y-149578757D01*
X150992663Y-149578757D02*
X150849806Y-149650185D01*
X150849806Y-149650185D02*
X150778377Y-149721614D01*
X150778377Y-149721614D02*
X150706949Y-149864471D01*
X152921234Y-149007328D02*
X152206948Y-149007328D01*
X152206948Y-149007328D02*
X152135520Y-149721614D01*
X152135520Y-149721614D02*
X152206948Y-149650185D01*
X152206948Y-149650185D02*
X152349806Y-149578757D01*
X152349806Y-149578757D02*
X152706948Y-149578757D01*
X152706948Y-149578757D02*
X152849806Y-149650185D01*
X152849806Y-149650185D02*
X152921234Y-149721614D01*
X152921234Y-149721614D02*
X152992663Y-149864471D01*
X152992663Y-149864471D02*
X152992663Y-150221614D01*
X152992663Y-150221614D02*
X152921234Y-150364471D01*
X152921234Y-150364471D02*
X152849806Y-150435900D01*
X152849806Y-150435900D02*
X152706948Y-150507328D01*
X152706948Y-150507328D02*
X152349806Y-150507328D01*
X152349806Y-150507328D02*
X152206948Y-150435900D01*
X152206948Y-150435900D02*
X152135520Y-150364471D01*
X154349805Y-149007328D02*
X153635519Y-149007328D01*
X153635519Y-149007328D02*
X153564091Y-149721614D01*
X153564091Y-149721614D02*
X153635519Y-149650185D01*
X153635519Y-149650185D02*
X153778377Y-149578757D01*
X153778377Y-149578757D02*
X154135519Y-149578757D01*
X154135519Y-149578757D02*
X154278377Y-149650185D01*
X154278377Y-149650185D02*
X154349805Y-149721614D01*
X154349805Y-149721614D02*
X154421234Y-149864471D01*
X154421234Y-149864471D02*
X154421234Y-150221614D01*
X154421234Y-150221614D02*
X154349805Y-150364471D01*
X154349805Y-150364471D02*
X154278377Y-150435900D01*
X154278377Y-150435900D02*
X154135519Y-150507328D01*
X154135519Y-150507328D02*
X153778377Y-150507328D01*
X153778377Y-150507328D02*
X153635519Y-150435900D01*
X153635519Y-150435900D02*
X153564091Y-150364471D01*
D12*
X105431338Y-133841968D02*
X105431338Y-152215420D01*
X194696846Y-133841968D02*
X194696846Y-152215420D01*
X105431338Y-151629000D02*
X194696846Y-151629000D01*
X105431338Y-151629000D02*
X106557842Y-151042579D01*
X105431338Y-151629000D02*
X106557842Y-152215421D01*
X194696846Y-151629000D02*
X193570342Y-152215421D01*
X194696846Y-151629000D02*
X193570342Y-151042579D01*
D13*
G04 #@! TO.P,SW1,1,1*
G04 #@! TO.N,Net-(BT1-+)*
X131121000Y-80629000D03*
X137621000Y-80629000D03*
G04 #@! TO.P,SW1,2,2*
G04 #@! TO.N,Net-(R2-Pad1)*
X131121000Y-85129000D03*
X137621000Y-85129000D03*
G04 #@! TD*
G04 #@! TO.P,SW2,1,1*
G04 #@! TO.N,Net-(R5-Pad1)*
X122121000Y-91629000D03*
X128621000Y-91629000D03*
G04 #@! TO.P,SW2,2,2*
G04 #@! TO.N,Net-(BT1-+)*
X122121000Y-96129000D03*
X128621000Y-96129000D03*
G04 #@! TD*
D14*
G04 #@! TO.P,R2,1*
G04 #@! TO.N,Net-(R2-Pad1)*
X144581000Y-84749000D03*
D15*
G04 #@! TO.P,R2,2*
G04 #@! TO.N,Net-(Q1-B)*
X152201000Y-84749000D03*
G04 #@! TD*
D14*
G04 #@! TO.P,R3,1*
G04 #@! TO.N,Net-(D2-A)*
X144581000Y-88799000D03*
D15*
G04 #@! TO.P,R3,2*
G04 #@! TO.N,Net-(BT1-+)*
X152201000Y-88799000D03*
G04 #@! TD*
D14*
G04 #@! TO.P,R5,1*
G04 #@! TO.N,Net-(R5-Pad1)*
X144581000Y-96899000D03*
D15*
G04 #@! TO.P,R5,2*
G04 #@! TO.N,Net-(Q2-B)*
X152201000Y-96899000D03*
G04 #@! TD*
D14*
G04 #@! TO.P,R6,1*
G04 #@! TO.N,Net-(D3-A)*
X144581000Y-100949000D03*
D15*
G04 #@! TO.P,R6,2*
G04 #@! TO.N,Net-(BT1-+)*
X152201000Y-100949000D03*
G04 #@! TD*
D14*
G04 #@! TO.P,R8,1*
G04 #@! TO.N,Net-(R8-Pad1)*
X144581000Y-109049000D03*
D15*
G04 #@! TO.P,R8,2*
G04 #@! TO.N,Net-(Q5-B)*
X152201000Y-109049000D03*
G04 #@! TD*
D14*
G04 #@! TO.P,R7,1*
G04 #@! TO.N,Net-(R7-Pad1)*
X144581000Y-104999000D03*
D15*
G04 #@! TO.P,R7,2*
G04 #@! TO.N,Net-(Q4-B)*
X152201000Y-104999000D03*
G04 #@! TD*
D14*
G04 #@! TO.P,R4,1*
G04 #@! TO.N,Net-(R4-Pad1)*
X144581000Y-92849000D03*
D15*
G04 #@! TO.P,R4,2*
G04 #@! TO.N,Net-(Q3-B)*
X152201000Y-92849000D03*
G04 #@! TD*
D13*
G04 #@! TO.P,SW5,2,2*
G04 #@! TO.N,Net-(D3-K)*
X138621000Y-107129000D03*
X132121000Y-107129000D03*
G04 #@! TO.P,SW5,1,1*
G04 #@! TO.N,Net-(R8-Pad1)*
X138621000Y-102629000D03*
X132121000Y-102629000D03*
G04 #@! TD*
G04 #@! TO.P,SW4,2,2*
G04 #@! TO.N,Net-(D3-K)*
X127121000Y-107129000D03*
X120621000Y-107129000D03*
G04 #@! TO.P,SW4,1,1*
G04 #@! TO.N,Net-(R7-Pad1)*
X127121000Y-102629000D03*
X120621000Y-102629000D03*
G04 #@! TD*
G04 #@! TO.P,SW3,2,2*
G04 #@! TO.N,Net-(BT1-+)*
X140121000Y-96129000D03*
X133621000Y-96129000D03*
G04 #@! TO.P,SW3,1,1*
G04 #@! TO.N,Net-(R4-Pad1)*
X140121000Y-91629000D03*
X133621000Y-91629000D03*
G04 #@! TD*
D15*
G04 #@! TO.P,R1,2*
G04 #@! TO.N,Net-(Q1-C)*
X152201000Y-80699000D03*
D14*
G04 #@! TO.P,R1,1*
G04 #@! TO.N,Net-(D1-K)*
X144581000Y-80699000D03*
G04 #@! TD*
D16*
G04 #@! TO.P,Q5,3,E*
G04 #@! TO.N,Net-(BT1--)*
X159661000Y-107859000D03*
G04 #@! TO.P,Q5,2,B*
G04 #@! TO.N,Net-(Q5-B)*
X158391000Y-105789000D03*
D17*
G04 #@! TO.P,Q5,1,C*
G04 #@! TO.N,Net-(D3-K)*
X157121000Y-107859000D03*
G04 #@! TD*
D16*
G04 #@! TO.P,Q4,3,E*
G04 #@! TO.N,Net-(BT1--)*
X159661000Y-101749000D03*
G04 #@! TO.P,Q4,2,B*
G04 #@! TO.N,Net-(Q4-B)*
X158391000Y-99679000D03*
D17*
G04 #@! TO.P,Q4,1,C*
G04 #@! TO.N,Net-(D3-K)*
X157121000Y-101749000D03*
G04 #@! TD*
D16*
G04 #@! TO.P,Q3,3,E*
G04 #@! TO.N,Net-(BT1--)*
X159661000Y-95639000D03*
G04 #@! TO.P,Q3,2,B*
G04 #@! TO.N,Net-(Q3-B)*
X158391000Y-93569000D03*
D17*
G04 #@! TO.P,Q3,1,C*
G04 #@! TO.N,Net-(Q2-E)*
X157121000Y-95639000D03*
G04 #@! TD*
D16*
G04 #@! TO.P,Q2,3,E*
G04 #@! TO.N,Net-(Q2-E)*
X159661000Y-89529000D03*
G04 #@! TO.P,Q2,2,B*
G04 #@! TO.N,Net-(Q2-B)*
X158391000Y-87459000D03*
D17*
G04 #@! TO.P,Q2,1,C*
G04 #@! TO.N,Net-(D2-K)*
X157121000Y-89529000D03*
G04 #@! TD*
D16*
G04 #@! TO.P,Q1,3,E*
G04 #@! TO.N,Net-(BT1--)*
X159661000Y-83419000D03*
G04 #@! TO.P,Q1,2,B*
G04 #@! TO.N,Net-(Q1-B)*
X158391000Y-81349000D03*
D17*
G04 #@! TO.P,Q1,1,C*
G04 #@! TO.N,Net-(Q1-C)*
X157121000Y-83419000D03*
G04 #@! TD*
D18*
G04 #@! TO.P,D3,2,A*
G04 #@! TO.N,Net-(D3-A)*
X171121000Y-104129000D03*
D19*
G04 #@! TO.P,D3,1,K*
G04 #@! TO.N,Net-(D3-K)*
X168581000Y-104129000D03*
G04 #@! TD*
D18*
G04 #@! TO.P,D2,2,A*
G04 #@! TO.N,Net-(D2-A)*
X170621000Y-94129000D03*
D19*
G04 #@! TO.P,D2,1,K*
G04 #@! TO.N,Net-(D2-K)*
X168081000Y-94129000D03*
G04 #@! TD*
D18*
G04 #@! TO.P,D1,2,A*
G04 #@! TO.N,Net-(BT1-+)*
X170621000Y-82629000D03*
D19*
G04 #@! TO.P,D1,1,K*
G04 #@! TO.N,Net-(D1-K)*
X168081000Y-82629000D03*
G04 #@! TD*
D20*
G04 #@! TO.P,BT1,2,-*
G04 #@! TO.N,Net-(BT1--)*
X148121000Y-63629000D03*
D21*
G04 #@! TO.P,BT1,1,+*
G04 #@! TO.N,Net-(BT1-+)*
X159106000Y-63629000D03*
X137136000Y-63629000D03*
G04 #@! TD*
D22*
G04 #@! TO.N,Net-(D2-K)*
X162121000Y-94129000D02*
X157121000Y-89129000D01*
X168081000Y-94129000D02*
X162121000Y-94129000D01*
G04 #@! TO.N,Net-(BT1-+)*
X154742000Y-86258000D02*
X166992000Y-86258000D01*
X152201000Y-88799000D02*
X154742000Y-86258000D01*
X166992000Y-86258000D02*
X170621000Y-82629000D01*
G04 #@! TO.N,Net-(D1-K)*
X164860000Y-85850000D02*
X168081000Y-82629000D01*
X144581000Y-80699000D02*
X149732000Y-85850000D01*
X149732000Y-85850000D02*
X164860000Y-85850000D01*
G04 #@! TO.N,Net-(R5-Pad1)*
X122121000Y-91629000D02*
X128621000Y-91629000D01*
G04 #@! TO.N,Net-(R4-Pad1)*
X141841000Y-92849000D02*
X144581000Y-92849000D01*
X140621000Y-91629000D02*
X141841000Y-92849000D01*
X140121000Y-91629000D02*
X140621000Y-91629000D01*
X133621000Y-91629000D02*
X140121000Y-91629000D01*
G04 #@! TO.N,Net-(R2-Pad1)*
X144201000Y-85129000D02*
X144581000Y-84749000D01*
X137621000Y-85129000D02*
X144201000Y-85129000D01*
X131121000Y-85129000D02*
X137621000Y-85129000D01*
G04 #@! TO.N,Net-(Q1-B)*
X157843000Y-84749000D02*
X158391000Y-84201000D01*
X158391000Y-84201000D02*
X158391000Y-81749000D01*
X152201000Y-84749000D02*
X157843000Y-84749000D01*
G04 #@! TO.N,Net-(Q1-C)*
X152201000Y-80699000D02*
X154801000Y-80699000D01*
X154801000Y-80699000D02*
X157121000Y-83019000D01*
G04 #@! TO.N,Net-(BT1--)*
X159661000Y-75169000D02*
X148121000Y-63629000D01*
X159661000Y-83019000D02*
X159661000Y-75169000D01*
G04 #@! TO.N,Net-(Q3-B)*
X157271000Y-92849000D02*
X158391000Y-93969000D01*
X152201000Y-92849000D02*
X157271000Y-92849000D01*
G04 #@! TO.N,Net-(D3-K)*
X151744950Y-110150000D02*
X154430000Y-110150000D01*
X151100000Y-109505050D02*
X151744950Y-110150000D01*
X151100000Y-104542950D02*
X151100000Y-109505050D01*
X154293950Y-101349000D02*
X151100000Y-104542950D01*
X154430000Y-110150000D02*
X157121000Y-107459000D01*
X157121000Y-101349000D02*
X154293950Y-101349000D01*
G04 #@! TO.N,Net-(Q4-B)*
X155923000Y-104999000D02*
X158391000Y-102531000D01*
X152201000Y-104999000D02*
X155923000Y-104999000D01*
X158391000Y-102531000D02*
X158391000Y-100079000D01*
G04 #@! TO.N,Net-(BT1--)*
X159661000Y-101349000D02*
X159661000Y-95239000D01*
X159661000Y-101349000D02*
X159661000Y-107459000D01*
G04 #@! TO.N,Net-(Q5-B)*
X155061000Y-106189000D02*
X158391000Y-106189000D01*
X152201000Y-109049000D02*
X155061000Y-106189000D01*
G04 #@! TO.N,Net-(D3-K)*
X146621000Y-115129000D02*
X149451000Y-115129000D01*
X138621000Y-107129000D02*
X146621000Y-115129000D01*
X149451000Y-115129000D02*
X157121000Y-107459000D01*
X132121000Y-107129000D02*
X138621000Y-107129000D01*
X127121000Y-107129000D02*
X132121000Y-107129000D01*
X120621000Y-107129000D02*
X127121000Y-107129000D01*
G04 #@! TO.N,Net-(R8-Pad1)*
X145682000Y-107948000D02*
X144581000Y-109049000D01*
X145682000Y-104542950D02*
X145682000Y-107948000D01*
X143768050Y-102629000D02*
X145682000Y-104542950D01*
X138621000Y-102629000D02*
X143768050Y-102629000D01*
X132121000Y-102629000D02*
X138621000Y-102629000D01*
G04 #@! TO.N,Net-(R7-Pad1)*
X129491000Y-104999000D02*
X144581000Y-104999000D01*
X127121000Y-102629000D02*
X129491000Y-104999000D01*
X120621000Y-102629000D02*
X127121000Y-102629000D01*
G04 #@! TO.N,Net-(BT1-+)*
X151100000Y-89900000D02*
X152201000Y-88799000D01*
X151100000Y-99848000D02*
X151100000Y-89900000D01*
X152201000Y-100949000D02*
X151100000Y-99848000D01*
X146355213Y-100949000D02*
X152201000Y-100949000D01*
X141535213Y-96129000D02*
X146355213Y-100949000D01*
X140121000Y-96129000D02*
X141535213Y-96129000D01*
X133621000Y-96129000D02*
X140121000Y-96129000D01*
X128621000Y-96129000D02*
X122121000Y-96129000D01*
X133621000Y-96129000D02*
X128621000Y-96129000D01*
X129159892Y-90328000D02*
X133621000Y-94789108D01*
X133621000Y-94789108D02*
X133621000Y-96129000D01*
X129159892Y-82590108D02*
X129159892Y-90328000D01*
X131121000Y-80629000D02*
X129159892Y-82590108D01*
X137621000Y-80629000D02*
X131121000Y-80629000D01*
X137136000Y-80144000D02*
X137621000Y-80629000D01*
X137136000Y-63629000D02*
X137136000Y-80144000D01*
X151932179Y-54428000D02*
X159106000Y-61601821D01*
X144309821Y-54428000D02*
X151932179Y-54428000D01*
X159106000Y-61601821D02*
X159106000Y-63629000D01*
X137136000Y-61601821D02*
X144309821Y-54428000D01*
X137136000Y-63629000D02*
X137136000Y-61601821D01*
G04 #@! TD*
M02*
