G04 #@! TF.GenerationSoftware,KiCad,Pcbnew,9.0.1*
G04 #@! TF.CreationDate,2025-05-23T23:34:19-04:00*
G04 #@! TF.ProjectId,logic01,6c6f6769-6330-4312-9e6b-696361645f70,rev?*
G04 #@! TF.SameCoordinates,Original*
G04 #@! TF.FileFunction,Copper,L2,Bot*
G04 #@! TF.FilePolarity,Positive*
%FSLAX46Y46*%
G04 Gerber Fmt 4.6, Leading zero omitted, Abs format (unit mm)*
G04 Created by KiCad (PCBNEW 9.0.1) date 2025-05-23 23:34:19*
%MOMM*%
%LPD*%
G01*
G04 APERTURE LIST*
G04 Aperture macros list*
%AMRoundRect*
0 Rectangle with rounded corners*
0 $1 Rounding radius*
0 $2 $3 $4 $5 $6 $7 $8 $9 X,Y pos of 4 corners*
0 Add a 4 corners polygon primitive as box body*
4,1,4,$2,$3,$4,$5,$6,$7,$8,$9,$2,$3,0*
0 Add four circle primitives for the rounded corners*
1,1,$1+$1,$2,$3*
1,1,$1+$1,$4,$5*
1,1,$1+$1,$6,$7*
1,1,$1+$1,$8,$9*
0 Add four rect primitives between the rounded corners*
20,1,$1+$1,$2,$3,$4,$5,0*
20,1,$1+$1,$4,$5,$6,$7,0*
20,1,$1+$1,$6,$7,$8,$9,0*
20,1,$1+$1,$8,$9,$2,$3,0*%
G04 Aperture macros list end*
G04 #@! TA.AperFunction,ComponentPad*
%ADD10C,2.000000*%
G04 #@! TD*
G04 #@! TA.AperFunction,ComponentPad*
%ADD11C,1.600000*%
G04 #@! TD*
G04 #@! TA.AperFunction,ComponentPad*
%ADD12O,1.600000X1.600000*%
G04 #@! TD*
G04 #@! TA.AperFunction,ComponentPad*
%ADD13RoundRect,0.275000X-0.275000X-0.625000X0.275000X-0.625000X0.275000X0.625000X-0.275000X0.625000X0*%
G04 #@! TD*
G04 #@! TA.AperFunction,ComponentPad*
%ADD14R,1.100000X1.800000*%
G04 #@! TD*
G04 #@! TA.AperFunction,ComponentPad*
%ADD15C,1.800000*%
G04 #@! TD*
G04 #@! TA.AperFunction,ComponentPad*
%ADD16R,1.800000X1.800000*%
G04 #@! TD*
G04 #@! TA.AperFunction,Conductor*
%ADD17C,0.200000*%
G04 #@! TD*
G04 APERTURE END LIST*
D10*
G04 #@! TO.P,SW1,1,1*
G04 #@! TO.N,Net-(BT1-+)*
X131121000Y-80629000D03*
X137621000Y-80629000D03*
G04 #@! TO.P,SW1,2,2*
G04 #@! TO.N,Net-(R2-Pad1)*
X131121000Y-85129000D03*
X137621000Y-85129000D03*
G04 #@! TD*
G04 #@! TO.P,SW2,1,1*
G04 #@! TO.N,Net-(R5-Pad1)*
X122121000Y-91629000D03*
X128621000Y-91629000D03*
G04 #@! TO.P,SW2,2,2*
G04 #@! TO.N,Net-(BT1-+)*
X122121000Y-96129000D03*
X128621000Y-96129000D03*
G04 #@! TD*
D11*
G04 #@! TO.P,R2,1*
G04 #@! TO.N,Net-(R2-Pad1)*
X144581000Y-84749000D03*
D12*
G04 #@! TO.P,R2,2*
G04 #@! TO.N,Net-(Q1-B)*
X152201000Y-84749000D03*
G04 #@! TD*
D11*
G04 #@! TO.P,R3,1*
G04 #@! TO.N,Net-(D2-A)*
X144581000Y-88799000D03*
D12*
G04 #@! TO.P,R3,2*
G04 #@! TO.N,Net-(BT1-+)*
X152201000Y-88799000D03*
G04 #@! TD*
D11*
G04 #@! TO.P,R5,1*
G04 #@! TO.N,Net-(R5-Pad1)*
X144581000Y-96899000D03*
D12*
G04 #@! TO.P,R5,2*
G04 #@! TO.N,Net-(Q2-B)*
X152201000Y-96899000D03*
G04 #@! TD*
D11*
G04 #@! TO.P,R6,1*
G04 #@! TO.N,Net-(D3-A)*
X144581000Y-100949000D03*
D12*
G04 #@! TO.P,R6,2*
G04 #@! TO.N,Net-(BT1-+)*
X152201000Y-100949000D03*
G04 #@! TD*
D11*
G04 #@! TO.P,R8,1*
G04 #@! TO.N,Net-(R8-Pad1)*
X144581000Y-109049000D03*
D12*
G04 #@! TO.P,R8,2*
G04 #@! TO.N,Net-(Q5-B)*
X152201000Y-109049000D03*
G04 #@! TD*
D11*
G04 #@! TO.P,R7,1*
G04 #@! TO.N,Net-(R7-Pad1)*
X144581000Y-104999000D03*
D12*
G04 #@! TO.P,R7,2*
G04 #@! TO.N,Net-(Q4-B)*
X152201000Y-104999000D03*
G04 #@! TD*
D11*
G04 #@! TO.P,R4,1*
G04 #@! TO.N,Net-(R4-Pad1)*
X144581000Y-92849000D03*
D12*
G04 #@! TO.P,R4,2*
G04 #@! TO.N,Net-(Q3-B)*
X152201000Y-92849000D03*
G04 #@! TD*
D10*
G04 #@! TO.P,SW5,2,2*
G04 #@! TO.N,Net-(D3-K)*
X138621000Y-107129000D03*
X132121000Y-107129000D03*
G04 #@! TO.P,SW5,1,1*
G04 #@! TO.N,Net-(R8-Pad1)*
X138621000Y-102629000D03*
X132121000Y-102629000D03*
G04 #@! TD*
G04 #@! TO.P,SW4,2,2*
G04 #@! TO.N,Net-(D3-K)*
X127121000Y-107129000D03*
X120621000Y-107129000D03*
G04 #@! TO.P,SW4,1,1*
G04 #@! TO.N,Net-(R7-Pad1)*
X127121000Y-102629000D03*
X120621000Y-102629000D03*
G04 #@! TD*
G04 #@! TO.P,SW3,2,2*
G04 #@! TO.N,Net-(BT1-+)*
X140121000Y-96129000D03*
X133621000Y-96129000D03*
G04 #@! TO.P,SW3,1,1*
G04 #@! TO.N,Net-(R4-Pad1)*
X140121000Y-91629000D03*
X133621000Y-91629000D03*
G04 #@! TD*
D12*
G04 #@! TO.P,R1,2*
G04 #@! TO.N,Net-(Q1-C)*
X152201000Y-80699000D03*
D11*
G04 #@! TO.P,R1,1*
G04 #@! TO.N,Net-(D1-K)*
X144581000Y-80699000D03*
G04 #@! TD*
D13*
G04 #@! TO.P,Q5,3,E*
G04 #@! TO.N,Net-(BT1--)*
X159661000Y-107859000D03*
G04 #@! TO.P,Q5,2,B*
G04 #@! TO.N,Net-(Q5-B)*
X158391000Y-105789000D03*
D14*
G04 #@! TO.P,Q5,1,C*
G04 #@! TO.N,Net-(D3-K)*
X157121000Y-107859000D03*
G04 #@! TD*
D13*
G04 #@! TO.P,Q4,3,E*
G04 #@! TO.N,Net-(BT1--)*
X159661000Y-101749000D03*
G04 #@! TO.P,Q4,2,B*
G04 #@! TO.N,Net-(Q4-B)*
X158391000Y-99679000D03*
D14*
G04 #@! TO.P,Q4,1,C*
G04 #@! TO.N,Net-(D3-K)*
X157121000Y-101749000D03*
G04 #@! TD*
D13*
G04 #@! TO.P,Q3,3,E*
G04 #@! TO.N,Net-(BT1--)*
X159661000Y-95639000D03*
G04 #@! TO.P,Q3,2,B*
G04 #@! TO.N,Net-(Q3-B)*
X158391000Y-93569000D03*
D14*
G04 #@! TO.P,Q3,1,C*
G04 #@! TO.N,Net-(Q2-E)*
X157121000Y-95639000D03*
G04 #@! TD*
D13*
G04 #@! TO.P,Q2,3,E*
G04 #@! TO.N,Net-(Q2-E)*
X159661000Y-89529000D03*
G04 #@! TO.P,Q2,2,B*
G04 #@! TO.N,Net-(Q2-B)*
X158391000Y-87459000D03*
D14*
G04 #@! TO.P,Q2,1,C*
G04 #@! TO.N,Net-(D2-K)*
X157121000Y-89529000D03*
G04 #@! TD*
D13*
G04 #@! TO.P,Q1,3,E*
G04 #@! TO.N,Net-(BT1--)*
X159661000Y-83419000D03*
G04 #@! TO.P,Q1,2,B*
G04 #@! TO.N,Net-(Q1-B)*
X158391000Y-81349000D03*
D14*
G04 #@! TO.P,Q1,1,C*
G04 #@! TO.N,Net-(Q1-C)*
X157121000Y-83419000D03*
G04 #@! TD*
D15*
G04 #@! TO.P,D3,2,A*
G04 #@! TO.N,Net-(D3-A)*
X171121000Y-104129000D03*
D16*
G04 #@! TO.P,D3,1,K*
G04 #@! TO.N,Net-(D3-K)*
X168581000Y-104129000D03*
G04 #@! TD*
D15*
G04 #@! TO.P,D2,2,A*
G04 #@! TO.N,Net-(D2-A)*
X170621000Y-94129000D03*
D16*
G04 #@! TO.P,D2,1,K*
G04 #@! TO.N,Net-(D2-K)*
X168081000Y-94129000D03*
G04 #@! TD*
D15*
G04 #@! TO.P,D1,2,A*
G04 #@! TO.N,Net-(BT1-+)*
X170621000Y-82629000D03*
D16*
G04 #@! TO.P,D1,1,K*
G04 #@! TO.N,Net-(D1-K)*
X168081000Y-82629000D03*
G04 #@! TD*
D17*
G04 #@! TO.N,Net-(R5-Pad1)*
X145682000Y-95798000D02*
X144581000Y-96899000D01*
X145682000Y-88342950D02*
X145682000Y-95798000D01*
X145037050Y-87698000D02*
X145682000Y-88342950D01*
X132552000Y-87698000D02*
X145037050Y-87698000D01*
X128621000Y-91629000D02*
X132552000Y-87698000D01*
G04 #@! TO.N,Net-(D3-A)*
X146582000Y-102950000D02*
X144581000Y-100949000D01*
X159654206Y-105330000D02*
X157274206Y-102950000D01*
X169920000Y-105330000D02*
X159654206Y-105330000D01*
X157274206Y-102950000D02*
X146582000Y-102950000D01*
X171121000Y-104129000D02*
X169920000Y-105330000D01*
G04 #@! TO.N,Net-(D3-K)*
X162853000Y-98401000D02*
X168581000Y-104129000D01*
X157349000Y-98401000D02*
X162853000Y-98401000D01*
X157121000Y-98629000D02*
X157349000Y-98401000D01*
X157121000Y-101349000D02*
X157121000Y-98629000D01*
G04 #@! TO.N,Net-(Q2-E)*
X157121000Y-93116794D02*
X157121000Y-95239000D01*
X159661000Y-90576794D02*
X157121000Y-93116794D01*
X159661000Y-89129000D02*
X159661000Y-90576794D01*
G04 #@! TO.N,Net-(Q2-B)*
X158391000Y-90709000D02*
X158391000Y-87859000D01*
X152201000Y-96899000D02*
X158391000Y-90709000D01*
G04 #@! TO.N,Net-(D2-A)*
X142621000Y-98629000D02*
X142621000Y-90759000D01*
X166750000Y-98000000D02*
X143250000Y-98000000D01*
X142621000Y-90759000D02*
X144581000Y-88799000D01*
X143250000Y-98000000D02*
X142621000Y-98629000D01*
X170621000Y-94129000D02*
X166750000Y-98000000D01*
G04 #@! TO.N,Net-(BT1--)*
X160512000Y-83870000D02*
X160512000Y-94388000D01*
X159661000Y-83019000D02*
X160512000Y-83870000D01*
X160512000Y-94388000D02*
X159661000Y-95239000D01*
G04 #@! TD*
M02*
