M48
; DRILL file {KiCad 9.0.1} date 2025-05-23T23:34:19-0400
; FORMAT={-:-/ absolute / metric / decimal}
; #@! TF.CreationDate,2025-05-23T23:34:19-04:00
; #@! TF.GenerationSoftware,Kicad,Pcbnew,9.0.1
; #@! TF.FileFunction,Plated,1,2,PTH
FMAT,2
METRIC
; #@! TA.AperFunction,Plated,PTH,ComponentDrill
T1C0.750
; #@! TA.AperFunction,Plated,PTH,ComponentDrill
T2C0.800
; #@! TA.AperFunction,Plated,PTH,ComponentDrill
T3C0.900
; #@! TA.AperFunction,Plated,PTH,ComponentDrill
T4C1.100
%
G90
G05
T1
X157.121Y-83.019
X157.121Y-89.129
X157.121Y-95.239
X157.121Y-101.349
X157.121Y-107.459
X158.391Y-81.749
X158.391Y-87.859
X158.391Y-93.969
X158.391Y-100.079
X158.391Y-106.189
X159.661Y-83.019
X159.661Y-89.129
X159.661Y-95.239
X159.661Y-101.349
X159.661Y-107.459
T2
X144.581Y-80.699
X144.581Y-84.749
X144.581Y-88.799
X144.581Y-92.849
X144.581Y-96.899
X144.581Y-100.949
X144.581Y-104.999
X144.581Y-109.049
X152.201Y-80.699
X152.201Y-84.749
X152.201Y-88.799
X152.201Y-92.849
X152.201Y-96.899
X152.201Y-100.949
X152.201Y-104.999
X152.201Y-109.049
T3
X168.081Y-82.629
X168.081Y-94.129
X168.581Y-104.129
X170.621Y-82.629
X170.621Y-94.129
X171.121Y-104.129
T4
X120.621Y-102.629
X120.621Y-107.129
X122.121Y-91.629
X122.121Y-96.129
X127.121Y-102.629
X127.121Y-107.129
X128.621Y-91.629
X128.621Y-96.129
X131.121Y-80.629
X131.121Y-85.129
X132.121Y-102.629
X132.121Y-107.129
X133.621Y-91.629
X133.621Y-96.129
X137.621Y-80.629
X137.621Y-85.129
X138.621Y-102.629
X138.621Y-107.129
X140.121Y-91.629
X140.121Y-96.129
M30
