G04 #@! TF.GenerationSoftware,KiCad,Pcbnew,9.0.1*
G04 #@! TF.CreationDate,2025-05-23T23:34:19-04:00*
G04 #@! TF.ProjectId,logic01,6c6f6769-6330-4312-9e6b-696361645f70,rev?*
G04 #@! TF.SameCoordinates,Original*
G04 #@! TF.FileFunction,Legend,Top*
G04 #@! TF.FilePolarity,Positive*
%FSLAX46Y46*%
G04 Gerber Fmt 4.6, Leading zero omitted, Abs format (unit mm)*
G04 Created by KiCad (PCBNEW 9.0.1) date 2025-05-23 23:34:19*
%MOMM*%
%LPD*%
G01*
G04 APERTURE LIST*
G04 Aperture macros list*
%AMRoundRect*
0 Rectangle with rounded corners*
0 $1 Rounding radius*
0 $2 $3 $4 $5 $6 $7 $8 $9 X,Y pos of 4 corners*
0 Add a 4 corners polygon primitive as box body*
4,1,4,$2,$3,$4,$5,$6,$7,$8,$9,$2,$3,0*
0 Add four circle primitives for the rounded corners*
1,1,$1+$1,$2,$3*
1,1,$1+$1,$4,$5*
1,1,$1+$1,$6,$7*
1,1,$1+$1,$8,$9*
0 Add four rect primitives between the rounded corners*
20,1,$1+$1,$2,$3,$4,$5,0*
20,1,$1+$1,$4,$5,$6,$7,0*
20,1,$1+$1,$6,$7,$8,$9,0*
20,1,$1+$1,$8,$9,$2,$3,0*%
G04 Aperture macros list end*
%ADD10C,0.400000*%
%ADD11C,0.150000*%
%ADD12C,0.300000*%
%ADD13C,0.120000*%
%ADD14C,0.000000*%
%ADD15C,2.000000*%
%ADD16C,1.600000*%
%ADD17O,1.600000X1.600000*%
%ADD18RoundRect,0.275000X-0.275000X-0.625000X0.275000X-0.625000X0.275000X0.625000X-0.275000X0.625000X0*%
%ADD19R,1.100000X1.800000*%
%ADD20C,1.800000*%
%ADD21R,1.800000X1.800000*%
%ADD22C,17.800000*%
%ADD23R,1.270000X5.080000*%
G04 APERTURE END LIST*
D10*
X163364268Y-59409709D02*
X165176883Y-58564473D01*
X163726512Y-60186545D02*
X164675977Y-59743802D01*
X164675977Y-59743802D02*
X164808358Y-59576988D01*
X164808358Y-59576988D02*
X164814174Y-59364109D01*
X164814174Y-59364109D02*
X164693426Y-59105163D01*
X164693426Y-59105163D02*
X164526612Y-58972783D01*
X164526612Y-58972783D02*
X164400048Y-58926717D01*
X164537315Y-61699966D02*
X164370502Y-61567585D01*
X164370502Y-61567585D02*
X164209504Y-61222325D01*
X164209504Y-61222325D02*
X164215321Y-61009446D01*
X164215321Y-61009446D02*
X164347701Y-60842632D01*
X164347701Y-60842632D02*
X165038221Y-60520637D01*
X165038221Y-60520637D02*
X165251101Y-60526453D01*
X165251101Y-60526453D02*
X165417915Y-60658834D01*
X165417915Y-60658834D02*
X165578912Y-61004094D01*
X165578912Y-61004094D02*
X165573096Y-61216974D01*
X165573096Y-61216974D02*
X165440715Y-61383787D01*
X165440715Y-61383787D02*
X165268085Y-61464286D01*
X165268085Y-61464286D02*
X164692961Y-60681635D01*
X164974242Y-62862311D02*
X164980058Y-62649432D01*
X164980058Y-62649432D02*
X165112439Y-62482618D01*
X165112439Y-62482618D02*
X166666110Y-61758129D01*
X165416985Y-63811776D02*
X165422801Y-63598897D01*
X165422801Y-63598897D02*
X165555182Y-63432083D01*
X165555182Y-63432083D02*
X167108853Y-62707595D01*
X165859728Y-64761241D02*
X165865544Y-64548362D01*
X165865544Y-64548362D02*
X165911610Y-64421798D01*
X165911610Y-64421798D02*
X166043991Y-64254984D01*
X166043991Y-64254984D02*
X166561881Y-64013488D01*
X166561881Y-64013488D02*
X166774760Y-64019304D01*
X166774760Y-64019304D02*
X166901325Y-64065370D01*
X166901325Y-64065370D02*
X167068138Y-64197750D01*
X167068138Y-64197750D02*
X167188886Y-64456696D01*
X167188886Y-64456696D02*
X167183070Y-64669575D01*
X167183070Y-64669575D02*
X167137004Y-64796139D01*
X167137004Y-64796139D02*
X167004624Y-64962953D01*
X167004624Y-64962953D02*
X166486734Y-65204449D01*
X166486734Y-65204449D02*
X166273854Y-65198633D01*
X166273854Y-65198633D02*
X166147290Y-65152567D01*
X166147290Y-65152567D02*
X165980476Y-65020187D01*
X165980476Y-65020187D02*
X165859728Y-64761241D01*
X168235370Y-66700887D02*
X168557365Y-67391407D01*
X167147708Y-67523323D02*
X168701378Y-66798834D01*
X168701378Y-66798834D02*
X168914258Y-66804651D01*
X168914258Y-66804651D02*
X169081071Y-66937031D01*
X169081071Y-66937031D02*
X169161570Y-67109662D01*
X167630700Y-68559103D02*
X168839110Y-67995612D01*
X168493850Y-68156610D02*
X168706730Y-68162426D01*
X168706730Y-68162426D02*
X168833294Y-68208492D01*
X168833294Y-68208492D02*
X169000108Y-68340872D01*
X169000108Y-68340872D02*
X169080607Y-68513502D01*
X168274690Y-69940143D02*
X168280506Y-69727264D01*
X168280506Y-69727264D02*
X168326572Y-69600700D01*
X168326572Y-69600700D02*
X168458952Y-69433886D01*
X168458952Y-69433886D02*
X168976842Y-69192390D01*
X168976842Y-69192390D02*
X169189722Y-69198206D01*
X169189722Y-69198206D02*
X169316286Y-69244272D01*
X169316286Y-69244272D02*
X169483100Y-69376652D01*
X169483100Y-69376652D02*
X169603848Y-69635597D01*
X169603848Y-69635597D02*
X169598032Y-69848477D01*
X169598032Y-69848477D02*
X169551966Y-69975041D01*
X169551966Y-69975041D02*
X169419585Y-70141855D01*
X169419585Y-70141855D02*
X168901695Y-70383351D01*
X168901695Y-70383351D02*
X168688816Y-70377535D01*
X168688816Y-70377535D02*
X168562251Y-70331469D01*
X168562251Y-70331469D02*
X168395438Y-70199088D01*
X168395438Y-70199088D02*
X168274690Y-69940143D01*
X168918679Y-71321184D02*
X170127090Y-70757693D01*
X169954460Y-70838192D02*
X170081024Y-70884257D01*
X170081024Y-70884257D02*
X170247838Y-71016638D01*
X170247838Y-71016638D02*
X170368586Y-71275583D01*
X170368586Y-71275583D02*
X170362770Y-71488463D01*
X170362770Y-71488463D02*
X170230389Y-71655276D01*
X170230389Y-71655276D02*
X169280924Y-72098019D01*
X170230389Y-71655276D02*
X170443268Y-71661093D01*
X170443268Y-71661093D02*
X170610082Y-71793473D01*
X170610082Y-71793473D02*
X170730830Y-72052418D01*
X170730830Y-72052418D02*
X170725014Y-72265298D01*
X170725014Y-72265298D02*
X170592633Y-72432112D01*
X170592633Y-72432112D02*
X169643168Y-72874854D01*
X172381519Y-74014864D02*
X172864511Y-75050645D01*
X170810400Y-75377991D02*
X172623015Y-74532754D01*
X171454390Y-76759032D02*
X171460206Y-76546152D01*
X171460206Y-76546152D02*
X171506272Y-76419588D01*
X171506272Y-76419588D02*
X171638652Y-76252774D01*
X171638652Y-76252774D02*
X172156542Y-76011278D01*
X172156542Y-76011278D02*
X172369422Y-76017094D01*
X172369422Y-76017094D02*
X172495986Y-76063160D01*
X172495986Y-76063160D02*
X172662800Y-76195541D01*
X172662800Y-76195541D02*
X172783548Y-76454486D01*
X172783548Y-76454486D02*
X172777732Y-76667365D01*
X172777732Y-76667365D02*
X172731666Y-76793930D01*
X172731666Y-76793930D02*
X172599285Y-76960743D01*
X172599285Y-76960743D02*
X172081395Y-77202240D01*
X172081395Y-77202240D02*
X171868516Y-77196423D01*
X171868516Y-77196423D02*
X171741951Y-77150358D01*
X171741951Y-77150358D02*
X171575138Y-77017977D01*
X171575138Y-77017977D02*
X171454390Y-76759032D01*
X172098379Y-78140072D02*
X173306790Y-77576581D01*
X172961530Y-77737579D02*
X173174409Y-77743395D01*
X173174409Y-77743395D02*
X173300973Y-77789461D01*
X173300973Y-77789461D02*
X173467787Y-77921842D01*
X173467787Y-77921842D02*
X173548286Y-78094472D01*
X172742369Y-79521113D02*
X172748185Y-79308233D01*
X172748185Y-79308233D02*
X172794251Y-79181669D01*
X172794251Y-79181669D02*
X172926632Y-79014855D01*
X172926632Y-79014855D02*
X173444522Y-78773359D01*
X173444522Y-78773359D02*
X173657401Y-78779175D01*
X173657401Y-78779175D02*
X173783966Y-78825241D01*
X173783966Y-78825241D02*
X173950779Y-78957622D01*
X173950779Y-78957622D02*
X174071527Y-79216567D01*
X174071527Y-79216567D02*
X174065711Y-79429446D01*
X174065711Y-79429446D02*
X174019645Y-79556011D01*
X174019645Y-79556011D02*
X173887265Y-79722824D01*
X173887265Y-79722824D02*
X173369375Y-79964320D01*
X173369375Y-79964320D02*
X173156495Y-79958504D01*
X173156495Y-79958504D02*
X173029931Y-79912438D01*
X173029931Y-79912438D02*
X172863117Y-79780058D01*
X172863117Y-79780058D02*
X172742369Y-79521113D01*
X174594769Y-80338662D02*
X173386359Y-80902153D01*
X174422139Y-80419161D02*
X174548704Y-80465227D01*
X174548704Y-80465227D02*
X174715517Y-80597607D01*
X174715517Y-80597607D02*
X174836265Y-80856552D01*
X174836265Y-80856552D02*
X174830449Y-81069432D01*
X174830449Y-81069432D02*
X174698068Y-81236246D01*
X174698068Y-81236246D02*
X173748603Y-81678989D01*
X175238759Y-81719703D02*
X175560754Y-82410223D01*
X175963712Y-81696902D02*
X174410042Y-82421391D01*
X174410042Y-82421391D02*
X174277661Y-82588205D01*
X174277661Y-82588205D02*
X174271845Y-82801084D01*
X174271845Y-82801084D02*
X174352343Y-82973714D01*
X174754837Y-83836864D02*
X174760653Y-83623985D01*
X174760653Y-83623985D02*
X174806719Y-83497420D01*
X174806719Y-83497420D02*
X174939100Y-83330607D01*
X174939100Y-83330607D02*
X175456990Y-83089111D01*
X175456990Y-83089111D02*
X175669869Y-83094927D01*
X175669869Y-83094927D02*
X175796434Y-83140993D01*
X175796434Y-83140993D02*
X175963247Y-83273373D01*
X175963247Y-83273373D02*
X176083995Y-83532318D01*
X176083995Y-83532318D02*
X176078179Y-83745198D01*
X176078179Y-83745198D02*
X176032113Y-83871762D01*
X176032113Y-83871762D02*
X175899733Y-84038576D01*
X175899733Y-84038576D02*
X175381843Y-84280072D01*
X175381843Y-84280072D02*
X175168963Y-84274256D01*
X175168963Y-84274256D02*
X175042399Y-84228190D01*
X175042399Y-84228190D02*
X174875585Y-84095809D01*
X174875585Y-84095809D02*
X174754837Y-83836864D01*
X136787665Y-76962009D02*
X137740046Y-76962009D01*
X136597189Y-77533438D02*
X137263855Y-75533438D01*
X137263855Y-75533438D02*
X137930522Y-77533438D01*
X139454332Y-77533438D02*
X139454332Y-76485819D01*
X139454332Y-76485819D02*
X139359094Y-76295342D01*
X139359094Y-76295342D02*
X139168618Y-76200104D01*
X139168618Y-76200104D02*
X138787665Y-76200104D01*
X138787665Y-76200104D02*
X138597189Y-76295342D01*
X139454332Y-77438200D02*
X139263856Y-77533438D01*
X139263856Y-77533438D02*
X138787665Y-77533438D01*
X138787665Y-77533438D02*
X138597189Y-77438200D01*
X138597189Y-77438200D02*
X138501951Y-77247723D01*
X138501951Y-77247723D02*
X138501951Y-77057247D01*
X138501951Y-77057247D02*
X138597189Y-76866771D01*
X138597189Y-76866771D02*
X138787665Y-76771533D01*
X138787665Y-76771533D02*
X139263856Y-76771533D01*
X139263856Y-76771533D02*
X139454332Y-76676295D01*
X140216237Y-76200104D02*
X140692427Y-77533438D01*
X141168618Y-76200104D02*
X140692427Y-77533438D01*
X140692427Y-77533438D02*
X140501951Y-78009628D01*
X140501951Y-78009628D02*
X140406713Y-78104866D01*
X140406713Y-78104866D02*
X140216237Y-78200104D01*
X142787666Y-77533438D02*
X142787666Y-76485819D01*
X142787666Y-76485819D02*
X142692428Y-76295342D01*
X142692428Y-76295342D02*
X142501952Y-76200104D01*
X142501952Y-76200104D02*
X142120999Y-76200104D01*
X142120999Y-76200104D02*
X141930523Y-76295342D01*
X142787666Y-77438200D02*
X142597190Y-77533438D01*
X142597190Y-77533438D02*
X142120999Y-77533438D01*
X142120999Y-77533438D02*
X141930523Y-77438200D01*
X141930523Y-77438200D02*
X141835285Y-77247723D01*
X141835285Y-77247723D02*
X141835285Y-77057247D01*
X141835285Y-77057247D02*
X141930523Y-76866771D01*
X141930523Y-76866771D02*
X142120999Y-76771533D01*
X142120999Y-76771533D02*
X142597190Y-76771533D01*
X142597190Y-76771533D02*
X142787666Y-76676295D01*
X143740047Y-76200104D02*
X143740047Y-77533438D01*
X143740047Y-76390580D02*
X143835285Y-76295342D01*
X143835285Y-76295342D02*
X144025761Y-76200104D01*
X144025761Y-76200104D02*
X144311476Y-76200104D01*
X144311476Y-76200104D02*
X144501952Y-76295342D01*
X144501952Y-76295342D02*
X144597190Y-76485819D01*
X144597190Y-76485819D02*
X144597190Y-77533438D01*
X148501952Y-75438200D02*
X146787667Y-78009628D01*
X150597190Y-75438200D02*
X148882905Y-78009628D01*
X152692429Y-77438200D02*
X152978143Y-77533438D01*
X152978143Y-77533438D02*
X153454334Y-77533438D01*
X153454334Y-77533438D02*
X153644810Y-77438200D01*
X153644810Y-77438200D02*
X153740048Y-77342961D01*
X153740048Y-77342961D02*
X153835286Y-77152485D01*
X153835286Y-77152485D02*
X153835286Y-76962009D01*
X153835286Y-76962009D02*
X153740048Y-76771533D01*
X153740048Y-76771533D02*
X153644810Y-76676295D01*
X153644810Y-76676295D02*
X153454334Y-76581057D01*
X153454334Y-76581057D02*
X153073381Y-76485819D01*
X153073381Y-76485819D02*
X152882905Y-76390580D01*
X152882905Y-76390580D02*
X152787667Y-76295342D01*
X152787667Y-76295342D02*
X152692429Y-76104866D01*
X152692429Y-76104866D02*
X152692429Y-75914390D01*
X152692429Y-75914390D02*
X152787667Y-75723914D01*
X152787667Y-75723914D02*
X152882905Y-75628676D01*
X152882905Y-75628676D02*
X153073381Y-75533438D01*
X153073381Y-75533438D02*
X153549572Y-75533438D01*
X153549572Y-75533438D02*
X153835286Y-75628676D01*
X155549572Y-77438200D02*
X155359096Y-77533438D01*
X155359096Y-77533438D02*
X154978143Y-77533438D01*
X154978143Y-77533438D02*
X154787667Y-77438200D01*
X154787667Y-77438200D02*
X154692429Y-77342961D01*
X154692429Y-77342961D02*
X154597191Y-77152485D01*
X154597191Y-77152485D02*
X154597191Y-76581057D01*
X154597191Y-76581057D02*
X154692429Y-76390580D01*
X154692429Y-76390580D02*
X154787667Y-76295342D01*
X154787667Y-76295342D02*
X154978143Y-76200104D01*
X154978143Y-76200104D02*
X155359096Y-76200104D01*
X155359096Y-76200104D02*
X155549572Y-76295342D01*
X157263858Y-77533438D02*
X157263858Y-76485819D01*
X157263858Y-76485819D02*
X157168620Y-76295342D01*
X157168620Y-76295342D02*
X156978144Y-76200104D01*
X156978144Y-76200104D02*
X156597191Y-76200104D01*
X156597191Y-76200104D02*
X156406715Y-76295342D01*
X157263858Y-77438200D02*
X157073382Y-77533438D01*
X157073382Y-77533438D02*
X156597191Y-77533438D01*
X156597191Y-77533438D02*
X156406715Y-77438200D01*
X156406715Y-77438200D02*
X156311477Y-77247723D01*
X156311477Y-77247723D02*
X156311477Y-77057247D01*
X156311477Y-77057247D02*
X156406715Y-76866771D01*
X156406715Y-76866771D02*
X156597191Y-76771533D01*
X156597191Y-76771533D02*
X157073382Y-76771533D01*
X157073382Y-76771533D02*
X157263858Y-76676295D01*
X158501953Y-77533438D02*
X158311477Y-77438200D01*
X158311477Y-77438200D02*
X158216239Y-77247723D01*
X158216239Y-77247723D02*
X158216239Y-75533438D01*
X160121001Y-77533438D02*
X160121001Y-76485819D01*
X160121001Y-76485819D02*
X160025763Y-76295342D01*
X160025763Y-76295342D02*
X159835287Y-76200104D01*
X159835287Y-76200104D02*
X159454334Y-76200104D01*
X159454334Y-76200104D02*
X159263858Y-76295342D01*
X160121001Y-77438200D02*
X159930525Y-77533438D01*
X159930525Y-77533438D02*
X159454334Y-77533438D01*
X159454334Y-77533438D02*
X159263858Y-77438200D01*
X159263858Y-77438200D02*
X159168620Y-77247723D01*
X159168620Y-77247723D02*
X159168620Y-77057247D01*
X159168620Y-77057247D02*
X159263858Y-76866771D01*
X159263858Y-76866771D02*
X159454334Y-76771533D01*
X159454334Y-76771533D02*
X159930525Y-76771533D01*
X159930525Y-76771533D02*
X160121001Y-76676295D01*
X161073382Y-77533438D02*
X161073382Y-76200104D01*
X161073382Y-76581057D02*
X161168620Y-76390580D01*
X161168620Y-76390580D02*
X161263858Y-76295342D01*
X161263858Y-76295342D02*
X161454334Y-76200104D01*
X161454334Y-76200104D02*
X161644811Y-76200104D01*
D11*
X133037667Y-79036200D02*
X133180524Y-79083819D01*
X133180524Y-79083819D02*
X133418619Y-79083819D01*
X133418619Y-79083819D02*
X133513857Y-79036200D01*
X133513857Y-79036200D02*
X133561476Y-78988580D01*
X133561476Y-78988580D02*
X133609095Y-78893342D01*
X133609095Y-78893342D02*
X133609095Y-78798104D01*
X133609095Y-78798104D02*
X133561476Y-78702866D01*
X133561476Y-78702866D02*
X133513857Y-78655247D01*
X133513857Y-78655247D02*
X133418619Y-78607628D01*
X133418619Y-78607628D02*
X133228143Y-78560009D01*
X133228143Y-78560009D02*
X133132905Y-78512390D01*
X133132905Y-78512390D02*
X133085286Y-78464771D01*
X133085286Y-78464771D02*
X133037667Y-78369533D01*
X133037667Y-78369533D02*
X133037667Y-78274295D01*
X133037667Y-78274295D02*
X133085286Y-78179057D01*
X133085286Y-78179057D02*
X133132905Y-78131438D01*
X133132905Y-78131438D02*
X133228143Y-78083819D01*
X133228143Y-78083819D02*
X133466238Y-78083819D01*
X133466238Y-78083819D02*
X133609095Y-78131438D01*
X133942429Y-78083819D02*
X134180524Y-79083819D01*
X134180524Y-79083819D02*
X134371000Y-78369533D01*
X134371000Y-78369533D02*
X134561476Y-79083819D01*
X134561476Y-79083819D02*
X134799572Y-78083819D01*
X135704333Y-79083819D02*
X135132905Y-79083819D01*
X135418619Y-79083819D02*
X135418619Y-78083819D01*
X135418619Y-78083819D02*
X135323381Y-78226676D01*
X135323381Y-78226676D02*
X135228143Y-78321914D01*
X135228143Y-78321914D02*
X135132905Y-78369533D01*
X124037667Y-90036200D02*
X124180524Y-90083819D01*
X124180524Y-90083819D02*
X124418619Y-90083819D01*
X124418619Y-90083819D02*
X124513857Y-90036200D01*
X124513857Y-90036200D02*
X124561476Y-89988580D01*
X124561476Y-89988580D02*
X124609095Y-89893342D01*
X124609095Y-89893342D02*
X124609095Y-89798104D01*
X124609095Y-89798104D02*
X124561476Y-89702866D01*
X124561476Y-89702866D02*
X124513857Y-89655247D01*
X124513857Y-89655247D02*
X124418619Y-89607628D01*
X124418619Y-89607628D02*
X124228143Y-89560009D01*
X124228143Y-89560009D02*
X124132905Y-89512390D01*
X124132905Y-89512390D02*
X124085286Y-89464771D01*
X124085286Y-89464771D02*
X124037667Y-89369533D01*
X124037667Y-89369533D02*
X124037667Y-89274295D01*
X124037667Y-89274295D02*
X124085286Y-89179057D01*
X124085286Y-89179057D02*
X124132905Y-89131438D01*
X124132905Y-89131438D02*
X124228143Y-89083819D01*
X124228143Y-89083819D02*
X124466238Y-89083819D01*
X124466238Y-89083819D02*
X124609095Y-89131438D01*
X124942429Y-89083819D02*
X125180524Y-90083819D01*
X125180524Y-90083819D02*
X125371000Y-89369533D01*
X125371000Y-89369533D02*
X125561476Y-90083819D01*
X125561476Y-90083819D02*
X125799572Y-89083819D01*
X126132905Y-89179057D02*
X126180524Y-89131438D01*
X126180524Y-89131438D02*
X126275762Y-89083819D01*
X126275762Y-89083819D02*
X126513857Y-89083819D01*
X126513857Y-89083819D02*
X126609095Y-89131438D01*
X126609095Y-89131438D02*
X126656714Y-89179057D01*
X126656714Y-89179057D02*
X126704333Y-89274295D01*
X126704333Y-89274295D02*
X126704333Y-89369533D01*
X126704333Y-89369533D02*
X126656714Y-89512390D01*
X126656714Y-89512390D02*
X126085286Y-90083819D01*
X126085286Y-90083819D02*
X126704333Y-90083819D01*
X148224333Y-82833819D02*
X147891000Y-82357628D01*
X147652905Y-82833819D02*
X147652905Y-81833819D01*
X147652905Y-81833819D02*
X148033857Y-81833819D01*
X148033857Y-81833819D02*
X148129095Y-81881438D01*
X148129095Y-81881438D02*
X148176714Y-81929057D01*
X148176714Y-81929057D02*
X148224333Y-82024295D01*
X148224333Y-82024295D02*
X148224333Y-82167152D01*
X148224333Y-82167152D02*
X148176714Y-82262390D01*
X148176714Y-82262390D02*
X148129095Y-82310009D01*
X148129095Y-82310009D02*
X148033857Y-82357628D01*
X148033857Y-82357628D02*
X147652905Y-82357628D01*
X148605286Y-81929057D02*
X148652905Y-81881438D01*
X148652905Y-81881438D02*
X148748143Y-81833819D01*
X148748143Y-81833819D02*
X148986238Y-81833819D01*
X148986238Y-81833819D02*
X149081476Y-81881438D01*
X149081476Y-81881438D02*
X149129095Y-81929057D01*
X149129095Y-81929057D02*
X149176714Y-82024295D01*
X149176714Y-82024295D02*
X149176714Y-82119533D01*
X149176714Y-82119533D02*
X149129095Y-82262390D01*
X149129095Y-82262390D02*
X148557667Y-82833819D01*
X148557667Y-82833819D02*
X149176714Y-82833819D01*
X148224333Y-86883819D02*
X147891000Y-86407628D01*
X147652905Y-86883819D02*
X147652905Y-85883819D01*
X147652905Y-85883819D02*
X148033857Y-85883819D01*
X148033857Y-85883819D02*
X148129095Y-85931438D01*
X148129095Y-85931438D02*
X148176714Y-85979057D01*
X148176714Y-85979057D02*
X148224333Y-86074295D01*
X148224333Y-86074295D02*
X148224333Y-86217152D01*
X148224333Y-86217152D02*
X148176714Y-86312390D01*
X148176714Y-86312390D02*
X148129095Y-86360009D01*
X148129095Y-86360009D02*
X148033857Y-86407628D01*
X148033857Y-86407628D02*
X147652905Y-86407628D01*
X148557667Y-85883819D02*
X149176714Y-85883819D01*
X149176714Y-85883819D02*
X148843381Y-86264771D01*
X148843381Y-86264771D02*
X148986238Y-86264771D01*
X148986238Y-86264771D02*
X149081476Y-86312390D01*
X149081476Y-86312390D02*
X149129095Y-86360009D01*
X149129095Y-86360009D02*
X149176714Y-86455247D01*
X149176714Y-86455247D02*
X149176714Y-86693342D01*
X149176714Y-86693342D02*
X149129095Y-86788580D01*
X149129095Y-86788580D02*
X149081476Y-86836200D01*
X149081476Y-86836200D02*
X148986238Y-86883819D01*
X148986238Y-86883819D02*
X148700524Y-86883819D01*
X148700524Y-86883819D02*
X148605286Y-86836200D01*
X148605286Y-86836200D02*
X148557667Y-86788580D01*
X148224333Y-94983819D02*
X147891000Y-94507628D01*
X147652905Y-94983819D02*
X147652905Y-93983819D01*
X147652905Y-93983819D02*
X148033857Y-93983819D01*
X148033857Y-93983819D02*
X148129095Y-94031438D01*
X148129095Y-94031438D02*
X148176714Y-94079057D01*
X148176714Y-94079057D02*
X148224333Y-94174295D01*
X148224333Y-94174295D02*
X148224333Y-94317152D01*
X148224333Y-94317152D02*
X148176714Y-94412390D01*
X148176714Y-94412390D02*
X148129095Y-94460009D01*
X148129095Y-94460009D02*
X148033857Y-94507628D01*
X148033857Y-94507628D02*
X147652905Y-94507628D01*
X149129095Y-93983819D02*
X148652905Y-93983819D01*
X148652905Y-93983819D02*
X148605286Y-94460009D01*
X148605286Y-94460009D02*
X148652905Y-94412390D01*
X148652905Y-94412390D02*
X148748143Y-94364771D01*
X148748143Y-94364771D02*
X148986238Y-94364771D01*
X148986238Y-94364771D02*
X149081476Y-94412390D01*
X149081476Y-94412390D02*
X149129095Y-94460009D01*
X149129095Y-94460009D02*
X149176714Y-94555247D01*
X149176714Y-94555247D02*
X149176714Y-94793342D01*
X149176714Y-94793342D02*
X149129095Y-94888580D01*
X149129095Y-94888580D02*
X149081476Y-94936200D01*
X149081476Y-94936200D02*
X148986238Y-94983819D01*
X148986238Y-94983819D02*
X148748143Y-94983819D01*
X148748143Y-94983819D02*
X148652905Y-94936200D01*
X148652905Y-94936200D02*
X148605286Y-94888580D01*
X148224333Y-99033819D02*
X147891000Y-98557628D01*
X147652905Y-99033819D02*
X147652905Y-98033819D01*
X147652905Y-98033819D02*
X148033857Y-98033819D01*
X148033857Y-98033819D02*
X148129095Y-98081438D01*
X148129095Y-98081438D02*
X148176714Y-98129057D01*
X148176714Y-98129057D02*
X148224333Y-98224295D01*
X148224333Y-98224295D02*
X148224333Y-98367152D01*
X148224333Y-98367152D02*
X148176714Y-98462390D01*
X148176714Y-98462390D02*
X148129095Y-98510009D01*
X148129095Y-98510009D02*
X148033857Y-98557628D01*
X148033857Y-98557628D02*
X147652905Y-98557628D01*
X149081476Y-98033819D02*
X148891000Y-98033819D01*
X148891000Y-98033819D02*
X148795762Y-98081438D01*
X148795762Y-98081438D02*
X148748143Y-98129057D01*
X148748143Y-98129057D02*
X148652905Y-98271914D01*
X148652905Y-98271914D02*
X148605286Y-98462390D01*
X148605286Y-98462390D02*
X148605286Y-98843342D01*
X148605286Y-98843342D02*
X148652905Y-98938580D01*
X148652905Y-98938580D02*
X148700524Y-98986200D01*
X148700524Y-98986200D02*
X148795762Y-99033819D01*
X148795762Y-99033819D02*
X148986238Y-99033819D01*
X148986238Y-99033819D02*
X149081476Y-98986200D01*
X149081476Y-98986200D02*
X149129095Y-98938580D01*
X149129095Y-98938580D02*
X149176714Y-98843342D01*
X149176714Y-98843342D02*
X149176714Y-98605247D01*
X149176714Y-98605247D02*
X149129095Y-98510009D01*
X149129095Y-98510009D02*
X149081476Y-98462390D01*
X149081476Y-98462390D02*
X148986238Y-98414771D01*
X148986238Y-98414771D02*
X148795762Y-98414771D01*
X148795762Y-98414771D02*
X148700524Y-98462390D01*
X148700524Y-98462390D02*
X148652905Y-98510009D01*
X148652905Y-98510009D02*
X148605286Y-98605247D01*
X148224333Y-107133819D02*
X147891000Y-106657628D01*
X147652905Y-107133819D02*
X147652905Y-106133819D01*
X147652905Y-106133819D02*
X148033857Y-106133819D01*
X148033857Y-106133819D02*
X148129095Y-106181438D01*
X148129095Y-106181438D02*
X148176714Y-106229057D01*
X148176714Y-106229057D02*
X148224333Y-106324295D01*
X148224333Y-106324295D02*
X148224333Y-106467152D01*
X148224333Y-106467152D02*
X148176714Y-106562390D01*
X148176714Y-106562390D02*
X148129095Y-106610009D01*
X148129095Y-106610009D02*
X148033857Y-106657628D01*
X148033857Y-106657628D02*
X147652905Y-106657628D01*
X148795762Y-106562390D02*
X148700524Y-106514771D01*
X148700524Y-106514771D02*
X148652905Y-106467152D01*
X148652905Y-106467152D02*
X148605286Y-106371914D01*
X148605286Y-106371914D02*
X148605286Y-106324295D01*
X148605286Y-106324295D02*
X148652905Y-106229057D01*
X148652905Y-106229057D02*
X148700524Y-106181438D01*
X148700524Y-106181438D02*
X148795762Y-106133819D01*
X148795762Y-106133819D02*
X148986238Y-106133819D01*
X148986238Y-106133819D02*
X149081476Y-106181438D01*
X149081476Y-106181438D02*
X149129095Y-106229057D01*
X149129095Y-106229057D02*
X149176714Y-106324295D01*
X149176714Y-106324295D02*
X149176714Y-106371914D01*
X149176714Y-106371914D02*
X149129095Y-106467152D01*
X149129095Y-106467152D02*
X149081476Y-106514771D01*
X149081476Y-106514771D02*
X148986238Y-106562390D01*
X148986238Y-106562390D02*
X148795762Y-106562390D01*
X148795762Y-106562390D02*
X148700524Y-106610009D01*
X148700524Y-106610009D02*
X148652905Y-106657628D01*
X148652905Y-106657628D02*
X148605286Y-106752866D01*
X148605286Y-106752866D02*
X148605286Y-106943342D01*
X148605286Y-106943342D02*
X148652905Y-107038580D01*
X148652905Y-107038580D02*
X148700524Y-107086200D01*
X148700524Y-107086200D02*
X148795762Y-107133819D01*
X148795762Y-107133819D02*
X148986238Y-107133819D01*
X148986238Y-107133819D02*
X149081476Y-107086200D01*
X149081476Y-107086200D02*
X149129095Y-107038580D01*
X149129095Y-107038580D02*
X149176714Y-106943342D01*
X149176714Y-106943342D02*
X149176714Y-106752866D01*
X149176714Y-106752866D02*
X149129095Y-106657628D01*
X149129095Y-106657628D02*
X149081476Y-106610009D01*
X149081476Y-106610009D02*
X148986238Y-106562390D01*
X148224333Y-103083819D02*
X147891000Y-102607628D01*
X147652905Y-103083819D02*
X147652905Y-102083819D01*
X147652905Y-102083819D02*
X148033857Y-102083819D01*
X148033857Y-102083819D02*
X148129095Y-102131438D01*
X148129095Y-102131438D02*
X148176714Y-102179057D01*
X148176714Y-102179057D02*
X148224333Y-102274295D01*
X148224333Y-102274295D02*
X148224333Y-102417152D01*
X148224333Y-102417152D02*
X148176714Y-102512390D01*
X148176714Y-102512390D02*
X148129095Y-102560009D01*
X148129095Y-102560009D02*
X148033857Y-102607628D01*
X148033857Y-102607628D02*
X147652905Y-102607628D01*
X148557667Y-102083819D02*
X149224333Y-102083819D01*
X149224333Y-102083819D02*
X148795762Y-103083819D01*
X148224333Y-90933819D02*
X147891000Y-90457628D01*
X147652905Y-90933819D02*
X147652905Y-89933819D01*
X147652905Y-89933819D02*
X148033857Y-89933819D01*
X148033857Y-89933819D02*
X148129095Y-89981438D01*
X148129095Y-89981438D02*
X148176714Y-90029057D01*
X148176714Y-90029057D02*
X148224333Y-90124295D01*
X148224333Y-90124295D02*
X148224333Y-90267152D01*
X148224333Y-90267152D02*
X148176714Y-90362390D01*
X148176714Y-90362390D02*
X148129095Y-90410009D01*
X148129095Y-90410009D02*
X148033857Y-90457628D01*
X148033857Y-90457628D02*
X147652905Y-90457628D01*
X149081476Y-90267152D02*
X149081476Y-90933819D01*
X148843381Y-89886200D02*
X148605286Y-90600485D01*
X148605286Y-90600485D02*
X149224333Y-90600485D01*
X134037667Y-101036200D02*
X134180524Y-101083819D01*
X134180524Y-101083819D02*
X134418619Y-101083819D01*
X134418619Y-101083819D02*
X134513857Y-101036200D01*
X134513857Y-101036200D02*
X134561476Y-100988580D01*
X134561476Y-100988580D02*
X134609095Y-100893342D01*
X134609095Y-100893342D02*
X134609095Y-100798104D01*
X134609095Y-100798104D02*
X134561476Y-100702866D01*
X134561476Y-100702866D02*
X134513857Y-100655247D01*
X134513857Y-100655247D02*
X134418619Y-100607628D01*
X134418619Y-100607628D02*
X134228143Y-100560009D01*
X134228143Y-100560009D02*
X134132905Y-100512390D01*
X134132905Y-100512390D02*
X134085286Y-100464771D01*
X134085286Y-100464771D02*
X134037667Y-100369533D01*
X134037667Y-100369533D02*
X134037667Y-100274295D01*
X134037667Y-100274295D02*
X134085286Y-100179057D01*
X134085286Y-100179057D02*
X134132905Y-100131438D01*
X134132905Y-100131438D02*
X134228143Y-100083819D01*
X134228143Y-100083819D02*
X134466238Y-100083819D01*
X134466238Y-100083819D02*
X134609095Y-100131438D01*
X134942429Y-100083819D02*
X135180524Y-101083819D01*
X135180524Y-101083819D02*
X135371000Y-100369533D01*
X135371000Y-100369533D02*
X135561476Y-101083819D01*
X135561476Y-101083819D02*
X135799572Y-100083819D01*
X136656714Y-100083819D02*
X136180524Y-100083819D01*
X136180524Y-100083819D02*
X136132905Y-100560009D01*
X136132905Y-100560009D02*
X136180524Y-100512390D01*
X136180524Y-100512390D02*
X136275762Y-100464771D01*
X136275762Y-100464771D02*
X136513857Y-100464771D01*
X136513857Y-100464771D02*
X136609095Y-100512390D01*
X136609095Y-100512390D02*
X136656714Y-100560009D01*
X136656714Y-100560009D02*
X136704333Y-100655247D01*
X136704333Y-100655247D02*
X136704333Y-100893342D01*
X136704333Y-100893342D02*
X136656714Y-100988580D01*
X136656714Y-100988580D02*
X136609095Y-101036200D01*
X136609095Y-101036200D02*
X136513857Y-101083819D01*
X136513857Y-101083819D02*
X136275762Y-101083819D01*
X136275762Y-101083819D02*
X136180524Y-101036200D01*
X136180524Y-101036200D02*
X136132905Y-100988580D01*
X122537667Y-101036200D02*
X122680524Y-101083819D01*
X122680524Y-101083819D02*
X122918619Y-101083819D01*
X122918619Y-101083819D02*
X123013857Y-101036200D01*
X123013857Y-101036200D02*
X123061476Y-100988580D01*
X123061476Y-100988580D02*
X123109095Y-100893342D01*
X123109095Y-100893342D02*
X123109095Y-100798104D01*
X123109095Y-100798104D02*
X123061476Y-100702866D01*
X123061476Y-100702866D02*
X123013857Y-100655247D01*
X123013857Y-100655247D02*
X122918619Y-100607628D01*
X122918619Y-100607628D02*
X122728143Y-100560009D01*
X122728143Y-100560009D02*
X122632905Y-100512390D01*
X122632905Y-100512390D02*
X122585286Y-100464771D01*
X122585286Y-100464771D02*
X122537667Y-100369533D01*
X122537667Y-100369533D02*
X122537667Y-100274295D01*
X122537667Y-100274295D02*
X122585286Y-100179057D01*
X122585286Y-100179057D02*
X122632905Y-100131438D01*
X122632905Y-100131438D02*
X122728143Y-100083819D01*
X122728143Y-100083819D02*
X122966238Y-100083819D01*
X122966238Y-100083819D02*
X123109095Y-100131438D01*
X123442429Y-100083819D02*
X123680524Y-101083819D01*
X123680524Y-101083819D02*
X123871000Y-100369533D01*
X123871000Y-100369533D02*
X124061476Y-101083819D01*
X124061476Y-101083819D02*
X124299572Y-100083819D01*
X125109095Y-100417152D02*
X125109095Y-101083819D01*
X124871000Y-100036200D02*
X124632905Y-100750485D01*
X124632905Y-100750485D02*
X125251952Y-100750485D01*
X135537667Y-90036200D02*
X135680524Y-90083819D01*
X135680524Y-90083819D02*
X135918619Y-90083819D01*
X135918619Y-90083819D02*
X136013857Y-90036200D01*
X136013857Y-90036200D02*
X136061476Y-89988580D01*
X136061476Y-89988580D02*
X136109095Y-89893342D01*
X136109095Y-89893342D02*
X136109095Y-89798104D01*
X136109095Y-89798104D02*
X136061476Y-89702866D01*
X136061476Y-89702866D02*
X136013857Y-89655247D01*
X136013857Y-89655247D02*
X135918619Y-89607628D01*
X135918619Y-89607628D02*
X135728143Y-89560009D01*
X135728143Y-89560009D02*
X135632905Y-89512390D01*
X135632905Y-89512390D02*
X135585286Y-89464771D01*
X135585286Y-89464771D02*
X135537667Y-89369533D01*
X135537667Y-89369533D02*
X135537667Y-89274295D01*
X135537667Y-89274295D02*
X135585286Y-89179057D01*
X135585286Y-89179057D02*
X135632905Y-89131438D01*
X135632905Y-89131438D02*
X135728143Y-89083819D01*
X135728143Y-89083819D02*
X135966238Y-89083819D01*
X135966238Y-89083819D02*
X136109095Y-89131438D01*
X136442429Y-89083819D02*
X136680524Y-90083819D01*
X136680524Y-90083819D02*
X136871000Y-89369533D01*
X136871000Y-89369533D02*
X137061476Y-90083819D01*
X137061476Y-90083819D02*
X137299572Y-89083819D01*
X137585286Y-89083819D02*
X138204333Y-89083819D01*
X138204333Y-89083819D02*
X137871000Y-89464771D01*
X137871000Y-89464771D02*
X138013857Y-89464771D01*
X138013857Y-89464771D02*
X138109095Y-89512390D01*
X138109095Y-89512390D02*
X138156714Y-89560009D01*
X138156714Y-89560009D02*
X138204333Y-89655247D01*
X138204333Y-89655247D02*
X138204333Y-89893342D01*
X138204333Y-89893342D02*
X138156714Y-89988580D01*
X138156714Y-89988580D02*
X138109095Y-90036200D01*
X138109095Y-90036200D02*
X138013857Y-90083819D01*
X138013857Y-90083819D02*
X137728143Y-90083819D01*
X137728143Y-90083819D02*
X137632905Y-90036200D01*
X137632905Y-90036200D02*
X137585286Y-89988580D01*
X148224333Y-78783819D02*
X147891000Y-78307628D01*
X147652905Y-78783819D02*
X147652905Y-77783819D01*
X147652905Y-77783819D02*
X148033857Y-77783819D01*
X148033857Y-77783819D02*
X148129095Y-77831438D01*
X148129095Y-77831438D02*
X148176714Y-77879057D01*
X148176714Y-77879057D02*
X148224333Y-77974295D01*
X148224333Y-77974295D02*
X148224333Y-78117152D01*
X148224333Y-78117152D02*
X148176714Y-78212390D01*
X148176714Y-78212390D02*
X148129095Y-78260009D01*
X148129095Y-78260009D02*
X148033857Y-78307628D01*
X148033857Y-78307628D02*
X147652905Y-78307628D01*
X149176714Y-78783819D02*
X148605286Y-78783819D01*
X148891000Y-78783819D02*
X148891000Y-77783819D01*
X148891000Y-77783819D02*
X148795762Y-77926676D01*
X148795762Y-77926676D02*
X148700524Y-78021914D01*
X148700524Y-78021914D02*
X148605286Y-78069533D01*
X158295761Y-104209057D02*
X158200523Y-104161438D01*
X158200523Y-104161438D02*
X158105285Y-104066200D01*
X158105285Y-104066200D02*
X157962428Y-103923342D01*
X157962428Y-103923342D02*
X157867190Y-103875723D01*
X157867190Y-103875723D02*
X157771952Y-103875723D01*
X157819571Y-104113819D02*
X157724333Y-104066200D01*
X157724333Y-104066200D02*
X157629095Y-103970961D01*
X157629095Y-103970961D02*
X157581476Y-103780485D01*
X157581476Y-103780485D02*
X157581476Y-103447152D01*
X157581476Y-103447152D02*
X157629095Y-103256676D01*
X157629095Y-103256676D02*
X157724333Y-103161438D01*
X157724333Y-103161438D02*
X157819571Y-103113819D01*
X157819571Y-103113819D02*
X158010047Y-103113819D01*
X158010047Y-103113819D02*
X158105285Y-103161438D01*
X158105285Y-103161438D02*
X158200523Y-103256676D01*
X158200523Y-103256676D02*
X158248142Y-103447152D01*
X158248142Y-103447152D02*
X158248142Y-103780485D01*
X158248142Y-103780485D02*
X158200523Y-103970961D01*
X158200523Y-103970961D02*
X158105285Y-104066200D01*
X158105285Y-104066200D02*
X158010047Y-104113819D01*
X158010047Y-104113819D02*
X157819571Y-104113819D01*
X159152904Y-103113819D02*
X158676714Y-103113819D01*
X158676714Y-103113819D02*
X158629095Y-103590009D01*
X158629095Y-103590009D02*
X158676714Y-103542390D01*
X158676714Y-103542390D02*
X158771952Y-103494771D01*
X158771952Y-103494771D02*
X159010047Y-103494771D01*
X159010047Y-103494771D02*
X159105285Y-103542390D01*
X159105285Y-103542390D02*
X159152904Y-103590009D01*
X159152904Y-103590009D02*
X159200523Y-103685247D01*
X159200523Y-103685247D02*
X159200523Y-103923342D01*
X159200523Y-103923342D02*
X159152904Y-104018580D01*
X159152904Y-104018580D02*
X159105285Y-104066200D01*
X159105285Y-104066200D02*
X159010047Y-104113819D01*
X159010047Y-104113819D02*
X158771952Y-104113819D01*
X158771952Y-104113819D02*
X158676714Y-104066200D01*
X158676714Y-104066200D02*
X158629095Y-104018580D01*
X158295761Y-98099057D02*
X158200523Y-98051438D01*
X158200523Y-98051438D02*
X158105285Y-97956200D01*
X158105285Y-97956200D02*
X157962428Y-97813342D01*
X157962428Y-97813342D02*
X157867190Y-97765723D01*
X157867190Y-97765723D02*
X157771952Y-97765723D01*
X157819571Y-98003819D02*
X157724333Y-97956200D01*
X157724333Y-97956200D02*
X157629095Y-97860961D01*
X157629095Y-97860961D02*
X157581476Y-97670485D01*
X157581476Y-97670485D02*
X157581476Y-97337152D01*
X157581476Y-97337152D02*
X157629095Y-97146676D01*
X157629095Y-97146676D02*
X157724333Y-97051438D01*
X157724333Y-97051438D02*
X157819571Y-97003819D01*
X157819571Y-97003819D02*
X158010047Y-97003819D01*
X158010047Y-97003819D02*
X158105285Y-97051438D01*
X158105285Y-97051438D02*
X158200523Y-97146676D01*
X158200523Y-97146676D02*
X158248142Y-97337152D01*
X158248142Y-97337152D02*
X158248142Y-97670485D01*
X158248142Y-97670485D02*
X158200523Y-97860961D01*
X158200523Y-97860961D02*
X158105285Y-97956200D01*
X158105285Y-97956200D02*
X158010047Y-98003819D01*
X158010047Y-98003819D02*
X157819571Y-98003819D01*
X159105285Y-97337152D02*
X159105285Y-98003819D01*
X158867190Y-96956200D02*
X158629095Y-97670485D01*
X158629095Y-97670485D02*
X159248142Y-97670485D01*
X158295761Y-91989057D02*
X158200523Y-91941438D01*
X158200523Y-91941438D02*
X158105285Y-91846200D01*
X158105285Y-91846200D02*
X157962428Y-91703342D01*
X157962428Y-91703342D02*
X157867190Y-91655723D01*
X157867190Y-91655723D02*
X157771952Y-91655723D01*
X157819571Y-91893819D02*
X157724333Y-91846200D01*
X157724333Y-91846200D02*
X157629095Y-91750961D01*
X157629095Y-91750961D02*
X157581476Y-91560485D01*
X157581476Y-91560485D02*
X157581476Y-91227152D01*
X157581476Y-91227152D02*
X157629095Y-91036676D01*
X157629095Y-91036676D02*
X157724333Y-90941438D01*
X157724333Y-90941438D02*
X157819571Y-90893819D01*
X157819571Y-90893819D02*
X158010047Y-90893819D01*
X158010047Y-90893819D02*
X158105285Y-90941438D01*
X158105285Y-90941438D02*
X158200523Y-91036676D01*
X158200523Y-91036676D02*
X158248142Y-91227152D01*
X158248142Y-91227152D02*
X158248142Y-91560485D01*
X158248142Y-91560485D02*
X158200523Y-91750961D01*
X158200523Y-91750961D02*
X158105285Y-91846200D01*
X158105285Y-91846200D02*
X158010047Y-91893819D01*
X158010047Y-91893819D02*
X157819571Y-91893819D01*
X158581476Y-90893819D02*
X159200523Y-90893819D01*
X159200523Y-90893819D02*
X158867190Y-91274771D01*
X158867190Y-91274771D02*
X159010047Y-91274771D01*
X159010047Y-91274771D02*
X159105285Y-91322390D01*
X159105285Y-91322390D02*
X159152904Y-91370009D01*
X159152904Y-91370009D02*
X159200523Y-91465247D01*
X159200523Y-91465247D02*
X159200523Y-91703342D01*
X159200523Y-91703342D02*
X159152904Y-91798580D01*
X159152904Y-91798580D02*
X159105285Y-91846200D01*
X159105285Y-91846200D02*
X159010047Y-91893819D01*
X159010047Y-91893819D02*
X158724333Y-91893819D01*
X158724333Y-91893819D02*
X158629095Y-91846200D01*
X158629095Y-91846200D02*
X158581476Y-91798580D01*
X158295761Y-85879057D02*
X158200523Y-85831438D01*
X158200523Y-85831438D02*
X158105285Y-85736200D01*
X158105285Y-85736200D02*
X157962428Y-85593342D01*
X157962428Y-85593342D02*
X157867190Y-85545723D01*
X157867190Y-85545723D02*
X157771952Y-85545723D01*
X157819571Y-85783819D02*
X157724333Y-85736200D01*
X157724333Y-85736200D02*
X157629095Y-85640961D01*
X157629095Y-85640961D02*
X157581476Y-85450485D01*
X157581476Y-85450485D02*
X157581476Y-85117152D01*
X157581476Y-85117152D02*
X157629095Y-84926676D01*
X157629095Y-84926676D02*
X157724333Y-84831438D01*
X157724333Y-84831438D02*
X157819571Y-84783819D01*
X157819571Y-84783819D02*
X158010047Y-84783819D01*
X158010047Y-84783819D02*
X158105285Y-84831438D01*
X158105285Y-84831438D02*
X158200523Y-84926676D01*
X158200523Y-84926676D02*
X158248142Y-85117152D01*
X158248142Y-85117152D02*
X158248142Y-85450485D01*
X158248142Y-85450485D02*
X158200523Y-85640961D01*
X158200523Y-85640961D02*
X158105285Y-85736200D01*
X158105285Y-85736200D02*
X158010047Y-85783819D01*
X158010047Y-85783819D02*
X157819571Y-85783819D01*
X158629095Y-84879057D02*
X158676714Y-84831438D01*
X158676714Y-84831438D02*
X158771952Y-84783819D01*
X158771952Y-84783819D02*
X159010047Y-84783819D01*
X159010047Y-84783819D02*
X159105285Y-84831438D01*
X159105285Y-84831438D02*
X159152904Y-84879057D01*
X159152904Y-84879057D02*
X159200523Y-84974295D01*
X159200523Y-84974295D02*
X159200523Y-85069533D01*
X159200523Y-85069533D02*
X159152904Y-85212390D01*
X159152904Y-85212390D02*
X158581476Y-85783819D01*
X158581476Y-85783819D02*
X159200523Y-85783819D01*
X158295761Y-79769057D02*
X158200523Y-79721438D01*
X158200523Y-79721438D02*
X158105285Y-79626200D01*
X158105285Y-79626200D02*
X157962428Y-79483342D01*
X157962428Y-79483342D02*
X157867190Y-79435723D01*
X157867190Y-79435723D02*
X157771952Y-79435723D01*
X157819571Y-79673819D02*
X157724333Y-79626200D01*
X157724333Y-79626200D02*
X157629095Y-79530961D01*
X157629095Y-79530961D02*
X157581476Y-79340485D01*
X157581476Y-79340485D02*
X157581476Y-79007152D01*
X157581476Y-79007152D02*
X157629095Y-78816676D01*
X157629095Y-78816676D02*
X157724333Y-78721438D01*
X157724333Y-78721438D02*
X157819571Y-78673819D01*
X157819571Y-78673819D02*
X158010047Y-78673819D01*
X158010047Y-78673819D02*
X158105285Y-78721438D01*
X158105285Y-78721438D02*
X158200523Y-78816676D01*
X158200523Y-78816676D02*
X158248142Y-79007152D01*
X158248142Y-79007152D02*
X158248142Y-79340485D01*
X158248142Y-79340485D02*
X158200523Y-79530961D01*
X158200523Y-79530961D02*
X158105285Y-79626200D01*
X158105285Y-79626200D02*
X158010047Y-79673819D01*
X158010047Y-79673819D02*
X157819571Y-79673819D01*
X159200523Y-79673819D02*
X158629095Y-79673819D01*
X158914809Y-79673819D02*
X158914809Y-78673819D01*
X158914809Y-78673819D02*
X158819571Y-78816676D01*
X158819571Y-78816676D02*
X158724333Y-78911914D01*
X158724333Y-78911914D02*
X158629095Y-78959533D01*
X169112905Y-100623819D02*
X169112905Y-99623819D01*
X169112905Y-99623819D02*
X169351000Y-99623819D01*
X169351000Y-99623819D02*
X169493857Y-99671438D01*
X169493857Y-99671438D02*
X169589095Y-99766676D01*
X169589095Y-99766676D02*
X169636714Y-99861914D01*
X169636714Y-99861914D02*
X169684333Y-100052390D01*
X169684333Y-100052390D02*
X169684333Y-100195247D01*
X169684333Y-100195247D02*
X169636714Y-100385723D01*
X169636714Y-100385723D02*
X169589095Y-100480961D01*
X169589095Y-100480961D02*
X169493857Y-100576200D01*
X169493857Y-100576200D02*
X169351000Y-100623819D01*
X169351000Y-100623819D02*
X169112905Y-100623819D01*
X170017667Y-99623819D02*
X170636714Y-99623819D01*
X170636714Y-99623819D02*
X170303381Y-100004771D01*
X170303381Y-100004771D02*
X170446238Y-100004771D01*
X170446238Y-100004771D02*
X170541476Y-100052390D01*
X170541476Y-100052390D02*
X170589095Y-100100009D01*
X170589095Y-100100009D02*
X170636714Y-100195247D01*
X170636714Y-100195247D02*
X170636714Y-100433342D01*
X170636714Y-100433342D02*
X170589095Y-100528580D01*
X170589095Y-100528580D02*
X170541476Y-100576200D01*
X170541476Y-100576200D02*
X170446238Y-100623819D01*
X170446238Y-100623819D02*
X170160524Y-100623819D01*
X170160524Y-100623819D02*
X170065286Y-100576200D01*
X170065286Y-100576200D02*
X170017667Y-100528580D01*
X168612905Y-90623819D02*
X168612905Y-89623819D01*
X168612905Y-89623819D02*
X168851000Y-89623819D01*
X168851000Y-89623819D02*
X168993857Y-89671438D01*
X168993857Y-89671438D02*
X169089095Y-89766676D01*
X169089095Y-89766676D02*
X169136714Y-89861914D01*
X169136714Y-89861914D02*
X169184333Y-90052390D01*
X169184333Y-90052390D02*
X169184333Y-90195247D01*
X169184333Y-90195247D02*
X169136714Y-90385723D01*
X169136714Y-90385723D02*
X169089095Y-90480961D01*
X169089095Y-90480961D02*
X168993857Y-90576200D01*
X168993857Y-90576200D02*
X168851000Y-90623819D01*
X168851000Y-90623819D02*
X168612905Y-90623819D01*
X169565286Y-89719057D02*
X169612905Y-89671438D01*
X169612905Y-89671438D02*
X169708143Y-89623819D01*
X169708143Y-89623819D02*
X169946238Y-89623819D01*
X169946238Y-89623819D02*
X170041476Y-89671438D01*
X170041476Y-89671438D02*
X170089095Y-89719057D01*
X170089095Y-89719057D02*
X170136714Y-89814295D01*
X170136714Y-89814295D02*
X170136714Y-89909533D01*
X170136714Y-89909533D02*
X170089095Y-90052390D01*
X170089095Y-90052390D02*
X169517667Y-90623819D01*
X169517667Y-90623819D02*
X170136714Y-90623819D01*
X168612905Y-79123819D02*
X168612905Y-78123819D01*
X168612905Y-78123819D02*
X168851000Y-78123819D01*
X168851000Y-78123819D02*
X168993857Y-78171438D01*
X168993857Y-78171438D02*
X169089095Y-78266676D01*
X169089095Y-78266676D02*
X169136714Y-78361914D01*
X169136714Y-78361914D02*
X169184333Y-78552390D01*
X169184333Y-78552390D02*
X169184333Y-78695247D01*
X169184333Y-78695247D02*
X169136714Y-78885723D01*
X169136714Y-78885723D02*
X169089095Y-78980961D01*
X169089095Y-78980961D02*
X168993857Y-79076200D01*
X168993857Y-79076200D02*
X168851000Y-79123819D01*
X168851000Y-79123819D02*
X168612905Y-79123819D01*
X170136714Y-79123819D02*
X169565286Y-79123819D01*
X169851000Y-79123819D02*
X169851000Y-78123819D01*
X169851000Y-78123819D02*
X169755762Y-78266676D01*
X169755762Y-78266676D02*
X169660524Y-78361914D01*
X169660524Y-78361914D02*
X169565286Y-78409533D01*
X147335285Y-52060009D02*
X147478142Y-52107628D01*
X147478142Y-52107628D02*
X147525761Y-52155247D01*
X147525761Y-52155247D02*
X147573380Y-52250485D01*
X147573380Y-52250485D02*
X147573380Y-52393342D01*
X147573380Y-52393342D02*
X147525761Y-52488580D01*
X147525761Y-52488580D02*
X147478142Y-52536200D01*
X147478142Y-52536200D02*
X147382904Y-52583819D01*
X147382904Y-52583819D02*
X147001952Y-52583819D01*
X147001952Y-52583819D02*
X147001952Y-51583819D01*
X147001952Y-51583819D02*
X147335285Y-51583819D01*
X147335285Y-51583819D02*
X147430523Y-51631438D01*
X147430523Y-51631438D02*
X147478142Y-51679057D01*
X147478142Y-51679057D02*
X147525761Y-51774295D01*
X147525761Y-51774295D02*
X147525761Y-51869533D01*
X147525761Y-51869533D02*
X147478142Y-51964771D01*
X147478142Y-51964771D02*
X147430523Y-52012390D01*
X147430523Y-52012390D02*
X147335285Y-52060009D01*
X147335285Y-52060009D02*
X147001952Y-52060009D01*
X147859095Y-51583819D02*
X148430523Y-51583819D01*
X148144809Y-52583819D02*
X148144809Y-51583819D01*
X149287666Y-52583819D02*
X148716238Y-52583819D01*
X149001952Y-52583819D02*
X149001952Y-51583819D01*
X149001952Y-51583819D02*
X148906714Y-51726676D01*
X148906714Y-51726676D02*
X148811476Y-51821914D01*
X148811476Y-51821914D02*
X148716238Y-51869533D01*
D12*
X178178572Y-109749757D02*
X178035715Y-109678328D01*
X178035715Y-109678328D02*
X177821429Y-109678328D01*
X177821429Y-109678328D02*
X177607143Y-109749757D01*
X177607143Y-109749757D02*
X177464286Y-109892614D01*
X177464286Y-109892614D02*
X177392857Y-110035471D01*
X177392857Y-110035471D02*
X177321429Y-110321185D01*
X177321429Y-110321185D02*
X177321429Y-110535471D01*
X177321429Y-110535471D02*
X177392857Y-110821185D01*
X177392857Y-110821185D02*
X177464286Y-110964042D01*
X177464286Y-110964042D02*
X177607143Y-111106900D01*
X177607143Y-111106900D02*
X177821429Y-111178328D01*
X177821429Y-111178328D02*
X177964286Y-111178328D01*
X177964286Y-111178328D02*
X178178572Y-111106900D01*
X178178572Y-111106900D02*
X178250000Y-111035471D01*
X178250000Y-111035471D02*
X178250000Y-110535471D01*
X178250000Y-110535471D02*
X177964286Y-110535471D01*
X179107143Y-109678328D02*
X179107143Y-110035471D01*
X178750000Y-109892614D02*
X179107143Y-110035471D01*
X179107143Y-110035471D02*
X179464286Y-109892614D01*
X178892857Y-110321185D02*
X179107143Y-110035471D01*
X179107143Y-110035471D02*
X179321429Y-110321185D01*
X180250000Y-109678328D02*
X180250000Y-110035471D01*
X179892857Y-109892614D02*
X180250000Y-110035471D01*
X180250000Y-110035471D02*
X180607143Y-109892614D01*
X180035714Y-110321185D02*
X180250000Y-110035471D01*
X180250000Y-110035471D02*
X180464286Y-110321185D01*
X181392857Y-109678328D02*
X181392857Y-110035471D01*
X181035714Y-109892614D02*
X181392857Y-110035471D01*
X181392857Y-110035471D02*
X181750000Y-109892614D01*
X181178571Y-110321185D02*
X181392857Y-110035471D01*
X181392857Y-110035471D02*
X181607143Y-110321185D01*
D13*
G04 #@! TO.C,SW1*
X130871000Y-82129000D02*
X130871000Y-83629000D01*
X132121000Y-86129000D02*
X136621000Y-86129000D01*
X136621000Y-79629000D02*
X132121000Y-79629000D01*
X137871000Y-83629000D02*
X137871000Y-82129000D01*
G04 #@! TO.C,SW2*
X121871000Y-93129000D02*
X121871000Y-94629000D01*
X123121000Y-97129000D02*
X127621000Y-97129000D01*
X127621000Y-90629000D02*
X123121000Y-90629000D01*
X128871000Y-94629000D02*
X128871000Y-93129000D01*
G04 #@! TO.C,R2*
X145121000Y-83379000D02*
X151661000Y-83379000D01*
X145121000Y-83709000D02*
X145121000Y-83379000D01*
X145121000Y-85789000D02*
X145121000Y-86119000D01*
X145121000Y-86119000D02*
X151661000Y-86119000D01*
X151661000Y-83379000D02*
X151661000Y-83709000D01*
X151661000Y-86119000D02*
X151661000Y-85789000D01*
G04 #@! TO.C,R3*
X145121000Y-87429000D02*
X151661000Y-87429000D01*
X145121000Y-87759000D02*
X145121000Y-87429000D01*
X145121000Y-89839000D02*
X145121000Y-90169000D01*
X145121000Y-90169000D02*
X151661000Y-90169000D01*
X151661000Y-87429000D02*
X151661000Y-87759000D01*
X151661000Y-90169000D02*
X151661000Y-89839000D01*
G04 #@! TO.C,R5*
X145121000Y-95529000D02*
X151661000Y-95529000D01*
X145121000Y-95859000D02*
X145121000Y-95529000D01*
X145121000Y-97939000D02*
X145121000Y-98269000D01*
X145121000Y-98269000D02*
X151661000Y-98269000D01*
X151661000Y-95529000D02*
X151661000Y-95859000D01*
X151661000Y-98269000D02*
X151661000Y-97939000D01*
G04 #@! TO.C,R6*
X145121000Y-99579000D02*
X151661000Y-99579000D01*
X145121000Y-99909000D02*
X145121000Y-99579000D01*
X145121000Y-101989000D02*
X145121000Y-102319000D01*
X145121000Y-102319000D02*
X151661000Y-102319000D01*
X151661000Y-99579000D02*
X151661000Y-99909000D01*
X151661000Y-102319000D02*
X151661000Y-101989000D01*
G04 #@! TO.C,R8*
X145121000Y-107679000D02*
X151661000Y-107679000D01*
X145121000Y-108009000D02*
X145121000Y-107679000D01*
X145121000Y-110089000D02*
X145121000Y-110419000D01*
X145121000Y-110419000D02*
X151661000Y-110419000D01*
X151661000Y-107679000D02*
X151661000Y-108009000D01*
X151661000Y-110419000D02*
X151661000Y-110089000D01*
G04 #@! TO.C,R7*
X145121000Y-103629000D02*
X151661000Y-103629000D01*
X145121000Y-103959000D02*
X145121000Y-103629000D01*
X145121000Y-106039000D02*
X145121000Y-106369000D01*
X145121000Y-106369000D02*
X151661000Y-106369000D01*
X151661000Y-103629000D02*
X151661000Y-103959000D01*
X151661000Y-106369000D02*
X151661000Y-106039000D01*
G04 #@! TO.C,R4*
X145121000Y-91479000D02*
X151661000Y-91479000D01*
X145121000Y-91809000D02*
X145121000Y-91479000D01*
X145121000Y-93889000D02*
X145121000Y-94219000D01*
X145121000Y-94219000D02*
X151661000Y-94219000D01*
X151661000Y-91479000D02*
X151661000Y-91809000D01*
X151661000Y-94219000D02*
X151661000Y-93889000D01*
G04 #@! TO.C,SW5*
X138871000Y-105629000D02*
X138871000Y-104129000D01*
X137621000Y-101629000D02*
X133121000Y-101629000D01*
X133121000Y-108129000D02*
X137621000Y-108129000D01*
X131871000Y-104129000D02*
X131871000Y-105629000D01*
G04 #@! TO.C,SW4*
X127371000Y-105629000D02*
X127371000Y-104129000D01*
X126121000Y-101629000D02*
X121621000Y-101629000D01*
X121621000Y-108129000D02*
X126121000Y-108129000D01*
X120371000Y-104129000D02*
X120371000Y-105629000D01*
G04 #@! TO.C,SW3*
X140371000Y-94629000D02*
X140371000Y-93129000D01*
X139121000Y-90629000D02*
X134621000Y-90629000D01*
X134621000Y-97129000D02*
X139121000Y-97129000D01*
X133371000Y-93129000D02*
X133371000Y-94629000D01*
G04 #@! TO.C,R1*
X151661000Y-82069000D02*
X151661000Y-81739000D01*
X151661000Y-79329000D02*
X151661000Y-79659000D01*
X145121000Y-82069000D02*
X151661000Y-82069000D01*
X145121000Y-81739000D02*
X145121000Y-82069000D01*
X145121000Y-79659000D02*
X145121000Y-79329000D01*
X145121000Y-79329000D02*
X151661000Y-79329000D01*
G04 #@! TO.C,Q5*
X159171000Y-105009000D02*
G75*
G02*
X160199445Y-109286684I-780000J-2450000D01*
G01*
X156579547Y-109301156D02*
G75*
G02*
X157571000Y-105009000I1811453J1842156D01*
G01*
X156591000Y-109309000D02*
X160191000Y-109309000D01*
G04 #@! TO.C,Q4*
X159171000Y-98899000D02*
G75*
G02*
X160199445Y-103176684I-780000J-2450000D01*
G01*
X156579547Y-103191156D02*
G75*
G02*
X157571000Y-98899000I1811453J1842156D01*
G01*
X156591000Y-103199000D02*
X160191000Y-103199000D01*
G04 #@! TO.C,Q3*
X159171000Y-92789000D02*
G75*
G02*
X160199445Y-97066684I-780000J-2450000D01*
G01*
X156579547Y-97081156D02*
G75*
G02*
X157571000Y-92789000I1811453J1842156D01*
G01*
X156591000Y-97089000D02*
X160191000Y-97089000D01*
G04 #@! TO.C,Q2*
X159171000Y-86679000D02*
G75*
G02*
X160199445Y-90956684I-780000J-2450000D01*
G01*
X156579547Y-90971156D02*
G75*
G02*
X157571000Y-86679000I1811453J1842156D01*
G01*
X156591000Y-90979000D02*
X160191000Y-90979000D01*
G04 #@! TO.C,Q1*
X159171000Y-80569000D02*
G75*
G02*
X160199445Y-84846684I-780000J-2450000D01*
G01*
X156579547Y-84861156D02*
G75*
G02*
X157571000Y-80569000I1811453J1842156D01*
G01*
X156591000Y-84869000D02*
X160191000Y-84869000D01*
G04 #@! TO.C,D3*
X172351000Y-104129000D02*
G75*
G02*
X167351000Y-104129000I-2500000J0D01*
G01*
X167351000Y-104129000D02*
G75*
G02*
X172351000Y-104129000I2500000J0D01*
G01*
X172841000Y-104129048D02*
G75*
G02*
X167291000Y-105673830I-2990000J48D01*
G01*
X167291000Y-102584170D02*
G75*
G02*
X172841000Y-104128952I2560000J-1544830D01*
G01*
X167291000Y-102584000D02*
X167291000Y-105674000D01*
G04 #@! TO.C,D2*
X171851000Y-94129000D02*
G75*
G02*
X166851000Y-94129000I-2500000J0D01*
G01*
X166851000Y-94129000D02*
G75*
G02*
X171851000Y-94129000I2500000J0D01*
G01*
X172341000Y-94129048D02*
G75*
G02*
X166791000Y-95673830I-2990000J48D01*
G01*
X166791000Y-92584170D02*
G75*
G02*
X172341000Y-94128952I2560000J-1544830D01*
G01*
X166791000Y-92584000D02*
X166791000Y-95674000D01*
G04 #@! TO.C,D1*
X171851000Y-82629000D02*
G75*
G02*
X166851000Y-82629000I-2500000J0D01*
G01*
X166851000Y-82629000D02*
G75*
G02*
X171851000Y-82629000I2500000J0D01*
G01*
X172341000Y-82629048D02*
G75*
G02*
X166791000Y-84173830I-2990000J48D01*
G01*
X166791000Y-81084170D02*
G75*
G02*
X172341000Y-82628952I2560000J-1544830D01*
G01*
X166791000Y-81084000D02*
X166791000Y-84174000D01*
G04 #@! TO.C,BT1*
X157446243Y-71217169D02*
G75*
G02*
X154121000Y-72179000I-2015243J738169D01*
G01*
X142117646Y-72195530D02*
G75*
G02*
X138781000Y-71209000I-1306646J1716531D01*
G01*
X158901000Y-67259000D02*
X157461000Y-71209000D01*
X158901000Y-66629000D02*
X158901000Y-67259000D01*
X158901000Y-58169000D02*
X158901000Y-60629000D01*
X156821000Y-56089000D02*
X158901000Y-58169000D01*
X156821000Y-56089000D02*
X153321000Y-56089000D01*
X142921000Y-56089000D02*
X139421000Y-56089000D01*
X139421000Y-56089000D02*
X137341000Y-58169000D01*
X137341000Y-67259000D02*
X138781000Y-71209000D01*
X137341000Y-66629000D02*
X137341000Y-67259000D01*
X137341000Y-58169000D02*
X137341000Y-60629000D01*
D14*
G04 #@! TO.C,G\u002A\u002A\u002A*
G36*
X114970132Y-126135422D02*
G01*
X115210996Y-126138434D01*
X115432668Y-126143034D01*
X115627305Y-126149223D01*
X115787064Y-126157002D01*
X115811033Y-126158539D01*
X116278257Y-126197614D01*
X116705040Y-126250205D01*
X117093335Y-126317559D01*
X117445098Y-126400920D01*
X117762282Y-126501534D01*
X118046841Y-126620647D01*
X118300729Y-126759502D01*
X118525900Y-126919347D01*
X118724309Y-127101426D01*
X118897909Y-127306984D01*
X119048654Y-127537267D01*
X119178499Y-127793520D01*
X119289398Y-128076988D01*
X119383305Y-128388917D01*
X119397551Y-128444198D01*
X119460192Y-128720464D01*
X119512844Y-129014159D01*
X119555788Y-129328867D01*
X119589302Y-129668172D01*
X119613666Y-130035658D01*
X119629159Y-130434911D01*
X119636060Y-130869513D01*
X119634648Y-131343049D01*
X119633036Y-131467483D01*
X119623920Y-131883838D01*
X119609160Y-132260835D01*
X119588223Y-132602954D01*
X119560575Y-132914675D01*
X119525683Y-133200478D01*
X119483014Y-133464844D01*
X119432034Y-133712253D01*
X119372209Y-133947185D01*
X119315330Y-134136304D01*
X119211308Y-134422358D01*
X119090774Y-134681489D01*
X118951550Y-134915026D01*
X118791456Y-135124295D01*
X118608313Y-135310626D01*
X118399939Y-135475346D01*
X118164157Y-135619782D01*
X117898786Y-135745263D01*
X117601647Y-135853117D01*
X117270559Y-135944672D01*
X116903343Y-136021255D01*
X116497820Y-136084194D01*
X116051810Y-136134818D01*
X116031711Y-136136737D01*
X115944929Y-136142730D01*
X115820017Y-136148222D01*
X115662980Y-136153167D01*
X115479821Y-136157518D01*
X115276543Y-136161230D01*
X115059151Y-136164257D01*
X114833648Y-136166553D01*
X114606038Y-136168072D01*
X114382324Y-136168769D01*
X114168511Y-136168597D01*
X113970602Y-136167510D01*
X113794600Y-136165464D01*
X113646510Y-136162411D01*
X113532335Y-136158307D01*
X113493918Y-136156124D01*
X113031453Y-136118004D01*
X112609557Y-136067845D01*
X112226131Y-136004887D01*
X111879073Y-135928370D01*
X111566284Y-135837533D01*
X111285661Y-135731617D01*
X111035106Y-135609862D01*
X110812518Y-135471507D01*
X110615795Y-135315793D01*
X110442839Y-135141959D01*
X110338857Y-135014511D01*
X110206292Y-134820975D01*
X110088167Y-134610202D01*
X109983935Y-134379613D01*
X109893046Y-134126634D01*
X109848511Y-133968126D01*
X111429244Y-133968126D01*
X111445532Y-134078692D01*
X111500686Y-134182203D01*
X111544352Y-134230145D01*
X111600336Y-134272881D01*
X111651270Y-134300593D01*
X111682570Y-134304140D01*
X111757576Y-134307317D01*
X111875862Y-134310122D01*
X112036999Y-134312551D01*
X112240562Y-134314603D01*
X112486121Y-134316275D01*
X112773251Y-134317565D01*
X113101524Y-134318469D01*
X113470512Y-134318985D01*
X113879789Y-134319111D01*
X114328926Y-134318843D01*
X114634310Y-134318469D01*
X117562191Y-134314224D01*
X117624492Y-134268060D01*
X117717819Y-134175566D01*
X117771914Y-134070234D01*
X117786932Y-133959102D01*
X117763029Y-133849209D01*
X117700359Y-133747594D01*
X117611285Y-133669267D01*
X117536826Y-133619090D01*
X114608340Y-133619090D01*
X111679854Y-133619090D01*
X111605395Y-133669267D01*
X111509994Y-133755897D01*
X111451004Y-133858022D01*
X111429244Y-133968126D01*
X109848511Y-133968126D01*
X109814953Y-133848690D01*
X109749107Y-133543202D01*
X109694959Y-133207597D01*
X109651961Y-132839298D01*
X109619565Y-132435729D01*
X109597223Y-131994313D01*
X109588233Y-131656885D01*
X112489834Y-131656885D01*
X112490243Y-131983766D01*
X112491472Y-132266578D01*
X112493520Y-132505383D01*
X112496389Y-132700242D01*
X112500080Y-132851213D01*
X112504595Y-132958359D01*
X112509934Y-133021738D01*
X112513372Y-133038374D01*
X112571709Y-133136067D01*
X112659342Y-133213907D01*
X112699478Y-133236075D01*
X112782054Y-133256738D01*
X112880103Y-133256679D01*
X112973851Y-133237602D01*
X113036292Y-133207037D01*
X113092431Y-133156663D01*
X113139470Y-133103046D01*
X113148825Y-133089545D01*
X113156821Y-133073758D01*
X113163583Y-133052278D01*
X113169233Y-133021700D01*
X113173898Y-132978620D01*
X113177699Y-132919632D01*
X113180763Y-132841331D01*
X113183213Y-132740311D01*
X113185173Y-132613166D01*
X113186767Y-132456492D01*
X113188119Y-132266884D01*
X113189355Y-132040935D01*
X113190597Y-131775241D01*
X113190975Y-131690545D01*
X113191125Y-131656885D01*
X114255256Y-131656885D01*
X114255665Y-131983766D01*
X114256893Y-132266578D01*
X114258941Y-132505383D01*
X114261810Y-132700242D01*
X114265502Y-132851213D01*
X114270016Y-132958359D01*
X114275355Y-133021738D01*
X114278793Y-133038374D01*
X114337130Y-133136067D01*
X114424764Y-133213907D01*
X114464899Y-133236075D01*
X114547475Y-133256738D01*
X114645524Y-133256679D01*
X114739272Y-133237602D01*
X114801713Y-133207037D01*
X114857853Y-133156663D01*
X114904891Y-133103046D01*
X114914246Y-133089545D01*
X114922243Y-133073758D01*
X114929004Y-133052278D01*
X114934655Y-133021700D01*
X114939319Y-132978620D01*
X114943121Y-132919632D01*
X114946184Y-132841331D01*
X114948634Y-132740311D01*
X114950594Y-132613166D01*
X114952188Y-132456492D01*
X114953541Y-132266884D01*
X114954776Y-132040935D01*
X114956018Y-131775241D01*
X114956396Y-131690545D01*
X114956546Y-131656885D01*
X116020677Y-131656885D01*
X116021086Y-131983766D01*
X116022314Y-132266578D01*
X116024363Y-132505383D01*
X116027232Y-132700242D01*
X116030923Y-132851213D01*
X116035438Y-132958359D01*
X116040776Y-133021738D01*
X116044215Y-133038374D01*
X116102552Y-133136067D01*
X116190185Y-133213907D01*
X116230321Y-133236075D01*
X116312896Y-133256738D01*
X116410945Y-133256679D01*
X116504694Y-133237602D01*
X116567135Y-133207037D01*
X116623274Y-133156663D01*
X116670313Y-133103046D01*
X116679668Y-133089545D01*
X116687664Y-133073758D01*
X116694425Y-133052278D01*
X116700076Y-133021700D01*
X116704740Y-132978620D01*
X116708542Y-132919632D01*
X116711606Y-132841331D01*
X116714055Y-132740311D01*
X116716015Y-132613166D01*
X116717609Y-132456492D01*
X116718962Y-132266884D01*
X116720197Y-132040935D01*
X116721440Y-131775241D01*
X116721818Y-131690545D01*
X116727824Y-130338971D01*
X116677157Y-130263787D01*
X116588954Y-130166282D01*
X116486453Y-130107328D01*
X116376723Y-130086935D01*
X116266835Y-130105110D01*
X116163859Y-130161862D01*
X116074865Y-130257200D01*
X116070855Y-130263061D01*
X116020677Y-130337519D01*
X116020677Y-131656885D01*
X114956546Y-131656885D01*
X114962402Y-130338971D01*
X114961424Y-130337519D01*
X114911736Y-130263787D01*
X114823533Y-130166282D01*
X114721032Y-130107328D01*
X114611302Y-130086935D01*
X114501414Y-130105110D01*
X114398438Y-130161862D01*
X114309444Y-130257200D01*
X114305433Y-130263061D01*
X114255256Y-130337519D01*
X114255256Y-131656885D01*
X113191125Y-131656885D01*
X113196981Y-130338971D01*
X113196002Y-130337519D01*
X113146314Y-130263787D01*
X113058112Y-130166282D01*
X112955610Y-130107328D01*
X112845880Y-130086935D01*
X112735992Y-130105110D01*
X112633016Y-130161862D01*
X112544022Y-130257200D01*
X112540012Y-130263061D01*
X112489834Y-130337519D01*
X112489834Y-131656885D01*
X109588233Y-131656885D01*
X109584385Y-131512476D01*
X109583683Y-131467483D01*
X109581296Y-130913802D01*
X109591253Y-130400992D01*
X109605071Y-130110990D01*
X111078979Y-130110990D01*
X111095801Y-130208236D01*
X111108502Y-130238300D01*
X111180696Y-130335326D01*
X111276107Y-130403171D01*
X111385109Y-130437822D01*
X111498077Y-130435263D01*
X111546916Y-130421179D01*
X111579185Y-130402293D01*
X111640573Y-130360402D01*
X111672504Y-130337519D01*
X111725379Y-130299627D01*
X111827904Y-130224087D01*
X111942448Y-130137901D01*
X112006258Y-130089179D01*
X112293597Y-129869321D01*
X112550320Y-129674395D01*
X112780204Y-129501669D01*
X112987021Y-129348411D01*
X113174548Y-129211888D01*
X113346560Y-129089368D01*
X113506830Y-128978120D01*
X113659133Y-128875411D01*
X113807245Y-128778510D01*
X113891843Y-128724445D01*
X114041951Y-128631640D01*
X114186085Y-128546913D01*
X114318642Y-128473220D01*
X114434022Y-128413519D01*
X114526622Y-128370769D01*
X114590841Y-128347926D01*
X114610683Y-128344893D01*
X114660010Y-128357252D01*
X114741046Y-128392609D01*
X114849535Y-128448381D01*
X114981218Y-128521989D01*
X115131838Y-128610852D01*
X115297136Y-128712387D01*
X115472855Y-128824015D01*
X115654736Y-128943154D01*
X115838523Y-129067223D01*
X116019956Y-129193642D01*
X116071887Y-129230634D01*
X116186428Y-129313797D01*
X116324847Y-129416097D01*
X116476304Y-129529417D01*
X116629965Y-129645638D01*
X116774990Y-129756642D01*
X116804083Y-129779109D01*
X117002432Y-129932511D01*
X117169224Y-130061023D01*
X117307833Y-130166728D01*
X117421637Y-130251708D01*
X117514013Y-130318045D01*
X117588337Y-130367822D01*
X117647987Y-130403120D01*
X117696338Y-130426022D01*
X117736768Y-130438610D01*
X117772653Y-130442967D01*
X117807371Y-130441174D01*
X117844297Y-130435313D01*
X117862686Y-130431875D01*
X117952315Y-130396607D01*
X118037570Y-130331775D01*
X118101962Y-130250254D01*
X118106874Y-130241189D01*
X118134306Y-130148430D01*
X118135118Y-130042751D01*
X118110002Y-129945343D01*
X118096343Y-129918955D01*
X118054518Y-129867793D01*
X117979491Y-129794871D01*
X117874848Y-129702816D01*
X117744174Y-129594253D01*
X117591055Y-129471809D01*
X117419075Y-129338109D01*
X117231821Y-129195779D01*
X117032878Y-129047446D01*
X116825831Y-128895734D01*
X116614266Y-128743271D01*
X116401768Y-128592681D01*
X116191923Y-128446591D01*
X115988317Y-128307626D01*
X115794534Y-128178413D01*
X115614160Y-128061578D01*
X115450781Y-127959746D01*
X115307982Y-127875543D01*
X115300231Y-127871157D01*
X115108107Y-127768171D01*
X114942740Y-127692902D01*
X114797529Y-127644175D01*
X114665868Y-127620809D01*
X114541155Y-127621627D01*
X114416787Y-127645452D01*
X114287582Y-127690519D01*
X114117770Y-127768657D01*
X113917035Y-127875670D01*
X113686966Y-128010585D01*
X113429149Y-128172425D01*
X113145174Y-128360216D01*
X112836626Y-128572984D01*
X112743614Y-128638626D01*
X112528819Y-128792500D01*
X112317361Y-128946924D01*
X112112584Y-129099260D01*
X111917836Y-129246866D01*
X111736463Y-129387101D01*
X111571813Y-129517326D01*
X111427232Y-129634898D01*
X111306067Y-129737179D01*
X111211664Y-129821526D01*
X111147371Y-129885301D01*
X111119817Y-129919810D01*
X111087240Y-130007668D01*
X111078979Y-130110990D01*
X109605071Y-130110990D01*
X109613815Y-129927474D01*
X109649241Y-129491670D01*
X109697793Y-129092001D01*
X109759730Y-128726889D01*
X109835312Y-128394755D01*
X109924799Y-128094022D01*
X110028452Y-127823110D01*
X110146531Y-127580441D01*
X110253629Y-127402438D01*
X110349315Y-127274508D01*
X110470477Y-127137428D01*
X110604387Y-127004145D01*
X110738316Y-126887610D01*
X110819069Y-126827171D01*
X111041162Y-126690702D01*
X111288933Y-126570506D01*
X111564819Y-126465954D01*
X111871254Y-126376418D01*
X112210676Y-126301267D01*
X112585518Y-126239871D01*
X112998217Y-126191603D01*
X113405647Y-126158758D01*
X113561212Y-126150670D01*
X113752495Y-126144166D01*
X113971651Y-126139246D01*
X114210837Y-126135911D01*
X114462209Y-126134161D01*
X114717922Y-126133998D01*
X114970132Y-126135422D01*
G37*
G36*
X184861792Y-120487922D02*
G01*
X185102656Y-120490934D01*
X185324328Y-120495534D01*
X185518965Y-120501723D01*
X185678724Y-120509502D01*
X185702693Y-120511039D01*
X186169917Y-120550114D01*
X186596700Y-120602705D01*
X186984995Y-120670059D01*
X187336758Y-120753420D01*
X187653942Y-120854034D01*
X187938501Y-120973147D01*
X188192389Y-121112002D01*
X188417560Y-121271847D01*
X188615969Y-121453926D01*
X188789569Y-121659484D01*
X188940314Y-121889767D01*
X189070159Y-122146020D01*
X189181058Y-122429488D01*
X189274965Y-122741417D01*
X189289211Y-122796698D01*
X189351852Y-123072964D01*
X189404504Y-123366659D01*
X189447448Y-123681367D01*
X189480962Y-124020672D01*
X189505326Y-124388158D01*
X189520819Y-124787411D01*
X189527720Y-125222013D01*
X189526308Y-125695549D01*
X189524696Y-125819983D01*
X189515580Y-126236338D01*
X189500820Y-126613335D01*
X189479883Y-126955454D01*
X189452235Y-127267175D01*
X189417343Y-127552978D01*
X189374674Y-127817344D01*
X189323694Y-128064753D01*
X189263869Y-128299685D01*
X189206990Y-128488804D01*
X189102968Y-128774858D01*
X188982434Y-129033989D01*
X188843210Y-129267526D01*
X188683116Y-129476795D01*
X188499973Y-129663126D01*
X188291599Y-129827846D01*
X188055817Y-129972282D01*
X187790446Y-130097763D01*
X187493307Y-130205617D01*
X187162219Y-130297172D01*
X186795003Y-130373755D01*
X186389480Y-130436694D01*
X185943470Y-130487318D01*
X185923371Y-130489237D01*
X185836589Y-130495230D01*
X185711677Y-130500722D01*
X185554640Y-130505667D01*
X185371481Y-130510018D01*
X185168203Y-130513730D01*
X184950811Y-130516757D01*
X184725308Y-130519053D01*
X184497698Y-130520572D01*
X184273984Y-130521269D01*
X184060171Y-130521097D01*
X183862262Y-130520010D01*
X183686260Y-130517964D01*
X183538170Y-130514911D01*
X183423995Y-130510807D01*
X183385578Y-130508624D01*
X182923113Y-130470504D01*
X182501217Y-130420345D01*
X182117791Y-130357387D01*
X181770733Y-130280870D01*
X181457944Y-130190033D01*
X181177321Y-130084117D01*
X180926766Y-129962362D01*
X180704178Y-129824007D01*
X180507455Y-129668293D01*
X180334499Y-129494459D01*
X180230517Y-129367011D01*
X180097952Y-129173475D01*
X179979827Y-128962702D01*
X179875595Y-128732113D01*
X179784706Y-128479134D01*
X179740171Y-128320626D01*
X181320904Y-128320626D01*
X181337192Y-128431192D01*
X181392346Y-128534703D01*
X181436012Y-128582645D01*
X181491996Y-128625381D01*
X181542930Y-128653093D01*
X181574230Y-128656640D01*
X181649236Y-128659817D01*
X181767522Y-128662622D01*
X181928659Y-128665051D01*
X182132222Y-128667103D01*
X182377781Y-128668775D01*
X182664911Y-128670065D01*
X182993184Y-128670969D01*
X183362172Y-128671485D01*
X183771449Y-128671611D01*
X184220586Y-128671343D01*
X184525970Y-128670969D01*
X187453851Y-128666724D01*
X187516152Y-128620560D01*
X187609479Y-128528066D01*
X187663574Y-128422734D01*
X187678592Y-128311602D01*
X187654689Y-128201709D01*
X187592019Y-128100094D01*
X187502945Y-128021767D01*
X187428486Y-127971590D01*
X184500000Y-127971590D01*
X181571514Y-127971590D01*
X181497055Y-128021767D01*
X181401654Y-128108397D01*
X181342664Y-128210522D01*
X181320904Y-128320626D01*
X179740171Y-128320626D01*
X179706613Y-128201190D01*
X179640767Y-127895702D01*
X179586619Y-127560097D01*
X179543621Y-127191798D01*
X179511225Y-126788229D01*
X179488883Y-126346813D01*
X179479893Y-126009385D01*
X182381494Y-126009385D01*
X182381903Y-126336266D01*
X182383132Y-126619078D01*
X182385180Y-126857883D01*
X182388049Y-127052742D01*
X182391740Y-127203713D01*
X182396255Y-127310859D01*
X182401594Y-127374238D01*
X182405032Y-127390874D01*
X182463369Y-127488567D01*
X182551002Y-127566407D01*
X182591138Y-127588575D01*
X182673714Y-127609238D01*
X182771763Y-127609179D01*
X182865511Y-127590102D01*
X182927952Y-127559537D01*
X182984091Y-127509163D01*
X183031130Y-127455546D01*
X183040485Y-127442045D01*
X183048481Y-127426258D01*
X183055243Y-127404778D01*
X183060893Y-127374200D01*
X183065558Y-127331120D01*
X183069359Y-127272132D01*
X183072423Y-127193831D01*
X183074873Y-127092811D01*
X183076833Y-126965666D01*
X183078427Y-126808992D01*
X183079779Y-126619384D01*
X183081015Y-126393435D01*
X183082257Y-126127741D01*
X183082635Y-126043045D01*
X183082785Y-126009385D01*
X184146916Y-126009385D01*
X184147325Y-126336266D01*
X184148553Y-126619078D01*
X184150601Y-126857883D01*
X184153470Y-127052742D01*
X184157162Y-127203713D01*
X184161676Y-127310859D01*
X184167015Y-127374238D01*
X184170453Y-127390874D01*
X184228790Y-127488567D01*
X184316424Y-127566407D01*
X184356559Y-127588575D01*
X184439135Y-127609238D01*
X184537184Y-127609179D01*
X184630932Y-127590102D01*
X184693373Y-127559537D01*
X184749513Y-127509163D01*
X184796551Y-127455546D01*
X184805906Y-127442045D01*
X184813903Y-127426258D01*
X184820664Y-127404778D01*
X184826315Y-127374200D01*
X184830979Y-127331120D01*
X184834781Y-127272132D01*
X184837844Y-127193831D01*
X184840294Y-127092811D01*
X184842254Y-126965666D01*
X184843848Y-126808992D01*
X184845201Y-126619384D01*
X184846436Y-126393435D01*
X184847678Y-126127741D01*
X184848056Y-126043045D01*
X184848206Y-126009385D01*
X185912337Y-126009385D01*
X185912746Y-126336266D01*
X185913974Y-126619078D01*
X185916023Y-126857883D01*
X185918892Y-127052742D01*
X185922583Y-127203713D01*
X185927098Y-127310859D01*
X185932436Y-127374238D01*
X185935875Y-127390874D01*
X185994212Y-127488567D01*
X186081845Y-127566407D01*
X186121981Y-127588575D01*
X186204556Y-127609238D01*
X186302605Y-127609179D01*
X186396354Y-127590102D01*
X186458795Y-127559537D01*
X186514934Y-127509163D01*
X186561973Y-127455546D01*
X186571328Y-127442045D01*
X186579324Y-127426258D01*
X186586085Y-127404778D01*
X186591736Y-127374200D01*
X186596400Y-127331120D01*
X186600202Y-127272132D01*
X186603266Y-127193831D01*
X186605715Y-127092811D01*
X186607675Y-126965666D01*
X186609269Y-126808992D01*
X186610622Y-126619384D01*
X186611857Y-126393435D01*
X186613100Y-126127741D01*
X186613478Y-126043045D01*
X186619484Y-124691471D01*
X186568817Y-124616287D01*
X186480614Y-124518782D01*
X186378113Y-124459828D01*
X186268383Y-124439435D01*
X186158495Y-124457610D01*
X186055519Y-124514362D01*
X185966525Y-124609700D01*
X185962515Y-124615561D01*
X185912337Y-124690019D01*
X185912337Y-126009385D01*
X184848206Y-126009385D01*
X184854062Y-124691471D01*
X184853084Y-124690019D01*
X184803396Y-124616287D01*
X184715193Y-124518782D01*
X184612692Y-124459828D01*
X184502962Y-124439435D01*
X184393074Y-124457610D01*
X184290098Y-124514362D01*
X184201104Y-124609700D01*
X184197093Y-124615561D01*
X184146916Y-124690019D01*
X184146916Y-126009385D01*
X183082785Y-126009385D01*
X183088641Y-124691471D01*
X183087662Y-124690019D01*
X183037974Y-124616287D01*
X182949772Y-124518782D01*
X182847270Y-124459828D01*
X182737540Y-124439435D01*
X182627652Y-124457610D01*
X182524676Y-124514362D01*
X182435682Y-124609700D01*
X182431672Y-124615561D01*
X182381494Y-124690019D01*
X182381494Y-126009385D01*
X179479893Y-126009385D01*
X179476045Y-125864976D01*
X179475343Y-125819983D01*
X179472956Y-125266302D01*
X179482913Y-124753492D01*
X179496731Y-124463490D01*
X180970639Y-124463490D01*
X180987461Y-124560736D01*
X181000162Y-124590800D01*
X181072356Y-124687826D01*
X181167767Y-124755671D01*
X181276769Y-124790322D01*
X181389737Y-124787763D01*
X181438576Y-124773679D01*
X181470845Y-124754793D01*
X181532233Y-124712902D01*
X181564164Y-124690019D01*
X181617039Y-124652127D01*
X181719564Y-124576587D01*
X181834108Y-124490401D01*
X181897918Y-124441679D01*
X182185257Y-124221821D01*
X182441980Y-124026895D01*
X182671864Y-123854169D01*
X182878681Y-123700911D01*
X183066208Y-123564388D01*
X183238220Y-123441868D01*
X183398490Y-123330620D01*
X183550793Y-123227911D01*
X183698905Y-123131010D01*
X183783503Y-123076945D01*
X183933611Y-122984140D01*
X184077745Y-122899413D01*
X184210302Y-122825720D01*
X184325682Y-122766019D01*
X184418282Y-122723269D01*
X184482501Y-122700426D01*
X184502343Y-122697393D01*
X184551670Y-122709752D01*
X184632706Y-122745109D01*
X184741195Y-122800881D01*
X184872878Y-122874489D01*
X185023498Y-122963352D01*
X185188796Y-123064887D01*
X185364515Y-123176515D01*
X185546396Y-123295654D01*
X185730183Y-123419723D01*
X185911616Y-123546142D01*
X185963547Y-123583134D01*
X186078088Y-123666297D01*
X186216507Y-123768597D01*
X186367964Y-123881917D01*
X186521625Y-123998138D01*
X186666650Y-124109142D01*
X186695743Y-124131609D01*
X186894092Y-124285011D01*
X187060884Y-124413523D01*
X187199493Y-124519228D01*
X187313297Y-124604208D01*
X187405673Y-124670545D01*
X187479997Y-124720322D01*
X187539647Y-124755620D01*
X187587998Y-124778522D01*
X187628428Y-124791110D01*
X187664313Y-124795467D01*
X187699031Y-124793674D01*
X187735957Y-124787813D01*
X187754346Y-124784375D01*
X187843975Y-124749107D01*
X187929230Y-124684275D01*
X187993622Y-124602754D01*
X187998534Y-124593689D01*
X188025966Y-124500930D01*
X188026778Y-124395251D01*
X188001662Y-124297843D01*
X187988003Y-124271455D01*
X187946178Y-124220293D01*
X187871151Y-124147371D01*
X187766508Y-124055316D01*
X187635834Y-123946753D01*
X187482715Y-123824309D01*
X187310735Y-123690609D01*
X187123481Y-123548279D01*
X186924538Y-123399946D01*
X186717491Y-123248234D01*
X186505926Y-123095771D01*
X186293428Y-122945181D01*
X186083583Y-122799091D01*
X185879977Y-122660126D01*
X185686194Y-122530913D01*
X185505820Y-122414078D01*
X185342441Y-122312246D01*
X185199642Y-122228043D01*
X185191891Y-122223657D01*
X184999767Y-122120671D01*
X184834400Y-122045402D01*
X184689189Y-121996675D01*
X184557528Y-121973309D01*
X184432815Y-121974127D01*
X184308447Y-121997952D01*
X184179242Y-122043019D01*
X184009430Y-122121157D01*
X183808695Y-122228170D01*
X183578626Y-122363085D01*
X183320809Y-122524925D01*
X183036834Y-122712716D01*
X182728286Y-122925484D01*
X182635274Y-122991126D01*
X182420479Y-123145000D01*
X182209021Y-123299424D01*
X182004244Y-123451760D01*
X181809496Y-123599366D01*
X181628123Y-123739601D01*
X181463473Y-123869826D01*
X181318892Y-123987398D01*
X181197727Y-124089679D01*
X181103324Y-124174026D01*
X181039031Y-124237801D01*
X181011477Y-124272310D01*
X180978900Y-124360168D01*
X180970639Y-124463490D01*
X179496731Y-124463490D01*
X179505475Y-124279974D01*
X179540901Y-123844170D01*
X179589453Y-123444501D01*
X179651390Y-123079389D01*
X179726972Y-122747255D01*
X179816459Y-122446522D01*
X179920112Y-122175610D01*
X180038191Y-121932941D01*
X180145289Y-121754938D01*
X180240975Y-121627008D01*
X180362137Y-121489928D01*
X180496047Y-121356645D01*
X180629976Y-121240110D01*
X180710729Y-121179671D01*
X180932822Y-121043202D01*
X181180593Y-120923006D01*
X181456479Y-120818454D01*
X181762914Y-120728918D01*
X182102336Y-120653767D01*
X182477178Y-120592371D01*
X182889877Y-120544103D01*
X183297307Y-120511258D01*
X183452872Y-120503170D01*
X183644155Y-120496666D01*
X183863311Y-120491746D01*
X184102497Y-120488411D01*
X184353869Y-120486661D01*
X184609582Y-120486498D01*
X184861792Y-120487922D01*
G37*
G36*
X115023960Y-115687725D02*
G01*
X115874647Y-115755358D01*
X116753612Y-115890412D01*
X117669937Y-116095213D01*
X118632708Y-116372086D01*
X119651008Y-116723355D01*
X120733922Y-117151346D01*
X121876255Y-117651856D01*
X122260614Y-117821920D01*
X122673872Y-117995315D01*
X123079783Y-118157443D01*
X123442103Y-118293710D01*
X123644977Y-118364116D01*
X124789663Y-118681162D01*
X125975016Y-118893213D01*
X127193997Y-119000989D01*
X128439564Y-119005212D01*
X129704676Y-118906601D01*
X130982294Y-118705878D01*
X132265376Y-118403761D01*
X133546883Y-118000973D01*
X134819772Y-117498232D01*
X135591096Y-117141762D01*
X135906191Y-116986402D01*
X136206714Y-116835548D01*
X136467485Y-116702029D01*
X136663325Y-116598680D01*
X136736359Y-116558124D01*
X136895368Y-116477880D01*
X137014089Y-116438953D01*
X137055309Y-116442990D01*
X137042133Y-116504622D01*
X136981591Y-116653926D01*
X136880569Y-116876066D01*
X136745951Y-117156201D01*
X136584624Y-117479493D01*
X136475456Y-117692683D01*
X136299193Y-118035133D01*
X136142254Y-118342852D01*
X136012065Y-118601046D01*
X135916053Y-118794921D01*
X135861643Y-118909684D01*
X135852054Y-118934491D01*
X135907400Y-118944489D01*
X136062858Y-118953412D01*
X136302562Y-118960851D01*
X136610644Y-118966396D01*
X136971239Y-118969638D01*
X137240413Y-118970319D01*
X137649330Y-118972493D01*
X138008349Y-118978648D01*
X138302899Y-118988231D01*
X138518410Y-119000692D01*
X138640314Y-119015478D01*
X138662042Y-119024152D01*
X138631207Y-119081505D01*
X138515251Y-119206778D01*
X138319400Y-119395166D01*
X138048880Y-119641862D01*
X137708916Y-119942057D01*
X137304733Y-120290946D01*
X137040867Y-120515475D01*
X136611246Y-120865881D01*
X136106701Y-121255075D01*
X135549894Y-121667174D01*
X134963485Y-122086300D01*
X134370137Y-122496571D01*
X133792509Y-122882107D01*
X133253265Y-123227027D01*
X132775066Y-123515451D01*
X132691552Y-123563365D01*
X131659116Y-124111174D01*
X130655565Y-124566017D01*
X129687201Y-124925568D01*
X128760327Y-125187503D01*
X127881247Y-125349497D01*
X127831939Y-125355768D01*
X127523826Y-125380657D01*
X127122469Y-125392727D01*
X126649826Y-125392573D01*
X126127854Y-125380787D01*
X125578513Y-125357964D01*
X125023762Y-125324696D01*
X124485559Y-125281578D01*
X124253881Y-125259044D01*
X123570088Y-125180406D01*
X122903587Y-125086259D01*
X122237219Y-124972864D01*
X121553823Y-124836486D01*
X120836241Y-124673387D01*
X120067313Y-124479831D01*
X119229880Y-124252081D01*
X118306780Y-123986400D01*
X118019863Y-123901502D01*
X117000019Y-123601529D01*
X116080677Y-123338765D01*
X115646569Y-123219461D01*
X121247839Y-123219461D01*
X121279944Y-123317225D01*
X121355011Y-123377986D01*
X121514784Y-123402097D01*
X121699894Y-123332276D01*
X121894625Y-123183065D01*
X122083261Y-122969005D01*
X122250085Y-122704637D01*
X122366196Y-122442402D01*
X122440016Y-122267885D01*
X122511827Y-122182051D01*
X122598891Y-122159817D01*
X122654010Y-122167424D01*
X122697202Y-122202362D01*
X122735085Y-122282808D01*
X122774283Y-122426938D01*
X122821414Y-122652927D01*
X122868221Y-122899200D01*
X122935885Y-123237506D01*
X122995771Y-123479186D01*
X123053567Y-123642813D01*
X123114960Y-123746958D01*
X123134619Y-123769063D01*
X123303947Y-123877468D01*
X123481303Y-123886114D01*
X123635798Y-123793671D01*
X123638468Y-123790753D01*
X123732445Y-123633823D01*
X123766120Y-123426702D01*
X123739640Y-123153249D01*
X123653157Y-122797319D01*
X123647833Y-122779023D01*
X123566785Y-122520352D01*
X123491928Y-122307160D01*
X125766195Y-122307160D01*
X125798659Y-122736514D01*
X125878017Y-123130394D01*
X125993453Y-123434189D01*
X126195331Y-123717533D01*
X126455009Y-123911898D01*
X126754187Y-124009725D01*
X127074564Y-124003454D01*
X127251133Y-123953671D01*
X127468437Y-123832964D01*
X127617532Y-123672360D01*
X127675261Y-123497140D01*
X127675342Y-123490599D01*
X127651979Y-123341060D01*
X127570687Y-123263447D01*
X127414664Y-123249804D01*
X127228146Y-123278896D01*
X126977525Y-123307581D01*
X126788526Y-123264242D01*
X126636095Y-123135225D01*
X126495177Y-122906876D01*
X126476414Y-122869220D01*
X126383214Y-122645315D01*
X126335388Y-122425523D01*
X126320504Y-122151727D01*
X126320424Y-122140019D01*
X126341400Y-121795147D01*
X126412553Y-121542420D01*
X126539553Y-121366884D01*
X126640852Y-121294651D01*
X126753946Y-121243835D01*
X126852551Y-121249223D01*
X126992036Y-121314169D01*
X126995723Y-121316152D01*
X127190207Y-121386942D01*
X127321604Y-121366012D01*
X127381388Y-121263994D01*
X127361030Y-121091516D01*
X127297420Y-120940110D01*
X127234791Y-120860461D01*
X127971873Y-120860461D01*
X127976432Y-121058262D01*
X128000865Y-121327733D01*
X128045153Y-121685779D01*
X128076020Y-121912559D01*
X128121134Y-122246251D01*
X128164004Y-122578442D01*
X128200019Y-122872433D01*
X128224565Y-123091525D01*
X128226012Y-123105892D01*
X128251518Y-123299750D01*
X128293724Y-123440430D01*
X128367246Y-123531594D01*
X128486701Y-123576902D01*
X128666704Y-123580017D01*
X128921872Y-123544601D01*
X129266820Y-123474316D01*
X129493871Y-123423537D01*
X129836195Y-123329138D01*
X130068395Y-123224903D01*
X130196140Y-123107569D01*
X130226940Y-123001789D01*
X130174963Y-122918981D01*
X130032036Y-122874514D01*
X129817666Y-122871360D01*
X129588429Y-122904495D01*
X129355870Y-122943385D01*
X129125584Y-122967645D01*
X129024755Y-122971689D01*
X128786400Y-122971689D01*
X128753566Y-122580250D01*
X128696953Y-121979341D01*
X128636489Y-121487624D01*
X128570717Y-121098334D01*
X128498176Y-120804707D01*
X128417410Y-120599978D01*
X128376851Y-120545005D01*
X129838500Y-120545005D01*
X129841646Y-120569721D01*
X129885674Y-120804660D01*
X129957926Y-121098703D01*
X130048803Y-121420492D01*
X130148710Y-121738668D01*
X130248049Y-122021874D01*
X130337225Y-122238750D01*
X130374971Y-122312460D01*
X130567075Y-122540600D01*
X130824066Y-122702347D01*
X131114970Y-122787114D01*
X131408812Y-122784315D01*
X131591648Y-122728298D01*
X131775951Y-122582207D01*
X131907300Y-122342366D01*
X131983564Y-122019275D01*
X132002611Y-121623438D01*
X131962309Y-121165357D01*
X131938611Y-121018964D01*
X131845924Y-120573801D01*
X131744708Y-120238922D01*
X131632319Y-120008780D01*
X131506111Y-119877827D01*
X131376527Y-119840182D01*
X131266690Y-119871365D01*
X131202982Y-119971700D01*
X131184115Y-120151367D01*
X131208799Y-120420546D01*
X131263787Y-120730942D01*
X131333601Y-121137546D01*
X131373884Y-121506574D01*
X131383768Y-121818256D01*
X131362383Y-122052821D01*
X131326726Y-122163629D01*
X131221744Y-122251894D01*
X131069295Y-122272735D01*
X130939578Y-122229385D01*
X130870938Y-122153107D01*
X130796701Y-122002672D01*
X130713162Y-121767795D01*
X130616615Y-121438193D01*
X130515872Y-121053377D01*
X130419498Y-120694717D01*
X130334480Y-120436909D01*
X130253929Y-120266268D01*
X130170955Y-120169109D01*
X130078669Y-120131747D01*
X130051081Y-120130136D01*
X129913326Y-120177738D01*
X129841749Y-120317532D01*
X129838500Y-120545005D01*
X128376851Y-120545005D01*
X128326958Y-120477381D01*
X128295111Y-120454020D01*
X128203614Y-120426757D01*
X128116653Y-120483403D01*
X128077645Y-120527999D01*
X128022460Y-120612237D01*
X127987209Y-120717422D01*
X127971873Y-120860461D01*
X127234791Y-120860461D01*
X127138123Y-120737522D01*
X126931358Y-120625895D01*
X126697281Y-120601962D01*
X126456048Y-120662457D01*
X126227815Y-120804113D01*
X126032739Y-121023665D01*
X125955945Y-121157499D01*
X125844259Y-121482527D01*
X125781202Y-121877455D01*
X125766195Y-122307160D01*
X123491928Y-122307160D01*
X123481418Y-122277229D01*
X123406486Y-122090854D01*
X123385982Y-122047685D01*
X123273889Y-121827964D01*
X123452762Y-121660443D01*
X123646609Y-121457851D01*
X123829615Y-121229742D01*
X123984179Y-121002228D01*
X124092702Y-120801425D01*
X124137583Y-120653447D01*
X124137899Y-120643855D01*
X124105317Y-120487737D01*
X124008197Y-120427028D01*
X123847484Y-120461407D01*
X123624120Y-120590555D01*
X123339048Y-120814149D01*
X123155468Y-120978034D01*
X122982837Y-121131107D01*
X122852028Y-121234414D01*
X122778087Y-121276928D01*
X122769504Y-121260958D01*
X122792024Y-121155038D01*
X122815472Y-120964687D01*
X122836384Y-120721374D01*
X122846217Y-120564097D01*
X122859061Y-120298435D01*
X122860288Y-120120348D01*
X122845251Y-120001637D01*
X122809306Y-119914106D01*
X122747805Y-119829557D01*
X122719606Y-119795718D01*
X122628219Y-119713570D01*
X132202875Y-119713570D01*
X132221080Y-119836306D01*
X132264300Y-120003317D01*
X132307358Y-120157944D01*
X132372285Y-120387878D01*
X132451664Y-120667195D01*
X132538078Y-120969970D01*
X132624113Y-121270280D01*
X132702351Y-121542198D01*
X132765378Y-121759802D01*
X132805777Y-121897165D01*
X132810681Y-121913355D01*
X132885043Y-121971597D01*
X133043745Y-121979979D01*
X133267086Y-121939891D01*
X133504444Y-121864500D01*
X133769481Y-121734656D01*
X134010350Y-121561651D01*
X134199578Y-121369500D01*
X134309691Y-121182219D01*
X134318490Y-121152899D01*
X134324966Y-120934650D01*
X134259213Y-120691671D01*
X134139422Y-120460035D01*
X133983785Y-120275815D01*
X133827998Y-120180337D01*
X133778065Y-120137393D01*
X133806091Y-120044911D01*
X133814058Y-120029693D01*
X133874649Y-119821102D01*
X133874910Y-119575279D01*
X133818817Y-119345988D01*
X133755129Y-119232685D01*
X133669178Y-119139164D01*
X133576824Y-119096429D01*
X133435136Y-119091039D01*
X133326847Y-119098604D01*
X133085169Y-119145870D01*
X132813559Y-119240207D01*
X132553308Y-119363399D01*
X132345707Y-119497234D01*
X132274065Y-119562992D01*
X132220269Y-119634530D01*
X132202875Y-119713570D01*
X122628219Y-119713570D01*
X122568112Y-119659539D01*
X122425119Y-119608229D01*
X122423350Y-119608218D01*
X122307606Y-119632676D01*
X122218422Y-119714945D01*
X122150651Y-119868376D01*
X122099147Y-120106314D01*
X122058761Y-120442109D01*
X122046218Y-120586238D01*
X121985689Y-121117362D01*
X121889926Y-121579000D01*
X121746606Y-122015361D01*
X121543404Y-122470653D01*
X121493025Y-122570747D01*
X121351604Y-122862459D01*
X121270800Y-123073284D01*
X121247839Y-123219461D01*
X115646569Y-123219461D01*
X115253142Y-123111337D01*
X114508719Y-122917371D01*
X113838712Y-122754992D01*
X113234425Y-122622326D01*
X112687162Y-122517500D01*
X112188230Y-122438638D01*
X111728930Y-122383867D01*
X111300570Y-122351313D01*
X110894451Y-122339101D01*
X110771004Y-122339159D01*
X110445496Y-122346719D01*
X110135148Y-122363039D01*
X109862659Y-122386017D01*
X109650728Y-122413554D01*
X109522053Y-122443547D01*
X109497611Y-122457030D01*
X109459506Y-122546851D01*
X109416149Y-122735365D01*
X109369608Y-123005514D01*
X109321955Y-123340241D01*
X109275257Y-123722489D01*
X109231585Y-124135200D01*
X109193009Y-124561317D01*
X109161598Y-124983783D01*
X109139422Y-125385539D01*
X109137880Y-125421803D01*
X109100130Y-126335159D01*
X108674266Y-126335159D01*
X108248402Y-126335159D01*
X108248402Y-126115962D01*
X108257843Y-125924180D01*
X108284055Y-125642820D01*
X108323872Y-125296560D01*
X108374128Y-124910077D01*
X108431654Y-124508047D01*
X108493286Y-124115149D01*
X108540255Y-123841552D01*
X108759486Y-122784248D01*
X109038674Y-121731224D01*
X109383623Y-120665732D01*
X109457037Y-120472779D01*
X112375270Y-120472779D01*
X112386269Y-120689771D01*
X112460632Y-120824190D01*
X112598858Y-120881214D01*
X112649172Y-120884018D01*
X112880279Y-120827135D01*
X113109390Y-120656020D01*
X113337312Y-120369969D01*
X113449075Y-120187155D01*
X113562952Y-119984830D01*
X113653583Y-119820462D01*
X113706454Y-119720504D01*
X113713538Y-119705146D01*
X113768687Y-119708119D01*
X113901388Y-119743964D01*
X114081655Y-119802114D01*
X114279501Y-119871999D01*
X114464941Y-119943051D01*
X114607987Y-120004702D01*
X114677123Y-120044757D01*
X114674428Y-120106369D01*
X114650676Y-120256283D01*
X114610145Y-120469619D01*
X114574440Y-120641694D01*
X114514033Y-120954368D01*
X114487912Y-121174670D01*
X114494391Y-121320488D01*
X114506469Y-121363931D01*
X114602015Y-121518243D01*
X114737232Y-121569261D01*
X114911785Y-121521102D01*
X115961187Y-121521102D01*
X115996509Y-121707005D01*
X116092946Y-121803011D01*
X116236208Y-121807346D01*
X116412000Y-121718234D01*
X116551465Y-121594406D01*
X116687900Y-121439293D01*
X116797468Y-121293252D01*
X116830313Y-121238839D01*
X116878332Y-121163242D01*
X116943864Y-121126477D01*
X117059622Y-121120697D01*
X117252906Y-121137490D01*
X117441945Y-121160411D01*
X117578540Y-121182905D01*
X117627837Y-121197547D01*
X117623885Y-121260271D01*
X117591830Y-121404044D01*
X117538383Y-121599285D01*
X117531050Y-121624098D01*
X117454734Y-121900370D01*
X117419206Y-122090946D01*
X117422857Y-122218084D01*
X117464076Y-122304041D01*
X117480548Y-122322191D01*
X117621317Y-122387744D01*
X117800320Y-122354866D01*
X118000342Y-122226992D01*
X118013260Y-122215826D01*
X118106331Y-122124385D01*
X118176730Y-122022530D01*
X118235938Y-121883869D01*
X118295436Y-121682013D01*
X118326649Y-121554885D01*
X119093551Y-121554885D01*
X119128772Y-122022842D01*
X119235000Y-122409846D01*
X119409902Y-122711237D01*
X119651143Y-122922358D01*
X119817580Y-123000568D01*
X120076112Y-123071205D01*
X120280194Y-123071492D01*
X120468177Y-123000644D01*
X120492412Y-122986771D01*
X120654993Y-122832958D01*
X120715395Y-122632199D01*
X120706873Y-122529917D01*
X120640741Y-122447303D01*
X120471665Y-122382022D01*
X120403272Y-122365855D01*
X120167236Y-122288709D01*
X120009466Y-122165053D01*
X119917831Y-121976313D01*
X119880203Y-121703918D01*
X119877581Y-121560949D01*
X119929905Y-121075710D01*
X120073348Y-120585706D01*
X120294403Y-120136218D01*
X120310148Y-120111038D01*
X120471840Y-119903403D01*
X120628625Y-119807449D01*
X120791389Y-119819956D01*
X120951815Y-119921142D01*
X121117198Y-120037963D01*
X121242865Y-120063933D01*
X121356098Y-120002873D01*
X121379191Y-119981017D01*
X121459934Y-119825632D01*
X121463105Y-119627261D01*
X121398515Y-119419181D01*
X121275972Y-119234669D01*
X121124272Y-119116278D01*
X120895265Y-119047261D01*
X120618328Y-119033500D01*
X120347346Y-119074700D01*
X120219145Y-119121257D01*
X119950540Y-119306746D01*
X119703139Y-119588090D01*
X119485953Y-119945806D01*
X119307993Y-120360409D01*
X119178272Y-120812416D01*
X119105800Y-121282343D01*
X119093551Y-121554885D01*
X118326649Y-121554885D01*
X118360147Y-121418451D01*
X118497934Y-120764431D01*
X118584398Y-120179503D01*
X118623835Y-119630986D01*
X118627383Y-119386557D01*
X118606788Y-118929113D01*
X118546697Y-118577070D01*
X118445433Y-118326182D01*
X118301321Y-118172207D01*
X118123711Y-118111883D01*
X117934687Y-118141361D01*
X117747398Y-118271669D01*
X117556540Y-118507783D01*
X117380264Y-118809250D01*
X117283641Y-118991375D01*
X117143613Y-119251787D01*
X116972788Y-119567216D01*
X116783775Y-119914391D01*
X116589183Y-120270039D01*
X116560371Y-120322535D01*
X116382853Y-120650674D01*
X116226224Y-120949457D01*
X116098754Y-121202338D01*
X116008715Y-121392771D01*
X115964380Y-121504209D01*
X115961187Y-121521102D01*
X114911785Y-121521102D01*
X114920553Y-121518683D01*
X115015684Y-121466478D01*
X115166104Y-121352709D01*
X115281234Y-121228908D01*
X115287061Y-121220234D01*
X115336591Y-121113329D01*
X115410939Y-120914236D01*
X115503919Y-120642526D01*
X115609346Y-120317774D01*
X115721034Y-119959550D01*
X115832799Y-119587429D01*
X115938455Y-119220983D01*
X116031817Y-118879783D01*
X116056349Y-118785874D01*
X116137900Y-118436626D01*
X116175670Y-118176377D01*
X116168744Y-117986356D01*
X116116211Y-117847794D01*
X116017157Y-117741922D01*
X116005156Y-117732779D01*
X115893500Y-117659354D01*
X115804251Y-117647397D01*
X115681031Y-117693508D01*
X115643989Y-117711001D01*
X115547887Y-117768400D01*
X115461738Y-117853344D01*
X115371267Y-117986365D01*
X115262198Y-118187993D01*
X115142432Y-118432356D01*
X115025228Y-118676139D01*
X114927241Y-118878310D01*
X114858703Y-119017870D01*
X114829849Y-119073820D01*
X114829832Y-119073842D01*
X114772431Y-119065372D01*
X114642170Y-119024207D01*
X114472897Y-118963102D01*
X114298457Y-118894810D01*
X114152696Y-118832086D01*
X114069461Y-118787684D01*
X114068526Y-118786960D01*
X114031743Y-118702934D01*
X114047462Y-118537899D01*
X114057063Y-118492512D01*
X114081260Y-118237786D01*
X114055755Y-117957409D01*
X113989337Y-117683103D01*
X113890795Y-117446584D01*
X113768915Y-117279573D01*
X113708810Y-117235553D01*
X113513126Y-117173160D01*
X113348554Y-117214830D01*
X113212380Y-117363217D01*
X113101888Y-117620979D01*
X113032225Y-117897504D01*
X112818071Y-118826617D01*
X112558937Y-119716092D01*
X112541356Y-119770364D01*
X112427133Y-120168037D01*
X112375270Y-120472779D01*
X109457037Y-120472779D01*
X109800133Y-119571020D01*
X110294008Y-118430339D01*
X110739798Y-117491552D01*
X110963008Y-117041846D01*
X111144492Y-116688167D01*
X111290759Y-116421066D01*
X111408312Y-116231092D01*
X111503659Y-116108794D01*
X111583305Y-116044722D01*
X111653756Y-116029427D01*
X111721517Y-116053457D01*
X111727365Y-116057013D01*
X111815467Y-116088529D01*
X111937911Y-116078689D01*
X112126961Y-116023947D01*
X112173551Y-116008012D01*
X112536304Y-115893706D01*
X112891715Y-115809140D01*
X113270960Y-115749330D01*
X113705211Y-115709290D01*
X114192465Y-115685189D01*
X115023960Y-115687725D01*
G37*
G36*
X133676747Y-120663234D02*
G01*
X133800319Y-120712180D01*
X133810776Y-120721643D01*
X133864876Y-120838896D01*
X133877212Y-120998468D01*
X133843774Y-121133010D01*
X133835984Y-121144976D01*
X133735726Y-121241232D01*
X133588253Y-121339827D01*
X133425640Y-121424837D01*
X133279963Y-121480338D01*
X133183298Y-121490403D01*
X133165401Y-121477906D01*
X133138049Y-121396462D01*
X133104359Y-121253640D01*
X133099978Y-121231963D01*
X133064319Y-121063761D01*
X133032451Y-120931962D01*
X133030888Y-120926340D01*
X133056692Y-120834118D01*
X133166310Y-120753264D01*
X133327612Y-120692209D01*
X133508468Y-120659388D01*
X133676747Y-120663234D01*
G37*
G36*
X118026341Y-119198065D02*
G01*
X118044124Y-119344650D01*
X118045222Y-119561945D01*
X118029147Y-119827849D01*
X118011281Y-119999657D01*
X117980744Y-120183841D01*
X117926713Y-120277552D01*
X117820579Y-120299973D01*
X117633735Y-120270289D01*
X117613927Y-120266129D01*
X117444923Y-120231619D01*
X117340856Y-120200231D01*
X117300800Y-120152169D01*
X117323826Y-120067636D01*
X117409010Y-119926837D01*
X117555423Y-119709975D01*
X117585783Y-119664943D01*
X117733186Y-119453040D01*
X117861055Y-119282680D01*
X117953837Y-119173778D01*
X117992363Y-119144292D01*
X118026341Y-119198065D01*
G37*
G36*
X133384410Y-119673702D02*
G01*
X133427330Y-119753943D01*
X133462465Y-119849348D01*
X133452532Y-119925422D01*
X133382657Y-120014020D01*
X133247961Y-120138136D01*
X133105702Y-120258880D01*
X132998032Y-120340193D01*
X132956562Y-120362100D01*
X132914439Y-120313296D01*
X132847146Y-120187566D01*
X132793824Y-120069274D01*
X132670109Y-119776449D01*
X132825808Y-119716239D01*
X133001758Y-119661592D01*
X133167915Y-119624871D01*
X133305460Y-119617496D01*
X133384410Y-119673702D01*
G37*
G36*
X179649149Y-103360458D02*
G01*
X179995924Y-103375213D01*
X180326570Y-103399846D01*
X180619611Y-103433608D01*
X180741619Y-103453017D01*
X181423768Y-103609668D01*
X182079146Y-103829797D01*
X182704318Y-104109920D01*
X183295849Y-104446554D01*
X183850303Y-104836213D01*
X184364246Y-105275413D01*
X184834240Y-105760670D01*
X185256852Y-106288500D01*
X185628644Y-106855419D01*
X185946183Y-107457942D01*
X186206032Y-108092585D01*
X186404756Y-108755863D01*
X186518606Y-109312029D01*
X186601188Y-110027746D01*
X186613504Y-110734061D01*
X186555421Y-111432232D01*
X186426809Y-112123514D01*
X186227538Y-112809164D01*
X186124733Y-113090621D01*
X185842845Y-113721526D01*
X185499750Y-114319772D01*
X185099132Y-114881386D01*
X184644675Y-115402392D01*
X184140067Y-115878815D01*
X183588991Y-116306680D01*
X182995133Y-116682012D01*
X182604050Y-116888071D01*
X182424114Y-116971996D01*
X182228202Y-117056649D01*
X182027971Y-117137747D01*
X181835077Y-117211007D01*
X181661174Y-117272148D01*
X181517918Y-117316885D01*
X181416966Y-117340937D01*
X181371298Y-117341011D01*
X181364268Y-117302632D01*
X181357935Y-117202664D01*
X181352554Y-117050465D01*
X181348383Y-116855395D01*
X181345677Y-116626813D01*
X181344692Y-116374078D01*
X181344692Y-116368996D01*
X181344692Y-115413268D01*
X179482262Y-115413268D01*
X177619832Y-115413268D01*
X177619832Y-116388827D01*
X177618906Y-116643576D01*
X177616292Y-116873468D01*
X177612237Y-117069454D01*
X177606988Y-117222484D01*
X177600793Y-117323510D01*
X177593897Y-117363482D01*
X177593226Y-117363776D01*
X177550628Y-117352804D01*
X177455854Y-117323566D01*
X177323849Y-117280786D01*
X177200192Y-117239550D01*
X176560665Y-116987165D01*
X175950423Y-116673361D01*
X175373773Y-116302559D01*
X174835022Y-115879182D01*
X174338475Y-115407649D01*
X173888439Y-114892381D01*
X173489220Y-114337800D01*
X173237739Y-113906983D01*
X176969961Y-113906983D01*
X176970552Y-114100455D01*
X176972374Y-114322448D01*
X176973711Y-114437400D01*
X176983875Y-115235894D01*
X179501295Y-115235894D01*
X182018714Y-115235894D01*
X182018714Y-114402235D01*
X182018714Y-113568575D01*
X181912290Y-113568575D01*
X181835631Y-113581543D01*
X181800480Y-113612778D01*
X181800462Y-113612919D01*
X181793113Y-113689188D01*
X181791556Y-113710475D01*
X181784170Y-113721273D01*
X181760261Y-113730612D01*
X181714919Y-113738628D01*
X181643231Y-113745456D01*
X181540288Y-113751229D01*
X181401177Y-113756083D01*
X181220987Y-113760153D01*
X180994808Y-113763574D01*
X180717728Y-113766480D01*
X180384836Y-113769006D01*
X179991221Y-113771287D01*
X179531971Y-113773458D01*
X179491094Y-113773636D01*
X177194133Y-113783586D01*
X177194133Y-113676080D01*
X177185919Y-113604050D01*
X177655307Y-113604050D01*
X177814943Y-113604050D01*
X177914323Y-113599753D01*
X177962091Y-113580631D01*
X177977375Y-113537333D01*
X177978251Y-113524232D01*
X177979206Y-113450344D01*
X177978293Y-113330267D01*
X177975715Y-113188728D01*
X177975390Y-113175031D01*
X177980018Y-112949426D01*
X178011339Y-112766947D01*
X178076918Y-112602397D01*
X178184321Y-112430581D01*
X178209246Y-112396168D01*
X178371963Y-112175132D01*
X178457966Y-112277650D01*
X178526080Y-112368223D01*
X178605733Y-112487146D01*
X178649165Y-112557542D01*
X178693462Y-112635721D01*
X178723199Y-112704303D01*
X178741285Y-112780153D01*
X178750629Y-112880135D01*
X178754137Y-113021115D01*
X178754694Y-113169483D01*
X178755027Y-113604050D01*
X178932402Y-113604050D01*
X179109776Y-113604050D01*
X179110109Y-113169483D01*
X179111127Y-112984821D01*
X179115767Y-112854201D01*
X179126909Y-112760719D01*
X179147432Y-112687472D01*
X179180215Y-112617554D01*
X179214340Y-112557542D01*
X179289421Y-112437031D01*
X179366828Y-112324464D01*
X179404148Y-112275760D01*
X179490058Y-112171352D01*
X179654166Y-112394278D01*
X179772384Y-112573711D01*
X179845632Y-112739993D01*
X179882133Y-112919669D01*
X179890111Y-113139279D01*
X179889851Y-113154925D01*
X179886196Y-113340493D01*
X179886263Y-113466551D01*
X179894128Y-113544537D01*
X179913866Y-113585890D01*
X179949551Y-113602049D01*
X180005259Y-113604452D01*
X180049860Y-113604050D01*
X180209497Y-113604050D01*
X180209497Y-113176590D01*
X180211559Y-112974119D01*
X180221553Y-112823285D01*
X180245187Y-112704810D01*
X180288172Y-112599417D01*
X180356218Y-112487827D01*
X180453466Y-112352873D01*
X180581983Y-112179878D01*
X180701711Y-112315498D01*
X180823370Y-112470210D01*
X180906948Y-112623449D01*
X180958462Y-112793808D01*
X180983930Y-112999876D01*
X180989597Y-113204958D01*
X180989943Y-113604050D01*
X181149580Y-113604050D01*
X181309217Y-113604050D01*
X181309217Y-112752654D01*
X181309217Y-111901257D01*
X179482262Y-111901257D01*
X177655307Y-111901257D01*
X177655307Y-112752654D01*
X177655307Y-113604050D01*
X177185919Y-113604050D01*
X177185471Y-113600120D01*
X177145073Y-113571926D01*
X177090665Y-113568575D01*
X177012906Y-113579279D01*
X176975372Y-113603741D01*
X176972392Y-113648021D01*
X176970582Y-113752636D01*
X176969961Y-113906983D01*
X173237739Y-113906983D01*
X173145126Y-113748327D01*
X172860461Y-113128383D01*
X172728401Y-112752654D01*
X172671267Y-112590101D01*
X172494218Y-111889234D01*
X172439620Y-111529183D01*
X177335521Y-111529183D01*
X177336032Y-111580279D01*
X177336033Y-111581983D01*
X177335538Y-111633449D01*
X177337565Y-111677275D01*
X177347383Y-111714073D01*
X177370260Y-111744457D01*
X177411465Y-111769038D01*
X177476265Y-111788431D01*
X177569928Y-111803247D01*
X177697724Y-111814100D01*
X177864920Y-111821603D01*
X178076785Y-111826368D01*
X178338587Y-111829008D01*
X178655595Y-111830136D01*
X179033076Y-111830365D01*
X179470749Y-111830307D01*
X179940765Y-111829815D01*
X180343150Y-111828293D01*
X180681217Y-111825677D01*
X180958278Y-111821900D01*
X181177645Y-111816896D01*
X181342631Y-111810600D01*
X181456548Y-111802944D01*
X181522709Y-111793864D01*
X181538135Y-111789138D01*
X181596862Y-111750647D01*
X181623000Y-111690205D01*
X181628491Y-111596038D01*
X181629204Y-111541777D01*
X181627842Y-111495548D01*
X181619156Y-111456709D01*
X181597895Y-111424618D01*
X181558810Y-111398634D01*
X181496651Y-111378113D01*
X181406167Y-111362416D01*
X181282109Y-111350899D01*
X181119227Y-111342922D01*
X180912271Y-111337841D01*
X180655991Y-111335017D01*
X180345137Y-111333805D01*
X179974460Y-111333566D01*
X179538708Y-111333657D01*
X179482262Y-111333659D01*
X179038545Y-111333600D01*
X178660522Y-111333829D01*
X178342941Y-111334953D01*
X178080547Y-111337581D01*
X177868086Y-111342320D01*
X177700304Y-111349778D01*
X177571948Y-111360563D01*
X177477763Y-111375283D01*
X177412496Y-111394546D01*
X177370892Y-111418959D01*
X177347697Y-111449131D01*
X177337658Y-111485670D01*
X177335521Y-111529183D01*
X172439620Y-111529183D01*
X172387553Y-111185822D01*
X172380859Y-111056934D01*
X177687916Y-111056934D01*
X177688197Y-111179351D01*
X177688806Y-111234459D01*
X177688904Y-111236428D01*
X177723639Y-111241487D01*
X177822646Y-111245882D01*
X177979248Y-111249548D01*
X178186770Y-111252417D01*
X178438537Y-111254426D01*
X178727871Y-111255508D01*
X179048099Y-111255598D01*
X179392542Y-111254629D01*
X179491131Y-111254166D01*
X181291480Y-111244972D01*
X181292421Y-110517737D01*
X181292067Y-110295775D01*
X181290532Y-110096770D01*
X181288004Y-109932080D01*
X181284669Y-109813065D01*
X181280713Y-109751084D01*
X181279757Y-109746159D01*
X181262098Y-109735744D01*
X181212855Y-109726975D01*
X181127247Y-109719737D01*
X181000491Y-109713910D01*
X180827807Y-109709377D01*
X180604412Y-109706021D01*
X180325526Y-109703724D01*
X179986367Y-109702367D01*
X179582153Y-109701834D01*
X179478467Y-109701816D01*
X177690781Y-109701816D01*
X177690009Y-109959008D01*
X177689008Y-110318246D01*
X177688324Y-110623140D01*
X177687959Y-110870450D01*
X177687916Y-111056934D01*
X172380859Y-111056934D01*
X172351040Y-110482841D01*
X172384450Y-109783269D01*
X172449713Y-109344476D01*
X176948494Y-109344476D01*
X176956639Y-109429128D01*
X176964504Y-109456508D01*
X176970474Y-109469550D01*
X176982776Y-109480807D01*
X177006313Y-109490411D01*
X177045986Y-109498492D01*
X177106696Y-109505182D01*
X177193344Y-109510612D01*
X177310831Y-109514914D01*
X177464059Y-109518218D01*
X177657929Y-109520656D01*
X177897341Y-109522358D01*
X178187198Y-109523456D01*
X178532401Y-109524082D01*
X178937850Y-109524366D01*
X179408447Y-109524440D01*
X179502390Y-109524441D01*
X182018714Y-109524441D01*
X182018714Y-109371345D01*
X182018714Y-109218250D01*
X181628941Y-109034334D01*
X181239167Y-108850419D01*
X179477725Y-108850419D01*
X177716282Y-108850419D01*
X177352941Y-109026549D01*
X177170807Y-109120050D01*
X177047844Y-109198497D01*
X176976318Y-109270452D01*
X176948494Y-109344476D01*
X172449713Y-109344476D01*
X172487550Y-109090085D01*
X172660110Y-108406266D01*
X172803716Y-108007456D01*
X177705800Y-108007456D01*
X177711021Y-108345717D01*
X177711982Y-108353771D01*
X177719000Y-108431009D01*
X177723526Y-108495597D01*
X177731454Y-108548629D01*
X177748676Y-108591196D01*
X177781087Y-108624391D01*
X177834578Y-108649307D01*
X177915042Y-108667035D01*
X178028373Y-108678669D01*
X178180463Y-108685301D01*
X178377205Y-108688023D01*
X178624493Y-108687927D01*
X178928218Y-108686106D01*
X179294274Y-108683653D01*
X179485840Y-108682610D01*
X179876876Y-108680626D01*
X180202961Y-108678597D01*
X180470091Y-108676262D01*
X180684264Y-108673358D01*
X180851477Y-108669623D01*
X180977728Y-108664795D01*
X181069014Y-108658612D01*
X181131334Y-108650812D01*
X181170683Y-108641133D01*
X181193060Y-108629314D01*
X181204462Y-108615090D01*
X181207783Y-108607372D01*
X181222551Y-108540930D01*
X181238974Y-108426401D01*
X181253885Y-108286482D01*
X181256127Y-108260795D01*
X181258121Y-107886467D01*
X181199030Y-107547247D01*
X181080074Y-107245014D01*
X180902474Y-106981643D01*
X180667452Y-106759011D01*
X180376228Y-106578995D01*
X180084758Y-106460674D01*
X179977133Y-106420229D01*
X179913837Y-106373248D01*
X179870434Y-106295894D01*
X179844114Y-106225942D01*
X179792193Y-106111468D01*
X179730452Y-106018318D01*
X179699854Y-105987898D01*
X179644041Y-105931870D01*
X179641668Y-105869036D01*
X179654257Y-105831083D01*
X179670559Y-105733478D01*
X179637850Y-105652393D01*
X179611144Y-105585769D01*
X179596994Y-105483198D01*
X179594040Y-105330912D01*
X179596331Y-105231983D01*
X179601105Y-105075211D01*
X179604789Y-104937817D01*
X179606850Y-104840534D01*
X179607106Y-104813971D01*
X179593953Y-104740696D01*
X179562129Y-104650989D01*
X179522913Y-104570621D01*
X179487583Y-104525364D01*
X179479541Y-104522486D01*
X179455053Y-104551685D01*
X179419142Y-104623403D01*
X179413026Y-104637779D01*
X179388344Y-104735823D01*
X179375950Y-104885964D01*
X179375275Y-105096297D01*
X179376661Y-105152128D01*
X179379287Y-105355705D01*
X179372849Y-105501294D01*
X179356364Y-105601392D01*
X179337212Y-105653338D01*
X179305234Y-105775706D01*
X179317010Y-105838644D01*
X179327261Y-105905513D01*
X179294878Y-105970181D01*
X179247376Y-106022187D01*
X179168185Y-106127061D01*
X179109536Y-106248305D01*
X179105965Y-106259483D01*
X179074859Y-106340476D01*
X179028328Y-106394754D01*
X178946463Y-106439970D01*
X178865644Y-106472569D01*
X178556971Y-106626379D01*
X178287393Y-106832489D01*
X178062199Y-107082274D01*
X177886677Y-107367112D01*
X177766115Y-107678380D01*
X177705800Y-108007456D01*
X172803716Y-108007456D01*
X172901899Y-107734791D01*
X173078327Y-107342737D01*
X173413966Y-106730022D01*
X173805130Y-106158645D01*
X174247733Y-105631472D01*
X174737688Y-105151368D01*
X175270907Y-104721198D01*
X175843304Y-104343827D01*
X176450791Y-104022121D01*
X177089281Y-103758944D01*
X177754688Y-103557161D01*
X178442924Y-103419639D01*
X178726810Y-103382924D01*
X178993117Y-103363566D01*
X179307722Y-103356326D01*
X179649149Y-103360458D01*
G37*
G36*
X180274619Y-102791325D02*
G01*
X180971306Y-102895198D01*
X181662636Y-103064230D01*
X182344384Y-103299528D01*
X183012331Y-103602196D01*
X183028162Y-103610299D01*
X183643957Y-103963597D01*
X184220290Y-104372059D01*
X184763710Y-104840529D01*
X184986896Y-105059593D01*
X185466046Y-105588772D01*
X185883473Y-106139184D01*
X186242232Y-106716803D01*
X186545382Y-107327600D01*
X186795978Y-107977550D01*
X186997078Y-108672625D01*
X187115786Y-109219346D01*
X187143325Y-109412641D01*
X187164909Y-109660597D01*
X187180306Y-109947154D01*
X187189282Y-110256257D01*
X187191604Y-110571846D01*
X187187038Y-110877863D01*
X187175353Y-111158251D01*
X187156315Y-111396951D01*
X187148367Y-111463931D01*
X187017897Y-112190155D01*
X186821705Y-112894317D01*
X186562367Y-113572459D01*
X186242460Y-114220624D01*
X185864562Y-114834852D01*
X185431250Y-115411187D01*
X184945100Y-115945670D01*
X184408691Y-116434343D01*
X183824599Y-116873249D01*
X183483685Y-117092164D01*
X182846260Y-117437176D01*
X182174633Y-117721813D01*
X181475471Y-117943694D01*
X180755443Y-118100440D01*
X180581983Y-118127851D01*
X180402801Y-118148758D01*
X180177027Y-118167083D01*
X179923166Y-118182104D01*
X179659723Y-118193101D01*
X179405205Y-118199352D01*
X179178117Y-118200137D01*
X178996965Y-118194733D01*
X178950139Y-118191445D01*
X178191715Y-118094017D01*
X177465309Y-117933696D01*
X176768677Y-117709716D01*
X176099575Y-117421312D01*
X175455758Y-117067719D01*
X175225279Y-116921382D01*
X174628349Y-116486634D01*
X174081607Y-116002792D01*
X173586874Y-115472672D01*
X173145975Y-114899092D01*
X172760731Y-114284869D01*
X172432967Y-113632820D01*
X172164506Y-112945762D01*
X171957170Y-112226513D01*
X171849246Y-111704622D01*
X171820168Y-111481369D01*
X171799411Y-111203841D01*
X171786868Y-110888212D01*
X171783647Y-110642954D01*
X171844007Y-110642954D01*
X171849143Y-110929513D01*
X171862164Y-111178236D01*
X171870200Y-111268069D01*
X171980556Y-111989048D01*
X172157710Y-112690787D01*
X172399139Y-113369180D01*
X172702325Y-114020122D01*
X173064746Y-114639507D01*
X173483884Y-115223230D01*
X173957217Y-115767184D01*
X174482225Y-116267266D01*
X175056389Y-116719368D01*
X175331703Y-116907093D01*
X175935659Y-117259259D01*
X176579241Y-117557360D01*
X177252256Y-117797846D01*
X177944512Y-117977168D01*
X178645817Y-118091777D01*
X178772765Y-118105313D01*
X179042392Y-118122613D01*
X179358768Y-118128278D01*
X179698766Y-118122955D01*
X180039255Y-118107290D01*
X180357107Y-118081930D01*
X180581983Y-118054741D01*
X181292324Y-117916021D01*
X181980894Y-117712140D01*
X182643657Y-117446261D01*
X183276577Y-117121548D01*
X183875616Y-116741163D01*
X184436738Y-116308270D01*
X184955907Y-115826032D01*
X185429087Y-115297612D01*
X185852241Y-114726173D01*
X186221333Y-114114879D01*
X186532326Y-113466893D01*
X186578156Y-113355726D01*
X186822851Y-112655545D01*
X186998300Y-111944692D01*
X187104633Y-111227035D01*
X187141982Y-110506443D01*
X187110481Y-109786786D01*
X187010260Y-109071932D01*
X186841453Y-108365751D01*
X186604190Y-107672110D01*
X186365696Y-107129888D01*
X186016865Y-106490764D01*
X185612402Y-105893447D01*
X185155792Y-105340517D01*
X184650520Y-104834554D01*
X184100074Y-104378136D01*
X183507940Y-103973845D01*
X182877603Y-103624259D01*
X182212550Y-103331959D01*
X181516266Y-103099524D01*
X180792239Y-102929534D01*
X180656928Y-102905374D01*
X180477497Y-102882311D01*
X180244552Y-102863323D01*
X179975432Y-102848819D01*
X179687477Y-102839206D01*
X179398029Y-102834892D01*
X179124426Y-102836286D01*
X178884010Y-102843795D01*
X178694119Y-102857828D01*
X178684078Y-102858959D01*
X177948390Y-102978481D01*
X177235363Y-103163265D01*
X176548791Y-103411546D01*
X175892467Y-103721564D01*
X175270188Y-104091554D01*
X174685746Y-104519753D01*
X174213317Y-104936058D01*
X173698296Y-105474461D01*
X173246825Y-106042280D01*
X172857650Y-106641887D01*
X172529517Y-107275657D01*
X172261172Y-107945963D01*
X172051361Y-108655179D01*
X171920592Y-109276117D01*
X171893166Y-109480357D01*
X171871337Y-109737261D01*
X171855562Y-110028728D01*
X171846300Y-110336659D01*
X171844007Y-110642954D01*
X171783647Y-110642954D01*
X171782435Y-110550655D01*
X171786007Y-110207343D01*
X171797478Y-109874450D01*
X171816744Y-109568148D01*
X171843700Y-109304611D01*
X171865757Y-109161391D01*
X172036786Y-108420120D01*
X172270655Y-107711120D01*
X172567060Y-107035156D01*
X172925697Y-106392990D01*
X173033304Y-106225279D01*
X173464960Y-105633389D01*
X173941924Y-105093404D01*
X174459973Y-104606428D01*
X175014886Y-104173566D01*
X175602441Y-103795922D01*
X176218415Y-103474601D01*
X176858585Y-103210708D01*
X177518731Y-103005348D01*
X178194630Y-102859625D01*
X178882058Y-102774644D01*
X179576796Y-102751509D01*
X180274619Y-102791325D01*
G37*
G36*
X179682842Y-109951685D02*
G01*
X179801842Y-110003055D01*
X179811876Y-110010101D01*
X179945554Y-110148324D01*
X180023457Y-110312151D01*
X180046701Y-110487421D01*
X180016399Y-110659972D01*
X179933668Y-110815643D01*
X179799623Y-110940274D01*
X179735785Y-110976394D01*
X179563459Y-111037642D01*
X179406705Y-111039563D01*
X179242305Y-110982231D01*
X179233938Y-110978049D01*
X179080239Y-110872762D01*
X178982985Y-110734459D01*
X178939951Y-110601020D01*
X178927726Y-110405491D01*
X179469700Y-110405491D01*
X179477425Y-110494592D01*
X179500845Y-110557234D01*
X179546157Y-110615624D01*
X179577908Y-110649079D01*
X179653139Y-110719277D01*
X179711770Y-110761021D01*
X179727007Y-110766061D01*
X179725012Y-110743772D01*
X179682045Y-110686381D01*
X179633061Y-110633031D01*
X179563606Y-110556205D01*
X179523230Y-110487699D01*
X179502531Y-110402289D01*
X179492106Y-110274749D01*
X179490910Y-110251676D01*
X179478421Y-110003352D01*
X179471473Y-110267724D01*
X179469700Y-110405491D01*
X178927726Y-110405491D01*
X178927355Y-110399555D01*
X178976072Y-110221938D01*
X179077957Y-110077540D01*
X179224869Y-109975729D01*
X179408662Y-109925875D01*
X179528077Y-109924391D01*
X179682842Y-109951685D01*
G37*
G04 #@! TD*
%LPC*%
D15*
G04 #@! TO.C,SW1*
X131121000Y-80629000D03*
X137621000Y-80629000D03*
X131121000Y-85129000D03*
X137621000Y-85129000D03*
G04 #@! TD*
G04 #@! TO.C,SW2*
X122121000Y-91629000D03*
X128621000Y-91629000D03*
X122121000Y-96129000D03*
X128621000Y-96129000D03*
G04 #@! TD*
D16*
G04 #@! TO.C,R2*
X144581000Y-84749000D03*
D17*
X152201000Y-84749000D03*
G04 #@! TD*
D16*
G04 #@! TO.C,R3*
X144581000Y-88799000D03*
D17*
X152201000Y-88799000D03*
G04 #@! TD*
D16*
G04 #@! TO.C,R5*
X144581000Y-96899000D03*
D17*
X152201000Y-96899000D03*
G04 #@! TD*
D16*
G04 #@! TO.C,R6*
X144581000Y-100949000D03*
D17*
X152201000Y-100949000D03*
G04 #@! TD*
D16*
G04 #@! TO.C,R8*
X144581000Y-109049000D03*
D17*
X152201000Y-109049000D03*
G04 #@! TD*
D16*
G04 #@! TO.C,R7*
X144581000Y-104999000D03*
D17*
X152201000Y-104999000D03*
G04 #@! TD*
D16*
G04 #@! TO.C,R4*
X144581000Y-92849000D03*
D17*
X152201000Y-92849000D03*
G04 #@! TD*
D15*
G04 #@! TO.C,SW5*
X138621000Y-107129000D03*
X132121000Y-107129000D03*
X138621000Y-102629000D03*
X132121000Y-102629000D03*
G04 #@! TD*
G04 #@! TO.C,SW4*
X127121000Y-107129000D03*
X120621000Y-107129000D03*
X127121000Y-102629000D03*
X120621000Y-102629000D03*
G04 #@! TD*
G04 #@! TO.C,SW3*
X140121000Y-96129000D03*
X133621000Y-96129000D03*
X140121000Y-91629000D03*
X133621000Y-91629000D03*
G04 #@! TD*
D17*
G04 #@! TO.C,R1*
X152201000Y-80699000D03*
D16*
X144581000Y-80699000D03*
G04 #@! TD*
D18*
G04 #@! TO.C,Q5*
X159661000Y-107859000D03*
X158391000Y-105789000D03*
D19*
X157121000Y-107859000D03*
G04 #@! TD*
D18*
G04 #@! TO.C,Q4*
X159661000Y-101749000D03*
X158391000Y-99679000D03*
D19*
X157121000Y-101749000D03*
G04 #@! TD*
D18*
G04 #@! TO.C,Q3*
X159661000Y-95639000D03*
X158391000Y-93569000D03*
D19*
X157121000Y-95639000D03*
G04 #@! TD*
D18*
G04 #@! TO.C,Q2*
X159661000Y-89529000D03*
X158391000Y-87459000D03*
D19*
X157121000Y-89529000D03*
G04 #@! TD*
D18*
G04 #@! TO.C,Q1*
X159661000Y-83419000D03*
X158391000Y-81349000D03*
D19*
X157121000Y-83419000D03*
G04 #@! TD*
D20*
G04 #@! TO.C,D3*
X171121000Y-104129000D03*
D21*
X168581000Y-104129000D03*
G04 #@! TD*
D20*
G04 #@! TO.C,D2*
X170621000Y-94129000D03*
D21*
X168081000Y-94129000D03*
G04 #@! TD*
D20*
G04 #@! TO.C,D1*
X170621000Y-82629000D03*
D21*
X168081000Y-82629000D03*
G04 #@! TD*
D22*
G04 #@! TO.C,BT1*
X148121000Y-63629000D03*
D23*
X159106000Y-63629000D03*
X137136000Y-63629000D03*
G04 #@! TD*
%LPD*%
M02*
