G04 #@! TF.GenerationSoftware,KiCad,Pcbnew,9.0.1*
G04 #@! TF.CreationDate,2025-05-23T23:34:19-04:00*
G04 #@! TF.ProjectId,logic01,6c6f6769-6330-4312-9e6b-696361645f70,rev?*
G04 #@! TF.SameCoordinates,Original*
G04 #@! TF.FileFunction,Legend,Bot*
G04 #@! TF.FilePolarity,Positive*
%FSLAX46Y46*%
G04 Gerber Fmt 4.6, Leading zero omitted, Abs format (unit mm)*
G04 Created by KiCad (PCBNEW 9.0.1) date 2025-05-23 23:34:19*
%MOMM*%
%LPD*%
G01*
G04 APERTURE LIST*
G04 Aperture macros list*
%AMRoundRect*
0 Rectangle with rounded corners*
0 $1 Rounding radius*
0 $2 $3 $4 $5 $6 $7 $8 $9 X,Y pos of 4 corners*
0 Add a 4 corners polygon primitive as box body*
4,1,4,$2,$3,$4,$5,$6,$7,$8,$9,$2,$3,0*
0 Add four circle primitives for the rounded corners*
1,1,$1+$1,$2,$3*
1,1,$1+$1,$4,$5*
1,1,$1+$1,$6,$7*
1,1,$1+$1,$8,$9*
0 Add four rect primitives between the rounded corners*
20,1,$1+$1,$2,$3,$4,$5,0*
20,1,$1+$1,$4,$5,$6,$7,0*
20,1,$1+$1,$6,$7,$8,$9,0*
20,1,$1+$1,$8,$9,$2,$3,0*%
G04 Aperture macros list end*
%ADD10C,0.400000*%
%ADD11C,0.000000*%
%ADD12C,2.000000*%
%ADD13C,1.600000*%
%ADD14O,1.600000X1.600000*%
%ADD15RoundRect,0.275000X-0.275000X-0.625000X0.275000X-0.625000X0.275000X0.625000X-0.275000X0.625000X0*%
%ADD16R,1.100000X1.800000*%
%ADD17C,1.800000*%
%ADD18R,1.800000X1.800000*%
G04 APERTURE END LIST*
D10*
X135135731Y-61909709D02*
X133323116Y-61064473D01*
X134773487Y-62686545D02*
X133824022Y-62243802D01*
X133824022Y-62243802D02*
X133691641Y-62076988D01*
X133691641Y-62076988D02*
X133685825Y-61864109D01*
X133685825Y-61864109D02*
X133806573Y-61605163D01*
X133806573Y-61605163D02*
X133973387Y-61472783D01*
X133973387Y-61472783D02*
X134099951Y-61426717D01*
X133962684Y-64199966D02*
X134129497Y-64067585D01*
X134129497Y-64067585D02*
X134290495Y-63722325D01*
X134290495Y-63722325D02*
X134284678Y-63509446D01*
X134284678Y-63509446D02*
X134152298Y-63342632D01*
X134152298Y-63342632D02*
X133461778Y-63020637D01*
X133461778Y-63020637D02*
X133248898Y-63026453D01*
X133248898Y-63026453D02*
X133082084Y-63158834D01*
X133082084Y-63158834D02*
X132921087Y-63504094D01*
X132921087Y-63504094D02*
X132926903Y-63716974D01*
X132926903Y-63716974D02*
X133059284Y-63883787D01*
X133059284Y-63883787D02*
X133231914Y-63964286D01*
X133231914Y-63964286D02*
X133807038Y-63181635D01*
X133525757Y-65362311D02*
X133519941Y-65149432D01*
X133519941Y-65149432D02*
X133387560Y-64982618D01*
X133387560Y-64982618D02*
X131833889Y-64258129D01*
X133083014Y-66311776D02*
X133077198Y-66098897D01*
X133077198Y-66098897D02*
X132944817Y-65932083D01*
X132944817Y-65932083D02*
X131391146Y-65207595D01*
X132640271Y-67261241D02*
X132634455Y-67048362D01*
X132634455Y-67048362D02*
X132588389Y-66921798D01*
X132588389Y-66921798D02*
X132456008Y-66754984D01*
X132456008Y-66754984D02*
X131938118Y-66513488D01*
X131938118Y-66513488D02*
X131725239Y-66519304D01*
X131725239Y-66519304D02*
X131598674Y-66565370D01*
X131598674Y-66565370D02*
X131431861Y-66697750D01*
X131431861Y-66697750D02*
X131311113Y-66956696D01*
X131311113Y-66956696D02*
X131316929Y-67169575D01*
X131316929Y-67169575D02*
X131362995Y-67296139D01*
X131362995Y-67296139D02*
X131495375Y-67462953D01*
X131495375Y-67462953D02*
X132013265Y-67704449D01*
X132013265Y-67704449D02*
X132226145Y-67698633D01*
X132226145Y-67698633D02*
X132352709Y-67652567D01*
X132352709Y-67652567D02*
X132519523Y-67520187D01*
X132519523Y-67520187D02*
X132640271Y-67261241D01*
X130264629Y-69200887D02*
X129942634Y-69891407D01*
X131352291Y-70023323D02*
X129798621Y-69298834D01*
X129798621Y-69298834D02*
X129585741Y-69304651D01*
X129585741Y-69304651D02*
X129418928Y-69437031D01*
X129418928Y-69437031D02*
X129338429Y-69609662D01*
X130869299Y-71059103D02*
X129660889Y-70495612D01*
X130006149Y-70656610D02*
X129793269Y-70662426D01*
X129793269Y-70662426D02*
X129666705Y-70708492D01*
X129666705Y-70708492D02*
X129499891Y-70840872D01*
X129499891Y-70840872D02*
X129419392Y-71013502D01*
X130225309Y-72440143D02*
X130219493Y-72227264D01*
X130219493Y-72227264D02*
X130173427Y-72100700D01*
X130173427Y-72100700D02*
X130041047Y-71933886D01*
X130041047Y-71933886D02*
X129523157Y-71692390D01*
X129523157Y-71692390D02*
X129310277Y-71698206D01*
X129310277Y-71698206D02*
X129183713Y-71744272D01*
X129183713Y-71744272D02*
X129016899Y-71876652D01*
X129016899Y-71876652D02*
X128896151Y-72135597D01*
X128896151Y-72135597D02*
X128901967Y-72348477D01*
X128901967Y-72348477D02*
X128948033Y-72475041D01*
X128948033Y-72475041D02*
X129080414Y-72641855D01*
X129080414Y-72641855D02*
X129598304Y-72883351D01*
X129598304Y-72883351D02*
X129811183Y-72877535D01*
X129811183Y-72877535D02*
X129937748Y-72831469D01*
X129937748Y-72831469D02*
X130104561Y-72699088D01*
X130104561Y-72699088D02*
X130225309Y-72440143D01*
X129581320Y-73821184D02*
X128372909Y-73257693D01*
X128545539Y-73338192D02*
X128418975Y-73384257D01*
X128418975Y-73384257D02*
X128252161Y-73516638D01*
X128252161Y-73516638D02*
X128131413Y-73775583D01*
X128131413Y-73775583D02*
X128137229Y-73988463D01*
X128137229Y-73988463D02*
X128269610Y-74155276D01*
X128269610Y-74155276D02*
X129219075Y-74598019D01*
X128269610Y-74155276D02*
X128056731Y-74161093D01*
X128056731Y-74161093D02*
X127889917Y-74293473D01*
X127889917Y-74293473D02*
X127769169Y-74552418D01*
X127769169Y-74552418D02*
X127774985Y-74765298D01*
X127774985Y-74765298D02*
X127907366Y-74932112D01*
X127907366Y-74932112D02*
X128856831Y-75374854D01*
X126118480Y-76514864D02*
X125635488Y-77550645D01*
X127689599Y-77877991D02*
X125876984Y-77032754D01*
X127045609Y-79259032D02*
X127039793Y-79046152D01*
X127039793Y-79046152D02*
X126993727Y-78919588D01*
X126993727Y-78919588D02*
X126861347Y-78752774D01*
X126861347Y-78752774D02*
X126343457Y-78511278D01*
X126343457Y-78511278D02*
X126130577Y-78517094D01*
X126130577Y-78517094D02*
X126004013Y-78563160D01*
X126004013Y-78563160D02*
X125837199Y-78695541D01*
X125837199Y-78695541D02*
X125716451Y-78954486D01*
X125716451Y-78954486D02*
X125722267Y-79167365D01*
X125722267Y-79167365D02*
X125768333Y-79293930D01*
X125768333Y-79293930D02*
X125900714Y-79460743D01*
X125900714Y-79460743D02*
X126418604Y-79702240D01*
X126418604Y-79702240D02*
X126631483Y-79696423D01*
X126631483Y-79696423D02*
X126758048Y-79650358D01*
X126758048Y-79650358D02*
X126924861Y-79517977D01*
X126924861Y-79517977D02*
X127045609Y-79259032D01*
X126401620Y-80640072D02*
X125193209Y-80076581D01*
X125538469Y-80237579D02*
X125325590Y-80243395D01*
X125325590Y-80243395D02*
X125199026Y-80289461D01*
X125199026Y-80289461D02*
X125032212Y-80421842D01*
X125032212Y-80421842D02*
X124951713Y-80594472D01*
X125757630Y-82021113D02*
X125751814Y-81808233D01*
X125751814Y-81808233D02*
X125705748Y-81681669D01*
X125705748Y-81681669D02*
X125573367Y-81514855D01*
X125573367Y-81514855D02*
X125055477Y-81273359D01*
X125055477Y-81273359D02*
X124842598Y-81279175D01*
X124842598Y-81279175D02*
X124716033Y-81325241D01*
X124716033Y-81325241D02*
X124549220Y-81457622D01*
X124549220Y-81457622D02*
X124428472Y-81716567D01*
X124428472Y-81716567D02*
X124434288Y-81929446D01*
X124434288Y-81929446D02*
X124480354Y-82056011D01*
X124480354Y-82056011D02*
X124612734Y-82222824D01*
X124612734Y-82222824D02*
X125130624Y-82464320D01*
X125130624Y-82464320D02*
X125343504Y-82458504D01*
X125343504Y-82458504D02*
X125470068Y-82412438D01*
X125470068Y-82412438D02*
X125636882Y-82280058D01*
X125636882Y-82280058D02*
X125757630Y-82021113D01*
X123905230Y-82838662D02*
X125113640Y-83402153D01*
X124077860Y-82919161D02*
X123951295Y-82965227D01*
X123951295Y-82965227D02*
X123784482Y-83097607D01*
X123784482Y-83097607D02*
X123663734Y-83356552D01*
X123663734Y-83356552D02*
X123669550Y-83569432D01*
X123669550Y-83569432D02*
X123801931Y-83736246D01*
X123801931Y-83736246D02*
X124751396Y-84178989D01*
X123261240Y-84219703D02*
X122939245Y-84910223D01*
X122536287Y-84196902D02*
X124089957Y-84921391D01*
X124089957Y-84921391D02*
X124222338Y-85088205D01*
X124222338Y-85088205D02*
X124228154Y-85301084D01*
X124228154Y-85301084D02*
X124147656Y-85473714D01*
X123745162Y-86336864D02*
X123739346Y-86123985D01*
X123739346Y-86123985D02*
X123693280Y-85997420D01*
X123693280Y-85997420D02*
X123560899Y-85830607D01*
X123560899Y-85830607D02*
X123043009Y-85589111D01*
X123043009Y-85589111D02*
X122830130Y-85594927D01*
X122830130Y-85594927D02*
X122703565Y-85640993D01*
X122703565Y-85640993D02*
X122536752Y-85773373D01*
X122536752Y-85773373D02*
X122416004Y-86032318D01*
X122416004Y-86032318D02*
X122421820Y-86245198D01*
X122421820Y-86245198D02*
X122467886Y-86371762D01*
X122467886Y-86371762D02*
X122600266Y-86538576D01*
X122600266Y-86538576D02*
X123118156Y-86780072D01*
X123118156Y-86780072D02*
X123331036Y-86774256D01*
X123331036Y-86774256D02*
X123457600Y-86728190D01*
X123457600Y-86728190D02*
X123624414Y-86595809D01*
X123624414Y-86595809D02*
X123745162Y-86336864D01*
X161954334Y-52962009D02*
X161001953Y-52962009D01*
X162144810Y-53533438D02*
X161478144Y-51533438D01*
X161478144Y-51533438D02*
X160811477Y-53533438D01*
X159287667Y-53533438D02*
X159287667Y-52485819D01*
X159287667Y-52485819D02*
X159382905Y-52295342D01*
X159382905Y-52295342D02*
X159573381Y-52200104D01*
X159573381Y-52200104D02*
X159954334Y-52200104D01*
X159954334Y-52200104D02*
X160144810Y-52295342D01*
X159287667Y-53438200D02*
X159478143Y-53533438D01*
X159478143Y-53533438D02*
X159954334Y-53533438D01*
X159954334Y-53533438D02*
X160144810Y-53438200D01*
X160144810Y-53438200D02*
X160240048Y-53247723D01*
X160240048Y-53247723D02*
X160240048Y-53057247D01*
X160240048Y-53057247D02*
X160144810Y-52866771D01*
X160144810Y-52866771D02*
X159954334Y-52771533D01*
X159954334Y-52771533D02*
X159478143Y-52771533D01*
X159478143Y-52771533D02*
X159287667Y-52676295D01*
X158525762Y-52200104D02*
X158049572Y-53533438D01*
X157573381Y-52200104D02*
X158049572Y-53533438D01*
X158049572Y-53533438D02*
X158240048Y-54009628D01*
X158240048Y-54009628D02*
X158335286Y-54104866D01*
X158335286Y-54104866D02*
X158525762Y-54200104D01*
X155954333Y-53533438D02*
X155954333Y-52485819D01*
X155954333Y-52485819D02*
X156049571Y-52295342D01*
X156049571Y-52295342D02*
X156240047Y-52200104D01*
X156240047Y-52200104D02*
X156621000Y-52200104D01*
X156621000Y-52200104D02*
X156811476Y-52295342D01*
X155954333Y-53438200D02*
X156144809Y-53533438D01*
X156144809Y-53533438D02*
X156621000Y-53533438D01*
X156621000Y-53533438D02*
X156811476Y-53438200D01*
X156811476Y-53438200D02*
X156906714Y-53247723D01*
X156906714Y-53247723D02*
X156906714Y-53057247D01*
X156906714Y-53057247D02*
X156811476Y-52866771D01*
X156811476Y-52866771D02*
X156621000Y-52771533D01*
X156621000Y-52771533D02*
X156144809Y-52771533D01*
X156144809Y-52771533D02*
X155954333Y-52676295D01*
X155001952Y-52200104D02*
X155001952Y-53533438D01*
X155001952Y-52390580D02*
X154906714Y-52295342D01*
X154906714Y-52295342D02*
X154716238Y-52200104D01*
X154716238Y-52200104D02*
X154430523Y-52200104D01*
X154430523Y-52200104D02*
X154240047Y-52295342D01*
X154240047Y-52295342D02*
X154144809Y-52485819D01*
X154144809Y-52485819D02*
X154144809Y-53533438D01*
X150240047Y-51438200D02*
X151954332Y-54009628D01*
X148144809Y-51438200D02*
X149859094Y-54009628D01*
X146049570Y-53438200D02*
X145763856Y-53533438D01*
X145763856Y-53533438D02*
X145287665Y-53533438D01*
X145287665Y-53533438D02*
X145097189Y-53438200D01*
X145097189Y-53438200D02*
X145001951Y-53342961D01*
X145001951Y-53342961D02*
X144906713Y-53152485D01*
X144906713Y-53152485D02*
X144906713Y-52962009D01*
X144906713Y-52962009D02*
X145001951Y-52771533D01*
X145001951Y-52771533D02*
X145097189Y-52676295D01*
X145097189Y-52676295D02*
X145287665Y-52581057D01*
X145287665Y-52581057D02*
X145668618Y-52485819D01*
X145668618Y-52485819D02*
X145859094Y-52390580D01*
X145859094Y-52390580D02*
X145954332Y-52295342D01*
X145954332Y-52295342D02*
X146049570Y-52104866D01*
X146049570Y-52104866D02*
X146049570Y-51914390D01*
X146049570Y-51914390D02*
X145954332Y-51723914D01*
X145954332Y-51723914D02*
X145859094Y-51628676D01*
X145859094Y-51628676D02*
X145668618Y-51533438D01*
X145668618Y-51533438D02*
X145192427Y-51533438D01*
X145192427Y-51533438D02*
X144906713Y-51628676D01*
X143192427Y-53438200D02*
X143382903Y-53533438D01*
X143382903Y-53533438D02*
X143763856Y-53533438D01*
X143763856Y-53533438D02*
X143954332Y-53438200D01*
X143954332Y-53438200D02*
X144049570Y-53342961D01*
X144049570Y-53342961D02*
X144144808Y-53152485D01*
X144144808Y-53152485D02*
X144144808Y-52581057D01*
X144144808Y-52581057D02*
X144049570Y-52390580D01*
X144049570Y-52390580D02*
X143954332Y-52295342D01*
X143954332Y-52295342D02*
X143763856Y-52200104D01*
X143763856Y-52200104D02*
X143382903Y-52200104D01*
X143382903Y-52200104D02*
X143192427Y-52295342D01*
X141478141Y-53533438D02*
X141478141Y-52485819D01*
X141478141Y-52485819D02*
X141573379Y-52295342D01*
X141573379Y-52295342D02*
X141763855Y-52200104D01*
X141763855Y-52200104D02*
X142144808Y-52200104D01*
X142144808Y-52200104D02*
X142335284Y-52295342D01*
X141478141Y-53438200D02*
X141668617Y-53533438D01*
X141668617Y-53533438D02*
X142144808Y-53533438D01*
X142144808Y-53533438D02*
X142335284Y-53438200D01*
X142335284Y-53438200D02*
X142430522Y-53247723D01*
X142430522Y-53247723D02*
X142430522Y-53057247D01*
X142430522Y-53057247D02*
X142335284Y-52866771D01*
X142335284Y-52866771D02*
X142144808Y-52771533D01*
X142144808Y-52771533D02*
X141668617Y-52771533D01*
X141668617Y-52771533D02*
X141478141Y-52676295D01*
X140240046Y-53533438D02*
X140430522Y-53438200D01*
X140430522Y-53438200D02*
X140525760Y-53247723D01*
X140525760Y-53247723D02*
X140525760Y-51533438D01*
X138620998Y-53533438D02*
X138620998Y-52485819D01*
X138620998Y-52485819D02*
X138716236Y-52295342D01*
X138716236Y-52295342D02*
X138906712Y-52200104D01*
X138906712Y-52200104D02*
X139287665Y-52200104D01*
X139287665Y-52200104D02*
X139478141Y-52295342D01*
X138620998Y-53438200D02*
X138811474Y-53533438D01*
X138811474Y-53533438D02*
X139287665Y-53533438D01*
X139287665Y-53533438D02*
X139478141Y-53438200D01*
X139478141Y-53438200D02*
X139573379Y-53247723D01*
X139573379Y-53247723D02*
X139573379Y-53057247D01*
X139573379Y-53057247D02*
X139478141Y-52866771D01*
X139478141Y-52866771D02*
X139287665Y-52771533D01*
X139287665Y-52771533D02*
X138811474Y-52771533D01*
X138811474Y-52771533D02*
X138620998Y-52676295D01*
X137668617Y-53533438D02*
X137668617Y-52200104D01*
X137668617Y-52581057D02*
X137573379Y-52390580D01*
X137573379Y-52390580D02*
X137478141Y-52295342D01*
X137478141Y-52295342D02*
X137287665Y-52200104D01*
X137287665Y-52200104D02*
X137097188Y-52200104D01*
D11*
G04 #@! TO.C,G\u002A\u002A\u002A*
G36*
X141616377Y-113165732D02*
G01*
X141961326Y-114231224D01*
X142240514Y-115284248D01*
X142459745Y-116341552D01*
X142506714Y-116615149D01*
X142568346Y-117008047D01*
X142625872Y-117410077D01*
X142676128Y-117796560D01*
X142715945Y-118142820D01*
X142742157Y-118424180D01*
X142751598Y-118615962D01*
X142751598Y-118835159D01*
X142325734Y-118835159D01*
X141899870Y-118835159D01*
X141862120Y-117921803D01*
X141860578Y-117885539D01*
X141838402Y-117483783D01*
X141806991Y-117061317D01*
X141768415Y-116635200D01*
X141724743Y-116222489D01*
X141678045Y-115840241D01*
X141630392Y-115505514D01*
X141583851Y-115235365D01*
X141540494Y-115046851D01*
X141502389Y-114957030D01*
X141477947Y-114943547D01*
X141349272Y-114913554D01*
X141137341Y-114886017D01*
X140864852Y-114863039D01*
X140554504Y-114846719D01*
X140228996Y-114839159D01*
X140105549Y-114839101D01*
X139699430Y-114851313D01*
X139271070Y-114883867D01*
X138811770Y-114938638D01*
X138312838Y-115017500D01*
X137765575Y-115122326D01*
X137161288Y-115254992D01*
X136491281Y-115417371D01*
X135746858Y-115611337D01*
X135353431Y-115719461D01*
X134919323Y-115838765D01*
X133999981Y-116101529D01*
X132980137Y-116401502D01*
X132693220Y-116486400D01*
X131770120Y-116752081D01*
X130932687Y-116979831D01*
X130163759Y-117173387D01*
X129446177Y-117336486D01*
X128762781Y-117472864D01*
X128096413Y-117586259D01*
X127429912Y-117680406D01*
X126746119Y-117759044D01*
X126514441Y-117781578D01*
X125976238Y-117824696D01*
X125421487Y-117857964D01*
X124872146Y-117880787D01*
X124350174Y-117892573D01*
X123877531Y-117892727D01*
X123476174Y-117880657D01*
X123168061Y-117855768D01*
X123118753Y-117849497D01*
X122239673Y-117687503D01*
X121312799Y-117425568D01*
X120344435Y-117066017D01*
X119340884Y-116611174D01*
X118308448Y-116063365D01*
X118224934Y-116015451D01*
X117746735Y-115727027D01*
X117394600Y-115501789D01*
X120773060Y-115501789D01*
X120803860Y-115607569D01*
X120931605Y-115724903D01*
X121163805Y-115829138D01*
X121506129Y-115923537D01*
X121733180Y-115974316D01*
X122078128Y-116044601D01*
X122333296Y-116080017D01*
X122513299Y-116076902D01*
X122632754Y-116031594D01*
X122665816Y-115990599D01*
X123324658Y-115990599D01*
X123324739Y-115997140D01*
X123382468Y-116172360D01*
X123531563Y-116332964D01*
X123748867Y-116453671D01*
X123925436Y-116503454D01*
X124245813Y-116509725D01*
X124544991Y-116411898D01*
X124804669Y-116217533D01*
X125006547Y-115934189D01*
X125121983Y-115630394D01*
X125201341Y-115236514D01*
X125233805Y-114807160D01*
X125218798Y-114377455D01*
X125155741Y-113982527D01*
X125044055Y-113657499D01*
X124967261Y-113523665D01*
X124772185Y-113304113D01*
X124543952Y-113162457D01*
X124469774Y-113143855D01*
X126862101Y-113143855D01*
X126862417Y-113153447D01*
X126907298Y-113301425D01*
X127015821Y-113502228D01*
X127170385Y-113729742D01*
X127353391Y-113957851D01*
X127547238Y-114160443D01*
X127726111Y-114327964D01*
X127614018Y-114547685D01*
X127593514Y-114590854D01*
X127518582Y-114777229D01*
X127508072Y-114807160D01*
X127433215Y-115020352D01*
X127352167Y-115279023D01*
X127346843Y-115297319D01*
X127260360Y-115653249D01*
X127233880Y-115926702D01*
X127267555Y-116133823D01*
X127361532Y-116290753D01*
X127364202Y-116293671D01*
X127518697Y-116386114D01*
X127696053Y-116377468D01*
X127865381Y-116269063D01*
X127885040Y-116246958D01*
X127946433Y-116142813D01*
X128004229Y-115979186D01*
X128064115Y-115737506D01*
X128131779Y-115399200D01*
X128178586Y-115152927D01*
X128225717Y-114926938D01*
X128264915Y-114782808D01*
X128302798Y-114702362D01*
X128345990Y-114667424D01*
X128401109Y-114659817D01*
X128488173Y-114682051D01*
X128559984Y-114767885D01*
X128633804Y-114942402D01*
X128749915Y-115204637D01*
X128916739Y-115469005D01*
X129105375Y-115683065D01*
X129300106Y-115832276D01*
X129485216Y-115902097D01*
X129644989Y-115877986D01*
X129720056Y-115817225D01*
X129752161Y-115719461D01*
X129729200Y-115573284D01*
X129648396Y-115362459D01*
X129506975Y-115070747D01*
X129456596Y-114970653D01*
X129253394Y-114515361D01*
X129110074Y-114079000D01*
X129014311Y-113617362D01*
X128953782Y-113086238D01*
X128941239Y-112942109D01*
X128900853Y-112606314D01*
X128849349Y-112368376D01*
X128781578Y-112214945D01*
X128692394Y-112132676D01*
X128666768Y-112127261D01*
X129536895Y-112127261D01*
X129540066Y-112325632D01*
X129620809Y-112481017D01*
X129643902Y-112502873D01*
X129757135Y-112563933D01*
X129882802Y-112537963D01*
X130048185Y-112421142D01*
X130208611Y-112319956D01*
X130371375Y-112307449D01*
X130528160Y-112403403D01*
X130689852Y-112611038D01*
X130705597Y-112636218D01*
X130926652Y-113085706D01*
X131070095Y-113575710D01*
X131122419Y-114060949D01*
X131119797Y-114203918D01*
X131082169Y-114476313D01*
X130990534Y-114665053D01*
X130832764Y-114788709D01*
X130596728Y-114865855D01*
X130528335Y-114882022D01*
X130359259Y-114947303D01*
X130293127Y-115029917D01*
X130284605Y-115132199D01*
X130345007Y-115332958D01*
X130507588Y-115486771D01*
X130531823Y-115500644D01*
X130719806Y-115571492D01*
X130923888Y-115571205D01*
X131182420Y-115500568D01*
X131348857Y-115422358D01*
X131590098Y-115211237D01*
X131765000Y-114909846D01*
X131871228Y-114522842D01*
X131906449Y-114054885D01*
X131894200Y-113782343D01*
X131821728Y-113312416D01*
X131692007Y-112860409D01*
X131514047Y-112445806D01*
X131296861Y-112088090D01*
X131119642Y-111886557D01*
X132372617Y-111886557D01*
X132376165Y-112130986D01*
X132415602Y-112679503D01*
X132502066Y-113264431D01*
X132639853Y-113918451D01*
X132673351Y-114054885D01*
X132704564Y-114182013D01*
X132764062Y-114383869D01*
X132823270Y-114522530D01*
X132893669Y-114624385D01*
X132986740Y-114715826D01*
X132999658Y-114726992D01*
X133199680Y-114854866D01*
X133378683Y-114887744D01*
X133519452Y-114822191D01*
X133535924Y-114804041D01*
X133577143Y-114718084D01*
X133580794Y-114590946D01*
X133545266Y-114400370D01*
X133468950Y-114124098D01*
X133461617Y-114099285D01*
X133408170Y-113904044D01*
X133376115Y-113760271D01*
X133372163Y-113697547D01*
X133421460Y-113682905D01*
X133558055Y-113660411D01*
X133747094Y-113637490D01*
X133940378Y-113620697D01*
X134056136Y-113626477D01*
X134121668Y-113663242D01*
X134169687Y-113738839D01*
X134202532Y-113793252D01*
X134312100Y-113939293D01*
X134448535Y-114094406D01*
X134588000Y-114218234D01*
X134763792Y-114307346D01*
X134907054Y-114303011D01*
X135003491Y-114207005D01*
X135038813Y-114021102D01*
X135035620Y-114004209D01*
X134991285Y-113892771D01*
X134901246Y-113702338D01*
X134773776Y-113449457D01*
X134617147Y-113150674D01*
X134439629Y-112822535D01*
X134410817Y-112770039D01*
X134216225Y-112414391D01*
X134027212Y-112067216D01*
X133856387Y-111751787D01*
X133716359Y-111491375D01*
X133619736Y-111309250D01*
X133443460Y-111007783D01*
X133252602Y-110771669D01*
X133115641Y-110676377D01*
X134824330Y-110676377D01*
X134862100Y-110936626D01*
X134943651Y-111285874D01*
X134968183Y-111379783D01*
X135061545Y-111720983D01*
X135167201Y-112087429D01*
X135278966Y-112459550D01*
X135390654Y-112817774D01*
X135496081Y-113142526D01*
X135589061Y-113414236D01*
X135663409Y-113613329D01*
X135712939Y-113720234D01*
X135718766Y-113728908D01*
X135833896Y-113852709D01*
X135984316Y-113966478D01*
X136079447Y-114018683D01*
X136088215Y-114021102D01*
X136262768Y-114069261D01*
X136397985Y-114018243D01*
X136493531Y-113863931D01*
X136505609Y-113820488D01*
X136512088Y-113674670D01*
X136485967Y-113454368D01*
X136425560Y-113141694D01*
X136389855Y-112969619D01*
X136349324Y-112756283D01*
X136325572Y-112606369D01*
X136322877Y-112544757D01*
X136392013Y-112504702D01*
X136535059Y-112443051D01*
X136720499Y-112371999D01*
X136918345Y-112302114D01*
X137098612Y-112243964D01*
X137231313Y-112208119D01*
X137286462Y-112205146D01*
X137293546Y-112220504D01*
X137346417Y-112320462D01*
X137437048Y-112484830D01*
X137550925Y-112687155D01*
X137662688Y-112869969D01*
X137890610Y-113156020D01*
X138119721Y-113327135D01*
X138350828Y-113384018D01*
X138401142Y-113381214D01*
X138539368Y-113324190D01*
X138613731Y-113189771D01*
X138624730Y-112972779D01*
X138572867Y-112668037D01*
X138458644Y-112270364D01*
X138441063Y-112216092D01*
X138181929Y-111326617D01*
X137967775Y-110397504D01*
X137898112Y-110120979D01*
X137787620Y-109863217D01*
X137651446Y-109714830D01*
X137486874Y-109673160D01*
X137291190Y-109735553D01*
X137231085Y-109779573D01*
X137109205Y-109946584D01*
X137010663Y-110183103D01*
X136944245Y-110457409D01*
X136918740Y-110737786D01*
X136942937Y-110992512D01*
X136952538Y-111037899D01*
X136968257Y-111202934D01*
X136931474Y-111286960D01*
X136930539Y-111287684D01*
X136847304Y-111332086D01*
X136701543Y-111394810D01*
X136527103Y-111463102D01*
X136357830Y-111524207D01*
X136227569Y-111565372D01*
X136170168Y-111573842D01*
X136170151Y-111573820D01*
X136141297Y-111517870D01*
X136072759Y-111378310D01*
X135974772Y-111176139D01*
X135857568Y-110932356D01*
X135737802Y-110687993D01*
X135628733Y-110486365D01*
X135538262Y-110353344D01*
X135452113Y-110268400D01*
X135356011Y-110211001D01*
X135318969Y-110193508D01*
X135195749Y-110147397D01*
X135106500Y-110159354D01*
X134994844Y-110232779D01*
X134982843Y-110241922D01*
X134883789Y-110347794D01*
X134831256Y-110486356D01*
X134824330Y-110676377D01*
X133115641Y-110676377D01*
X133065313Y-110641361D01*
X132876289Y-110611883D01*
X132698679Y-110672207D01*
X132554567Y-110826182D01*
X132453303Y-111077070D01*
X132393212Y-111429113D01*
X132372617Y-111886557D01*
X131119642Y-111886557D01*
X131049460Y-111806746D01*
X130780855Y-111621257D01*
X130652654Y-111574700D01*
X130381672Y-111533500D01*
X130104735Y-111547261D01*
X129875728Y-111616278D01*
X129724028Y-111734669D01*
X129601485Y-111919181D01*
X129536895Y-112127261D01*
X128666768Y-112127261D01*
X128576650Y-112108218D01*
X128574881Y-112108229D01*
X128431888Y-112159539D01*
X128371781Y-112213570D01*
X128280394Y-112295718D01*
X128252195Y-112329557D01*
X128190694Y-112414106D01*
X128154749Y-112501637D01*
X128139712Y-112620348D01*
X128140939Y-112798435D01*
X128153783Y-113064097D01*
X128163616Y-113221374D01*
X128184528Y-113464687D01*
X128207976Y-113655038D01*
X128230496Y-113760958D01*
X128221913Y-113776928D01*
X128147972Y-113734414D01*
X128017163Y-113631107D01*
X127844532Y-113478034D01*
X127660952Y-113314149D01*
X127375880Y-113090555D01*
X127152516Y-112961407D01*
X126991803Y-112927028D01*
X126894683Y-112987737D01*
X126862101Y-113143855D01*
X124469774Y-113143855D01*
X124302719Y-113101962D01*
X124068642Y-113125895D01*
X123861877Y-113237522D01*
X123765209Y-113360461D01*
X123702580Y-113440110D01*
X123638970Y-113591516D01*
X123618612Y-113763994D01*
X123678396Y-113866012D01*
X123809793Y-113886942D01*
X124004277Y-113816152D01*
X124007964Y-113814169D01*
X124147449Y-113749223D01*
X124246054Y-113743835D01*
X124359148Y-113794651D01*
X124460447Y-113866884D01*
X124587447Y-114042420D01*
X124658600Y-114295147D01*
X124679576Y-114640019D01*
X124679496Y-114651727D01*
X124664612Y-114925523D01*
X124616786Y-115145315D01*
X124523586Y-115369220D01*
X124504823Y-115406876D01*
X124363905Y-115635225D01*
X124211474Y-115764242D01*
X124022475Y-115807581D01*
X123771854Y-115778896D01*
X123585336Y-115749804D01*
X123429313Y-115763447D01*
X123348021Y-115841060D01*
X123324658Y-115990599D01*
X122665816Y-115990599D01*
X122706276Y-115940430D01*
X122748482Y-115799750D01*
X122773988Y-115605892D01*
X122775435Y-115591525D01*
X122799981Y-115372433D01*
X122835996Y-115078442D01*
X122878866Y-114746251D01*
X122923980Y-114412559D01*
X122954847Y-114185779D01*
X122999135Y-113827733D01*
X123023568Y-113558262D01*
X123028127Y-113360461D01*
X123012791Y-113217422D01*
X122977540Y-113112237D01*
X122922355Y-113027999D01*
X122883347Y-112983403D01*
X122796386Y-112926757D01*
X122704889Y-112954020D01*
X122673042Y-112977381D01*
X122623149Y-113045005D01*
X122582590Y-113099978D01*
X122501824Y-113304707D01*
X122429283Y-113598334D01*
X122363511Y-113987624D01*
X122303047Y-114479341D01*
X122246434Y-115080250D01*
X122213600Y-115471689D01*
X121975245Y-115471689D01*
X121874416Y-115467645D01*
X121644130Y-115443385D01*
X121411571Y-115404495D01*
X121182334Y-115371360D01*
X120967964Y-115374514D01*
X120825037Y-115418981D01*
X120773060Y-115501789D01*
X117394600Y-115501789D01*
X117207491Y-115382107D01*
X116629863Y-114996571D01*
X116036515Y-114586300D01*
X115450106Y-114167174D01*
X114893299Y-113755075D01*
X114477905Y-113434650D01*
X116675034Y-113434650D01*
X116681510Y-113652899D01*
X116690309Y-113682219D01*
X116800422Y-113869500D01*
X116989650Y-114061651D01*
X117230519Y-114234656D01*
X117495556Y-114364500D01*
X117732914Y-114439891D01*
X117956255Y-114479979D01*
X118114957Y-114471597D01*
X118189319Y-114413355D01*
X118194223Y-114397165D01*
X118234622Y-114259802D01*
X118274119Y-114123438D01*
X118997389Y-114123438D01*
X119016436Y-114519275D01*
X119092700Y-114842366D01*
X119224049Y-115082207D01*
X119408352Y-115228298D01*
X119591188Y-115284315D01*
X119885030Y-115287114D01*
X120175934Y-115202347D01*
X120432925Y-115040600D01*
X120625029Y-114812460D01*
X120662775Y-114738750D01*
X120751951Y-114521874D01*
X120851290Y-114238668D01*
X120951197Y-113920492D01*
X121042074Y-113598703D01*
X121114326Y-113304660D01*
X121158354Y-113069721D01*
X121161500Y-113045005D01*
X121158251Y-112817532D01*
X121086674Y-112677738D01*
X120948919Y-112630136D01*
X120921331Y-112631747D01*
X120829045Y-112669109D01*
X120746071Y-112766268D01*
X120665520Y-112936909D01*
X120580502Y-113194717D01*
X120484128Y-113553377D01*
X120383385Y-113938193D01*
X120286838Y-114267795D01*
X120203299Y-114502672D01*
X120129062Y-114653107D01*
X120060422Y-114729385D01*
X119930705Y-114772735D01*
X119778256Y-114751894D01*
X119673274Y-114663629D01*
X119637617Y-114552821D01*
X119616232Y-114318256D01*
X119626116Y-114006574D01*
X119666399Y-113637546D01*
X119736213Y-113230942D01*
X119791201Y-112920546D01*
X119815885Y-112651367D01*
X119797018Y-112471700D01*
X119733310Y-112371365D01*
X119623473Y-112340182D01*
X119493889Y-112377827D01*
X119367681Y-112508780D01*
X119255292Y-112738922D01*
X119154076Y-113073801D01*
X119061389Y-113518964D01*
X119037691Y-113665357D01*
X118997389Y-114123438D01*
X118274119Y-114123438D01*
X118297649Y-114042198D01*
X118375887Y-113770280D01*
X118461922Y-113469970D01*
X118548336Y-113167195D01*
X118627715Y-112887878D01*
X118692642Y-112657944D01*
X118735700Y-112503317D01*
X118778920Y-112336306D01*
X118797125Y-112213570D01*
X118779731Y-112134530D01*
X118725935Y-112062992D01*
X118654293Y-111997234D01*
X118446692Y-111863399D01*
X118186441Y-111740207D01*
X117914831Y-111645870D01*
X117673153Y-111598604D01*
X117564864Y-111591039D01*
X117423176Y-111596429D01*
X117330822Y-111639164D01*
X117244871Y-111732685D01*
X117181183Y-111845988D01*
X117125090Y-112075279D01*
X117125351Y-112321102D01*
X117185942Y-112529693D01*
X117193909Y-112544911D01*
X117221935Y-112637393D01*
X117172002Y-112680337D01*
X117016215Y-112775815D01*
X116860578Y-112960035D01*
X116740787Y-113191671D01*
X116675034Y-113434650D01*
X114477905Y-113434650D01*
X114388754Y-113365881D01*
X113959133Y-113015475D01*
X113695267Y-112790946D01*
X113291084Y-112442057D01*
X112951120Y-112141862D01*
X112680600Y-111895166D01*
X112484749Y-111706778D01*
X112368793Y-111581505D01*
X112337958Y-111524152D01*
X112359686Y-111515478D01*
X112481590Y-111500692D01*
X112697101Y-111488231D01*
X112991651Y-111478648D01*
X113350670Y-111472493D01*
X113759587Y-111470319D01*
X114028761Y-111469638D01*
X114389356Y-111466396D01*
X114697438Y-111460851D01*
X114937142Y-111453412D01*
X115092600Y-111444489D01*
X115147946Y-111434491D01*
X115138357Y-111409684D01*
X115083947Y-111294921D01*
X114987935Y-111101046D01*
X114857746Y-110842852D01*
X114700807Y-110535133D01*
X114524544Y-110192683D01*
X114415376Y-109979493D01*
X114254049Y-109656201D01*
X114119431Y-109376066D01*
X114018409Y-109153926D01*
X113957867Y-109004622D01*
X113944691Y-108942990D01*
X113985911Y-108938953D01*
X114104632Y-108977880D01*
X114263641Y-109058124D01*
X114336675Y-109098680D01*
X114532515Y-109202029D01*
X114793286Y-109335548D01*
X115093809Y-109486402D01*
X115408904Y-109641762D01*
X116180228Y-109998232D01*
X117453117Y-110500973D01*
X118734624Y-110903761D01*
X120017706Y-111205878D01*
X121295324Y-111406601D01*
X122560436Y-111505212D01*
X123806003Y-111500989D01*
X125024984Y-111393213D01*
X126210337Y-111181162D01*
X127355023Y-110864116D01*
X127557897Y-110793710D01*
X127920217Y-110657443D01*
X128326128Y-110495315D01*
X128739386Y-110321920D01*
X129123745Y-110151856D01*
X130266078Y-109651346D01*
X131348992Y-109223355D01*
X132367292Y-108872086D01*
X133330063Y-108595213D01*
X134246388Y-108390412D01*
X135125353Y-108255358D01*
X135976040Y-108187725D01*
X136807535Y-108185189D01*
X137294789Y-108209290D01*
X137729040Y-108249330D01*
X138108285Y-108309140D01*
X138463696Y-108393706D01*
X138826449Y-108508012D01*
X138873039Y-108523947D01*
X139062089Y-108578689D01*
X139184533Y-108588529D01*
X139272635Y-108557013D01*
X139278483Y-108553457D01*
X139346244Y-108529427D01*
X139416695Y-108544722D01*
X139496341Y-108608794D01*
X139591688Y-108731092D01*
X139709241Y-108921066D01*
X139855508Y-109188167D01*
X140036992Y-109541846D01*
X140260202Y-109991552D01*
X140705992Y-110930339D01*
X141199867Y-112071020D01*
X141542963Y-112972779D01*
X141616377Y-113165732D01*
G37*
G36*
X117672388Y-113192209D02*
G01*
X117833690Y-113253264D01*
X117943308Y-113334118D01*
X117969112Y-113426340D01*
X117967549Y-113431962D01*
X117935681Y-113563761D01*
X117900022Y-113731963D01*
X117895641Y-113753640D01*
X117861951Y-113896462D01*
X117834599Y-113977906D01*
X117816702Y-113990403D01*
X117720037Y-113980338D01*
X117574360Y-113924837D01*
X117411747Y-113839827D01*
X117264274Y-113741232D01*
X117164016Y-113644976D01*
X117156226Y-113633010D01*
X117122788Y-113498468D01*
X117135124Y-113338896D01*
X117189224Y-113221643D01*
X117199681Y-113212180D01*
X117323253Y-113163234D01*
X117491532Y-113159388D01*
X117672388Y-113192209D01*
G37*
G36*
X133046163Y-111673778D02*
G01*
X133138945Y-111782680D01*
X133266814Y-111953040D01*
X133414217Y-112164943D01*
X133444577Y-112209975D01*
X133590990Y-112426837D01*
X133676174Y-112567636D01*
X133699200Y-112652169D01*
X133659144Y-112700231D01*
X133555077Y-112731619D01*
X133386073Y-112766129D01*
X133366265Y-112770289D01*
X133179421Y-112799973D01*
X133073287Y-112777552D01*
X133019256Y-112683841D01*
X132988719Y-112499657D01*
X132970853Y-112327849D01*
X132954778Y-112061945D01*
X132955876Y-111844650D01*
X132973659Y-111698065D01*
X133007637Y-111644292D01*
X133046163Y-111673778D01*
G37*
G36*
X117832085Y-112124871D02*
G01*
X117998242Y-112161592D01*
X118174192Y-112216239D01*
X118329891Y-112276449D01*
X118206176Y-112569274D01*
X118152854Y-112687566D01*
X118085561Y-112813296D01*
X118043438Y-112862100D01*
X118001968Y-112840193D01*
X117894298Y-112758880D01*
X117752039Y-112638136D01*
X117617343Y-112514020D01*
X117547468Y-112425422D01*
X117537535Y-112349348D01*
X117572670Y-112253943D01*
X117615590Y-112173702D01*
X117694540Y-112117496D01*
X117832085Y-112124871D01*
G37*
G36*
X153517087Y-90753492D02*
G01*
X153527044Y-91266302D01*
X153524657Y-91819983D01*
X153523955Y-91864976D01*
X153511117Y-92346813D01*
X153488775Y-92788229D01*
X153456379Y-93191798D01*
X153413381Y-93560097D01*
X153359233Y-93895702D01*
X153293387Y-94201190D01*
X153259829Y-94320626D01*
X153215294Y-94479134D01*
X153124405Y-94732113D01*
X153020173Y-94962702D01*
X152902048Y-95173475D01*
X152769483Y-95367011D01*
X152665501Y-95494459D01*
X152492545Y-95668293D01*
X152295822Y-95824007D01*
X152073234Y-95962362D01*
X151822679Y-96084117D01*
X151542056Y-96190033D01*
X151229267Y-96280870D01*
X150882209Y-96357387D01*
X150498783Y-96420345D01*
X150076887Y-96470504D01*
X149614422Y-96508624D01*
X149576005Y-96510807D01*
X149461830Y-96514911D01*
X149313740Y-96517964D01*
X149137738Y-96520010D01*
X148939829Y-96521097D01*
X148726016Y-96521269D01*
X148502302Y-96520572D01*
X148274692Y-96519053D01*
X148049189Y-96516757D01*
X147831797Y-96513730D01*
X147628519Y-96510018D01*
X147445360Y-96505667D01*
X147288323Y-96500722D01*
X147163411Y-96495230D01*
X147076629Y-96489237D01*
X147056530Y-96487318D01*
X146610520Y-96436694D01*
X146204997Y-96373755D01*
X145837781Y-96297172D01*
X145506693Y-96205617D01*
X145209554Y-96097763D01*
X144944183Y-95972282D01*
X144708401Y-95827846D01*
X144500027Y-95663126D01*
X144316884Y-95476795D01*
X144156790Y-95267526D01*
X144017566Y-95033989D01*
X143897032Y-94774858D01*
X143793010Y-94488804D01*
X143739715Y-94311602D01*
X145321408Y-94311602D01*
X145336426Y-94422734D01*
X145390521Y-94528066D01*
X145483848Y-94620560D01*
X145546149Y-94666724D01*
X148474030Y-94670969D01*
X148779414Y-94671343D01*
X149228551Y-94671611D01*
X149637828Y-94671485D01*
X150006816Y-94670969D01*
X150335089Y-94670065D01*
X150622219Y-94668775D01*
X150867778Y-94667103D01*
X151071341Y-94665051D01*
X151232478Y-94662622D01*
X151350764Y-94659817D01*
X151425770Y-94656640D01*
X151457070Y-94653093D01*
X151508004Y-94625381D01*
X151563988Y-94582645D01*
X151607654Y-94534703D01*
X151662808Y-94431192D01*
X151679096Y-94320626D01*
X151657336Y-94210522D01*
X151598346Y-94108397D01*
X151502945Y-94021767D01*
X151428486Y-93971590D01*
X148500000Y-93971590D01*
X145571514Y-93971590D01*
X145497055Y-94021767D01*
X145407981Y-94100094D01*
X145345311Y-94201709D01*
X145321408Y-94311602D01*
X143739715Y-94311602D01*
X143736131Y-94299685D01*
X143676306Y-94064753D01*
X143625326Y-93817344D01*
X143582657Y-93552978D01*
X143547765Y-93267175D01*
X143520117Y-92955454D01*
X143499180Y-92613335D01*
X143484420Y-92236338D01*
X143475304Y-91819983D01*
X143473692Y-91695549D01*
X143472280Y-91222013D01*
X143479181Y-90787411D01*
X143494399Y-90395251D01*
X144973222Y-90395251D01*
X144974034Y-90500930D01*
X145001466Y-90593689D01*
X145006378Y-90602754D01*
X145070770Y-90684275D01*
X145156025Y-90749107D01*
X145245654Y-90784375D01*
X145264043Y-90787813D01*
X145300969Y-90793674D01*
X145335687Y-90795467D01*
X145371572Y-90791110D01*
X145412002Y-90778522D01*
X145460353Y-90755620D01*
X145520003Y-90720322D01*
X145563082Y-90691471D01*
X146380516Y-90691471D01*
X146386522Y-92043045D01*
X146386900Y-92127741D01*
X146388143Y-92393435D01*
X146389378Y-92619384D01*
X146390731Y-92808992D01*
X146392325Y-92965666D01*
X146394285Y-93092811D01*
X146396734Y-93193831D01*
X146399798Y-93272132D01*
X146403600Y-93331120D01*
X146408264Y-93374200D01*
X146413915Y-93404778D01*
X146420676Y-93426258D01*
X146428672Y-93442045D01*
X146438027Y-93455546D01*
X146485066Y-93509163D01*
X146541205Y-93559537D01*
X146603646Y-93590102D01*
X146697395Y-93609179D01*
X146795444Y-93609238D01*
X146878019Y-93588575D01*
X146918155Y-93566407D01*
X147005788Y-93488567D01*
X147064125Y-93390874D01*
X147067564Y-93374238D01*
X147072902Y-93310859D01*
X147077417Y-93203713D01*
X147081108Y-93052742D01*
X147083977Y-92857883D01*
X147086026Y-92619078D01*
X147087254Y-92336266D01*
X147087663Y-92009385D01*
X147087663Y-90691471D01*
X148145938Y-90691471D01*
X148151944Y-92043045D01*
X148152322Y-92127741D01*
X148153564Y-92393435D01*
X148154799Y-92619384D01*
X148156152Y-92808992D01*
X148157746Y-92965666D01*
X148159706Y-93092811D01*
X148162156Y-93193831D01*
X148165219Y-93272132D01*
X148169021Y-93331120D01*
X148173685Y-93374200D01*
X148179336Y-93404778D01*
X148186097Y-93426258D01*
X148194094Y-93442045D01*
X148203449Y-93455546D01*
X148250487Y-93509163D01*
X148306627Y-93559537D01*
X148369068Y-93590102D01*
X148462816Y-93609179D01*
X148560865Y-93609238D01*
X148643441Y-93588575D01*
X148683576Y-93566407D01*
X148771210Y-93488567D01*
X148829547Y-93390874D01*
X148832985Y-93374238D01*
X148838324Y-93310859D01*
X148842838Y-93203713D01*
X148846530Y-93052742D01*
X148849399Y-92857883D01*
X148851447Y-92619078D01*
X148852675Y-92336266D01*
X148853084Y-92009385D01*
X148853084Y-90691471D01*
X149911359Y-90691471D01*
X149917365Y-92043045D01*
X149917743Y-92127741D01*
X149918985Y-92393435D01*
X149920221Y-92619384D01*
X149921573Y-92808992D01*
X149923167Y-92965666D01*
X149925127Y-93092811D01*
X149927577Y-93193831D01*
X149930641Y-93272132D01*
X149934442Y-93331120D01*
X149939107Y-93374200D01*
X149944757Y-93404778D01*
X149951519Y-93426258D01*
X149959515Y-93442045D01*
X149968870Y-93455546D01*
X150015909Y-93509163D01*
X150072048Y-93559537D01*
X150134489Y-93590102D01*
X150228237Y-93609179D01*
X150326286Y-93609238D01*
X150408862Y-93588575D01*
X150448998Y-93566407D01*
X150536631Y-93488567D01*
X150594968Y-93390874D01*
X150598406Y-93374238D01*
X150603745Y-93310859D01*
X150608260Y-93203713D01*
X150611951Y-93052742D01*
X150614820Y-92857883D01*
X150616868Y-92619078D01*
X150618097Y-92336266D01*
X150618506Y-92009385D01*
X150618506Y-90690019D01*
X150568328Y-90615561D01*
X150564318Y-90609700D01*
X150475324Y-90514362D01*
X150372348Y-90457610D01*
X150262460Y-90439435D01*
X150152730Y-90459828D01*
X150050228Y-90518782D01*
X149962026Y-90616287D01*
X149912338Y-90690019D01*
X149911359Y-90691471D01*
X148853084Y-90691471D01*
X148853084Y-90690019D01*
X148802907Y-90615561D01*
X148798896Y-90609700D01*
X148709902Y-90514362D01*
X148606926Y-90457610D01*
X148497038Y-90439435D01*
X148387308Y-90459828D01*
X148284807Y-90518782D01*
X148196604Y-90616287D01*
X148146916Y-90690019D01*
X148145938Y-90691471D01*
X147087663Y-90691471D01*
X147087663Y-90690019D01*
X147037485Y-90615561D01*
X147033475Y-90609700D01*
X146944481Y-90514362D01*
X146841505Y-90457610D01*
X146731617Y-90439435D01*
X146621887Y-90459828D01*
X146519386Y-90518782D01*
X146431183Y-90616287D01*
X146380516Y-90691471D01*
X145563082Y-90691471D01*
X145594327Y-90670545D01*
X145686703Y-90604208D01*
X145800507Y-90519228D01*
X145939116Y-90413523D01*
X146105908Y-90285011D01*
X146304257Y-90131609D01*
X146333350Y-90109142D01*
X146478375Y-89998138D01*
X146632036Y-89881917D01*
X146783493Y-89768597D01*
X146921912Y-89666297D01*
X147036453Y-89583134D01*
X147088384Y-89546142D01*
X147269817Y-89419723D01*
X147453604Y-89295654D01*
X147635485Y-89176515D01*
X147811204Y-89064887D01*
X147976502Y-88963352D01*
X148127122Y-88874489D01*
X148258805Y-88800881D01*
X148367294Y-88745109D01*
X148448330Y-88709752D01*
X148497657Y-88697393D01*
X148517499Y-88700426D01*
X148581718Y-88723269D01*
X148674318Y-88766019D01*
X148789698Y-88825720D01*
X148922255Y-88899413D01*
X149066389Y-88984140D01*
X149216497Y-89076945D01*
X149301095Y-89131010D01*
X149449207Y-89227911D01*
X149601510Y-89330620D01*
X149761780Y-89441868D01*
X149933792Y-89564388D01*
X150121319Y-89700911D01*
X150328136Y-89854169D01*
X150558020Y-90026895D01*
X150814743Y-90221821D01*
X151102082Y-90441679D01*
X151165892Y-90490401D01*
X151280436Y-90576587D01*
X151382961Y-90652127D01*
X151435836Y-90690019D01*
X151467767Y-90712902D01*
X151529155Y-90754793D01*
X151561424Y-90773679D01*
X151610263Y-90787763D01*
X151723231Y-90790322D01*
X151832233Y-90755671D01*
X151927644Y-90687826D01*
X151999838Y-90590800D01*
X152012539Y-90560736D01*
X152029361Y-90463490D01*
X152021100Y-90360168D01*
X151988523Y-90272310D01*
X151960969Y-90237801D01*
X151896676Y-90174026D01*
X151802273Y-90089679D01*
X151681108Y-89987398D01*
X151536527Y-89869826D01*
X151371877Y-89739601D01*
X151190504Y-89599366D01*
X150995756Y-89451760D01*
X150790979Y-89299424D01*
X150579521Y-89145000D01*
X150364726Y-88991126D01*
X150271714Y-88925484D01*
X149963166Y-88712716D01*
X149679191Y-88524925D01*
X149421374Y-88363085D01*
X149191305Y-88228170D01*
X148990570Y-88121157D01*
X148820758Y-88043019D01*
X148691553Y-87997952D01*
X148567185Y-87974127D01*
X148442472Y-87973309D01*
X148310811Y-87996675D01*
X148165600Y-88045402D01*
X148000233Y-88120671D01*
X147808109Y-88223657D01*
X147800358Y-88228043D01*
X147657559Y-88312246D01*
X147494180Y-88414078D01*
X147313806Y-88530913D01*
X147120023Y-88660126D01*
X146916417Y-88799091D01*
X146706572Y-88945181D01*
X146494074Y-89095771D01*
X146282509Y-89248234D01*
X146075462Y-89399946D01*
X145876519Y-89548279D01*
X145689265Y-89690609D01*
X145517285Y-89824309D01*
X145364166Y-89946753D01*
X145233492Y-90055316D01*
X145128849Y-90147371D01*
X145053822Y-90220293D01*
X145011997Y-90271455D01*
X144998338Y-90297843D01*
X144973222Y-90395251D01*
X143494399Y-90395251D01*
X143494674Y-90388158D01*
X143519038Y-90020672D01*
X143552552Y-89681367D01*
X143595496Y-89366659D01*
X143648148Y-89072964D01*
X143710789Y-88796698D01*
X143725035Y-88741417D01*
X143818942Y-88429488D01*
X143929841Y-88146020D01*
X144059686Y-87889767D01*
X144210431Y-87659484D01*
X144384031Y-87453926D01*
X144582440Y-87271847D01*
X144807611Y-87112002D01*
X145061499Y-86973147D01*
X145346058Y-86854034D01*
X145663242Y-86753420D01*
X146015005Y-86670059D01*
X146403300Y-86602705D01*
X146830083Y-86550114D01*
X147297307Y-86511039D01*
X147321276Y-86509502D01*
X147481035Y-86501723D01*
X147675672Y-86495534D01*
X147897344Y-86490934D01*
X148138208Y-86487922D01*
X148390418Y-86486498D01*
X148646131Y-86486661D01*
X148897503Y-86488411D01*
X149136689Y-86491746D01*
X149355845Y-86496666D01*
X149547128Y-86503170D01*
X149702693Y-86511258D01*
X150110123Y-86544103D01*
X150522822Y-86592371D01*
X150897664Y-86653767D01*
X151237086Y-86728918D01*
X151543521Y-86818454D01*
X151819407Y-86923006D01*
X152067178Y-87043202D01*
X152289271Y-87179671D01*
X152370024Y-87240110D01*
X152503953Y-87356645D01*
X152637863Y-87489928D01*
X152759025Y-87627008D01*
X152854711Y-87754938D01*
X152961809Y-87932941D01*
X153079888Y-88175610D01*
X153183541Y-88446522D01*
X153273028Y-88747255D01*
X153348610Y-89079389D01*
X153410547Y-89444501D01*
X153459099Y-89844170D01*
X153494525Y-90279974D01*
X153503269Y-90463490D01*
X153517087Y-90753492D01*
G37*
G04 #@! TD*
%LPC*%
D12*
G04 #@! TO.C,SW1*
X131121000Y-80629000D03*
X137621000Y-80629000D03*
X131121000Y-85129000D03*
X137621000Y-85129000D03*
G04 #@! TD*
G04 #@! TO.C,SW2*
X122121000Y-91629000D03*
X128621000Y-91629000D03*
X122121000Y-96129000D03*
X128621000Y-96129000D03*
G04 #@! TD*
D13*
G04 #@! TO.C,R2*
X144581000Y-84749000D03*
D14*
X152201000Y-84749000D03*
G04 #@! TD*
D13*
G04 #@! TO.C,R3*
X144581000Y-88799000D03*
D14*
X152201000Y-88799000D03*
G04 #@! TD*
D13*
G04 #@! TO.C,R5*
X144581000Y-96899000D03*
D14*
X152201000Y-96899000D03*
G04 #@! TD*
D13*
G04 #@! TO.C,R6*
X144581000Y-100949000D03*
D14*
X152201000Y-100949000D03*
G04 #@! TD*
D13*
G04 #@! TO.C,R8*
X144581000Y-109049000D03*
D14*
X152201000Y-109049000D03*
G04 #@! TD*
D13*
G04 #@! TO.C,R7*
X144581000Y-104999000D03*
D14*
X152201000Y-104999000D03*
G04 #@! TD*
D13*
G04 #@! TO.C,R4*
X144581000Y-92849000D03*
D14*
X152201000Y-92849000D03*
G04 #@! TD*
D12*
G04 #@! TO.C,SW5*
X138621000Y-107129000D03*
X132121000Y-107129000D03*
X138621000Y-102629000D03*
X132121000Y-102629000D03*
G04 #@! TD*
G04 #@! TO.C,SW4*
X127121000Y-107129000D03*
X120621000Y-107129000D03*
X127121000Y-102629000D03*
X120621000Y-102629000D03*
G04 #@! TD*
G04 #@! TO.C,SW3*
X140121000Y-96129000D03*
X133621000Y-96129000D03*
X140121000Y-91629000D03*
X133621000Y-91629000D03*
G04 #@! TD*
D14*
G04 #@! TO.C,R1*
X152201000Y-80699000D03*
D13*
X144581000Y-80699000D03*
G04 #@! TD*
D15*
G04 #@! TO.C,Q5*
X159661000Y-107859000D03*
X158391000Y-105789000D03*
D16*
X157121000Y-107859000D03*
G04 #@! TD*
D15*
G04 #@! TO.C,Q4*
X159661000Y-101749000D03*
X158391000Y-99679000D03*
D16*
X157121000Y-101749000D03*
G04 #@! TD*
D15*
G04 #@! TO.C,Q3*
X159661000Y-95639000D03*
X158391000Y-93569000D03*
D16*
X157121000Y-95639000D03*
G04 #@! TD*
D15*
G04 #@! TO.C,Q2*
X159661000Y-89529000D03*
X158391000Y-87459000D03*
D16*
X157121000Y-89529000D03*
G04 #@! TD*
D15*
G04 #@! TO.C,Q1*
X159661000Y-83419000D03*
X158391000Y-81349000D03*
D16*
X157121000Y-83419000D03*
G04 #@! TD*
D17*
G04 #@! TO.C,D3*
X171121000Y-104129000D03*
D18*
X168581000Y-104129000D03*
G04 #@! TD*
D17*
G04 #@! TO.C,D2*
X170621000Y-94129000D03*
D18*
X168081000Y-94129000D03*
G04 #@! TD*
D17*
G04 #@! TO.C,D1*
X170621000Y-82629000D03*
D18*
X168081000Y-82629000D03*
G04 #@! TD*
%LPD*%
M02*
